<?xml version="1.0" encoding="utf-8" standalone="no"?>
<!DOCTYPE svg PUBLIC "-//W3C//DTD SVG 1.1//EN"
  "http://www.w3.org/Graphics/SVG/1.1/DTD/svg11.dtd">
<svg xmlns:xlink="http://www.w3.org/1999/xlink" width="1152pt" height="284.453746pt" viewBox="0 0 1152 284.453746" xmlns="http://www.w3.org/2000/svg" version="1.1">
 <metadata>
  <rdf:RDF xmlns:dc="http://purl.org/dc/elements/1.1/" xmlns:cc="http://creativecommons.org/ns#" xmlns:rdf="http://www.w3.org/1999/02/22-rdf-syntax-ns#">
   <cc:Work>
    <dc:type rdf:resource="http://purl.org/dc/dcmitype/StillImage"/>
    <dc:date>2024-02-11T20:30:26.408486</dc:date>
    <dc:format>image/svg+xml</dc:format>
    <dc:creator>
     <cc:Agent>
      <dc:title>Matplotlib v3.8.2, https://matplotlib.org/</dc:title>
     </cc:Agent>
    </dc:creator>
   </cc:Work>
  </rdf:RDF>
 </metadata>
 <defs>
  <style type="text/css">*{stroke-linejoin: round; stroke-linecap: butt}</style>
 </defs>
 <g id="figure_1">
  <g id="patch_1">
   <path d="M 0 284.453746 
L 1152 284.453746 
L 1152 0 
L 0 0 
z
"/>
  </g>
  <g id="axes_1">
   <g id="patch_2">
    <path d="M 0 284.453746 
L 1152 284.453746 
L 1152 0 
L 0 0 
z
" style="fill: #ffffff"/>
   </g>
   <g id="patch_3">
    <path d="M 711.744892 271.52403 
L 711.744892 12.929716 
L 1099.636364 12.929716 
L 1099.636364 271.52403 
L 711.744892 271.52403 
" clip-path="url(#p1bd53426a3)" style="fill: none; stroke: #000000; stroke-width: 0.72; stroke-linejoin: miter"/>
   </g>
   <g id="patch_4">
    <path d="M 844.061169 211.535004 
L 844.061169 82.237847 
L 973.358326 82.237847 
L 973.358326 211.535004 
L 844.061169 211.535004 
" clip-path="url(#p1bd53426a3)" style="fill: none; stroke: #000000; stroke-width: 0.72; stroke-linejoin: miter"/>
   </g>
   <g id="patch_5">
    <path d="M 161.787491 214.656082 
L 161.787491 42.259873 
L 208.274749 42.259873 
C 210.602921 42.259872 212.929777 42.370519 215.247443 42.59144 
C 217.051079 42.763361 218.842521 43.045352 220.611752 43.435836 
C 222.371161 43.82415 224.097289 44.350291 225.77416 45.00939 
C 227.10672 45.533156 228.384043 46.187806 229.587369 46.963726 
C 230.788298 47.71874 231.906526 48.597914 232.923615 49.586754 
C 234.109389 50.739593 235.188951 51.99686 236.149225 53.343326 
C 237.115184 54.697765 237.980327 56.121342 238.737669 57.602562 
C 239.684405 59.454201 240.521604 61.359831 241.244943 63.309615 
C 241.970002 65.264032 242.600026 67.252403 243.132803 69.267745 
C 243.692516 71.38498 244.154381 73.526878 244.516931 75.686628 
C 244.879685 77.84761 245.148947 80.023249 245.323962 82.207466 
C 245.512976 84.566387 245.607596 86.931922 245.607594 89.298403 
C 245.607593 92.34372 245.445509 95.386878 245.122029 98.414966 
C 244.84208 101.035557 244.401152 103.63644 243.801743 106.202873 
C 243.203722 108.763359 242.428126 111.279092 241.480581 113.73182 
C 240.61507 115.972201 239.579936 118.143303 238.384188 120.226235 
C 237.197373 122.293609 235.798702 124.231906 234.21076 126.009827 
C 232.708902 127.691368 231.026524 129.202495 229.194015 130.515913 
C 227.358317 131.831622 225.388263 132.948942 223.316902 133.849131 
C 220.980903 134.864333 218.554716 135.657886 216.070305 136.219335 
C 217.893398 137.659768 219.62127 139.216784 221.243065 140.880604 
C 222.422621 142.090725 223.491843 143.403686 224.438012 144.803867 
C 225.450025 146.330855 226.412474 147.890118 227.323855 149.47922 
C 228.386526 151.332117 229.397694 153.214079 230.356198 155.122944 
C 231.315132 157.032668 232.228353 158.965005 233.09508 160.918307 
C 234.094494 163.170632 235.047187 165.443399 235.952547 167.73515 
L 254.189857 214.656082 
L 236.739256 214.656082 
L 222.864596 178.789205 
C 220.838919 173.616735 218.747014 168.470446 216.589396 163.351608 
C 215.408714 160.550509 214.162559 157.777461 212.851956 155.034747 
C 212.196892 153.663889 211.511231 152.307863 210.795486 150.967688 
C 210.264978 149.974354 209.704593 148.997268 209.115096 148.037766 
C 208.526926 147.080426 207.898247 146.148571 207.23077 145.244736 
C 206.781489 144.636361 206.294119 144.057058 205.77159 143.510307 
C 204.760908 142.428185 203.649749 141.444485 202.453075 140.572455 
C 201.533269 139.902184 200.533938 139.348496 199.47793 138.924051 
C 199.08629 138.787453 198.685585 138.678387 198.27874 138.59765 
C 197.64612 138.472109 197.008185 138.375018 196.36686 138.30667 
C 195.723784 138.238135 195.078751 138.189422 194.432676 138.1606 
C 193.540303 138.12079 192.647153 138.100877 191.753893 138.100876 
L 175.662149 138.100876 
L 175.662149 214.656082 
L 161.787491 214.656082 
" clip-path="url(#p1bd53426a3)" style="fill: none; stroke: #000000; stroke-width: 0.72; stroke-linejoin: miter"/>
   </g>
   <g id="patch_6">
    <path d="M 175.662149 118.344694 
L 205.485513 118.344694 
C 207.065651 118.344693 208.644927 118.270896 210.21818 118.123545 
C 211.475712 118.005763 212.725284 117.814562 213.960498 117.550919 
C 215.190422 117.288406 216.39955 116.936493 217.578251 116.497984 
C 218.543636 116.138833 219.475057 115.694274 220.361437 115.169594 
C 221.24662 114.626215 222.080911 114.003988 222.85414 113.310498 
C 223.663545 112.584564 224.408822 111.790162 225.081682 110.936126 
C 225.756499 110.079607 226.363555 109.171812 226.897341 108.220984 
C 227.512383 107.125414 228.052696 105.989538 228.514586 104.821117 
C 229.434155 102.456158 230.12312 100.007898 230.571882 97.510448 
C 231.058877 94.800218 231.303822 92.052039 231.303822 89.298403 
C 231.30382 87.270782 231.18075 85.24503 230.935291 83.232322 
C 230.726327 81.518866 230.395378 79.822502 229.944964 78.15615 
C 229.496036 76.495296 228.91266 74.873739 228.200615 73.307545 
C 227.546429 71.868617 226.765966 70.490518 225.868389 69.189431 
C 224.994804 67.906242 223.953252 66.745867 222.771522 65.739269 
C 221.608965 64.749002 220.316934 63.921713 218.93106 63.280216 
C 218.225098 62.953438 217.499271 62.671412 216.757882 62.435809 
C 215.945491 62.177642 215.118948 61.966329 214.282333 61.802912 
C 213.444488 61.639257 212.5988 61.518678 211.748603 61.441652 
C 210.783838 61.354248 209.815616 61.310479 208.8469 61.310478 
L 175.662149 61.310478 
L 175.662149 118.344694 
" clip-path="url(#p1bd53426a3)" style="fill: none; stroke: #000000; stroke-width: 0.72; stroke-linejoin: miter"/>
   </g>
   <g id="patch_7">
    <path d="M 266.955973 214.656082 
L 266.955973 42.259873 
L 287.839479 42.259873 
L 312.656524 164.324856 
C 313.800815 170.008598 314.931043 175.695163 316.047198 181.384498 
C 316.599824 184.201377 317.138379 187.021 317.662844 189.843258 
C 318.258818 186.707434 318.872617 183.575023 319.504212 180.446178 
C 320.732134 174.363197 321.977841 168.283819 323.241315 162.208123 
L 348.344434 42.259873 
L 367.010857 42.259873 
L 367.010857 214.656082 
L 353.63683 214.656082 
L 353.63683 70.365394 
L 323.169796 214.656082 
L 310.653996 214.656082 
L 280.33 67.895872 
L 280.33 214.656082 
L 266.955973 214.656082 
" clip-path="url(#p1bd53426a3)" style="fill: none; stroke: #000000; stroke-width: 0.72; stroke-linejoin: miter"/>
   </g>
   <g id="patch_8">
    <path d="M 52.363636 214.656082 
L 92.628755 42.259873 
L 107.576196 42.259873 
L 150.487511 214.656082 
L 134.681843 214.656082 
L 122.452119 162.443315 
L 78.611058 162.443315 
L 67.096521 214.656082 
L 52.363636 214.656082 
" clip-path="url(#p1bd53426a3)" style="fill: none; stroke: #000000; stroke-width: 0.72; stroke-linejoin: miter"/>
   </g>
   <g id="patch_9">
    <path d="M 82.616115 143.863096 
L 118.160987 143.863096 
L 107.218602 96.118989 
C 105.55017 88.868679 103.958087 81.60101 102.442617 74.317191 
C 101.478436 69.683028 100.59099 65.03323 99.780641 60.369706 
C 99.113643 65.892467 98.309375 71.397783 97.368583 76.880546 
C 96.425178 82.378521 95.345535 87.852248 94.130651 93.296677 
L 82.616115 143.863096 
" clip-path="url(#p1bd53426a3)" style="fill: none; stroke: #000000; stroke-width: 0.72; stroke-linejoin: miter"/>
   </g>
   <g id="patch_10">
    <path d="M 377.845964 214.656082 
L 418.111082 42.259873 
L 433.058522 42.259873 
L 475.969839 214.656082 
L 460.16417 214.656082 
L 447.934446 162.443315 
L 404.093385 162.443315 
L 392.578849 214.656082 
L 377.845964 214.656082 
" clip-path="url(#p1bd53426a3)" style="fill: none; stroke: #000000; stroke-width: 0.72; stroke-linejoin: miter"/>
   </g>
   <g id="patch_11">
    <path d="M 408.098441 143.863096 
L 443.643314 143.863096 
L 432.700929 96.118989 
C 431.032498 88.868679 429.440414 81.60101 427.924944 74.317191 
C 426.960763 69.683028 426.073316 65.03323 425.262967 60.369706 
C 424.595969 65.892467 423.791701 71.397783 422.85091 76.880546 
C 421.907505 82.378521 420.827862 87.852248 419.612977 93.296677 
L 408.098441 143.863096 
" clip-path="url(#p1bd53426a3)" style="fill: none; stroke: #000000; stroke-width: 0.72; stroke-linejoin: miter"/>
   </g>
   <g id="patch_12">
    <path d="M 486.947983 214.656082 
L 486.947983 42.259873 
L 501.180236 42.259873 
L 556.249757 177.613241 
L 556.249757 42.259873 
L 569.552265 42.259873 
L 569.552265 214.656082 
L 555.320012 214.656082 
L 500.250491 79.185119 
L 500.250491 214.656082 
L 486.947983 214.656082 
" clip-path="url(#p1bd53426a3)" style="fill: none; stroke: #000000; stroke-width: 0.72; stroke-linejoin: miter"/>
   </g>
  </g>
 </g>
 <defs>
  <clipPath id="p1bd53426a3">
   <rect x="0" y="0" width="1152" height="284.453746"/>
  </clipPath>
 </defs>
</svg>
