  0
SECTION
  2
ENTITIES
  0
POLYLINE
  8
0
  66
1
  70
1
  62
7
  0
VERTEX
  8
0
  10
1439.415698
  20
1194.851480
  0
VERTEX
  8
0
  10
1439.415698
  20
1292.851480
  0
VERTEX
  8
0
  10
1440.415698
  20
1293.851480
  0
VERTEX
  8
0
  10
1638.415698
  20
1293.851480
  0
VERTEX
  8
0
  10
1639.415698
  20
1292.851480
  0
VERTEX
  8
0
  10
1639.415698
  20
1194.851480
  0
VERTEX
  8
0
  10
1638.415698
  20
1193.851480
  0
VERTEX
  8
0
  10
1440.415698
  20
1193.851480
  0
VERTEX
  8
0
  10
1439.415698
  20
1194.851480
  0
SEQEND
  0
POLYLINE
  8
0
  66
1
  70
1
  62
7
  0
VERTEX
  8
0
  10
1105.337529
  20
1199.157116
  0
VERTEX
  8
0
  10
1105.337529
  20
1299.157116
  0
VERTEX
  8
0
  10
1305.337529
  20
1299.157116
  0
VERTEX
  8
0
  10
1305.337529
  20
1199.157116
  0
VERTEX
  8
0
  10
1105.337529
  20
1199.157116
  0
SEQEND
  0
POLYLINE
  8
0
  66
1
  70
1
  62
7
  0
VERTEX
  8
0
  10
1201.849000
  20
1102.041547
  42
0.414214
  0
VERTEX
  8
0
  10
1101.849000
  20
1002.041547
  42
0.414214
  0
VERTEX
  8
0
  10
1201.849000
  20
902.041547
  42
0.414214
  0
VERTEX
  8
0
  10
1301.849000
  20
1002.041547
  42
0.414214
  0
VERTEX
  8
0
  10
1201.849000
  20
1102.041547
  0
SEQEND
  0
POLYLINE
  8
0
  66
1
  70
1
  62
7
  0
VERTEX
  8
0
  10
1355.631015
  20
956.413085
  0
VERTEX
  8
0
  10
1386.287746
  20
1020.981225
  0
VERTEX
  8
0
  10
1358.682743
  20
1086.911823
  0
VERTEX
  8
0
  10
1429.928758
  20
1092.646385
  0
VERTEX
  8
0
  10
1473.223830
  20
1149.518318
  0
VERTEX
  8
0
  10
1513.813114
  20
1090.684740
  0
VERTEX
  8
0
  10
1584.713188
  20
1081.626074
  0
VERTEX
  8
0
  10
1554.056457
  20
1017.057934
  0
VERTEX
  8
0
  10
1581.661459
  20
951.127336
  0
VERTEX
  8
0
  10
1510.415444
  20
945.392774
  0
VERTEX
  8
0
  10
1467.120373
  20
888.520842
  0
VERTEX
  8
0
  10
1426.531089
  20
947.354420
  0
VERTEX
  8
0
  10
1355.631015
  20
956.413085
  0
SEQEND
  0
POLYLINE
  8
0
  66
1
  70
1
  62
7
  0
VERTEX
  8
0
  10
1745.639023
  20
854.612225
  0
VERTEX
  8
0
  10
1045.639023
  20
854.612225
  0
VERTEX
  8
0
  10
1045.639023
  20
1354.612225
  0
VERTEX
  8
0
  10
1745.639023
  20
1354.612225
  0
VERTEX
  8
0
  10
1745.639023
  20
854.612225
  0
SEQEND
  0
ENDSEC
  0
EOF
