  0
SECTION
  2
ENTITIES
  0
POLYLINE
  8
0
  66
1
  70
1
  62
7
  0
VERTEX
  8
0
  10
1722.100036
  20
-2782.050712
  0
VERTEX
  8
0
  10
1722.100036
  20
-2652.224467
  0
VERTEX
  8
0
  10
1711.811714
  20
-2652.224467
  0
VERTEX
  8
0
  10
1711.811714
  20
-2756.908414
  0
VERTEX
  8
0
  10
1669.220274
  20
-2652.224467
  0
VERTEX
  8
0
  10
1658.212876
  20
-2652.224467
  0
VERTEX
  8
0
  10
1658.212876
  20
-2782.050712
  0
VERTEX
  8
0
  10
1648.849292
  20
-2782.050712
  0
VERTEX
  8
0
  10
1616.534109
  20
-2652.224467
  0
VERTEX
  8
0
  10
1604.973575
  20
-2652.224467
  0
VERTEX
  8
0
  10
1574.651163
  20
-2782.050712
  0
VERTEX
  8
0
  10
1565.452038
  20
-2782.050712
  0
VERTEX
  8
0
  10
1565.452038
  20
-2652.224467
  0
VERTEX
  8
0
  10
1551.015199
  20
-2652.224467
  0
VERTEX
  8
0
  10
1531.600140
  20
-2744.993908
  42
0.001462
  0
VERTEX
  8
0
  10
1528.709819
  20
-2759.099443
  42
0.002843
  0
VERTEX
  8
0
  10
1527.285682
  20
-2766.367259
  42
0.002497
  0
VERTEX
  8
0
  10
1526.036122
  20
-2759.825151
  42
0.001237
  0
VERTEX
  8
0
  10
1523.413733
  20
-2746.631016
  0
VERTEX
  8
0
  10
1504.219928
  20
-2652.224467
  0
VERTEX
  8
0
  10
1488.068369
  20
-2652.224467
  0
VERTEX
  8
0
  10
1488.068369
  20
-2782.050712
  0
VERTEX
  8
0
  10
1476.831758
  20
-2782.050712
  0
VERTEX
  8
0
  10
1464.089941
  20
-2749.268578
  42
0.010348
  0
VERTEX
  8
0
  10
1461.879941
  20
-2743.996348
  42
0.011933
  0
VERTEX
  8
0
  10
1459.761655
  20
-2739.514144
  42
0.013843
  0
VERTEX
  8
0
  10
1457.416405
  20
-2735.149219
  42
0.016143
  0
VERTEX
  8
0
  10
1455.184458
  20
-2731.533244
  42
0.044616
  0
VERTEX
  8
0
  10
1452.713448
  20
-2728.498945
  42
0.032389
  0
VERTEX
  8
0
  10
1448.712772
  20
-2724.893862
  42
0.046962
  0
VERTEX
  8
0
  10
1454.317378
  20
-2723.060718
  42
0.053026
  0
VERTEX
  8
0
  10
1458.862810
  20
-2720.482766
  42
0.055034
  0
VERTEX
  8
0
  10
1462.742822
  20
-2716.997704
  42
0.052017
  0
VERTEX
  8
0
  10
1465.970602
  20
-2712.524604
  42
0.038137
  0
VERTEX
  8
0
  10
1468.365390
  20
-2707.501744
  42
0.034818
  0
VERTEX
  8
0
  10
1470.160604
  20
-2701.678765
  42
0.030765
  0
VERTEX
  8
0
  10
1471.181730
  20
-2695.655501
  42
0.026612
  0
VERTEX
  8
0
  10
1471.557272
  20
-2688.604640
  42
0.019992
  0
VERTEX
  8
0
  10
1471.337908
  20
-2683.120423
  42
0.021593
  0
VERTEX
  8
0
  10
1470.713740
  20
-2678.077128
  42
0.023037
  0
VERTEX
  8
0
  10
1469.643239
  20
-2673.112685
  42
0.024204
  0
VERTEX
  8
0
  10
1468.183145
  20
-2668.504595
  42
0.029358
  0
VERTEX
  8
0
  10
1466.243988
  20
-2664.090690
  42
0.036735
  0
VERTEX
  8
0
  10
1464.242054
  20
-2660.796545
  42
0.045021
  0
VERTEX
  8
0
  10
1461.747328
  20
-2657.891166
  42
0.052565
  0
VERTEX
  8
0
  10
1459.167035
  20
-2655.862485
  42
0.049595
  0
VERTEX
  8
0
  10
1456.217852
  20
-2654.350978
  42
0.039340
  0
VERTEX
  8
0
  10
1452.225183
  20
-2653.133972
  42
0.030558
  0
VERTEX
  8
0
  10
1448.076360
  20
-2652.480905
  42
0.023763
  0
VERTEX
  8
0
  10
1442.683594
  20
-2652.224467
  0
VERTEX
  8
0
  10
1406.729781
  20
-2652.224467
  0
VERTEX
  8
0
  10
1406.729781
  20
-2782.050712
  0
VERTEX
  8
0
  10
1397.117286
  20
-2782.050712
  0
VERTEX
  8
0
  10
1364.802103
  20
-2652.224467
  0
VERTEX
  8
0
  10
1353.241570
  20
-2652.224467
  0
VERTEX
  8
0
  10
1322.919157
  20
-2782.050712
  0
VERTEX
  8
0
  10
1310.064762
  20
-2782.050712
  0
VERTEX
  8
0
  10
1310.064762
  20
-2798.892821
  0
VERTEX
  8
0
  10
1729.808702
  20
-2798.892821
  0
VERTEX
  8
0
  10
1729.808702
  20
-2782.050712
  0
VERTEX
  8
0
  10
1722.100036
  20
-2782.050712
  0
SEQEND
  0
POLYLINE
  8
0
  66
1
  70
1
  62
7
  0
VERTEX
  8
0
  10
1417.460611
  20
-2711.069397
  0
VERTEX
  8
0
  10
1417.460611
  20
-2666.958437
  0
VERTEX
  8
0
  10
1443.126103
  20
-2666.958437
  42
-0.022591
  0
VERTEX
  8
0
  10
1445.370315
  20
-2667.059889
  42
-0.025643
  0
VERTEX
  8
0
  10
1447.329933
  20
-2667.339292
  42
-0.028706
  0
VERTEX
  8
0
  10
1449.244553
  20
-2667.828782
  42
-0.031466
  0
VERTEX
  8
0
  10
1450.925314
  20
-2668.481857
  42
-0.068111
  0
VERTEX
  8
0
  10
1453.895575
  20
-2670.383718
  42
-0.066985
  0
VERTEX
  8
0
  10
1456.290730
  20
-2673.052116
  42
-0.044327
  0
VERTEX
  8
0
  10
1458.094502
  20
-2676.237115
  42
-0.040700
  0
VERTEX
  8
0
  10
1459.443602
  20
-2679.987087
  42
-0.035674
  0
VERTEX
  8
0
  10
1460.209534
  20
-2683.913060
  42
-0.030348
  0
VERTEX
  8
0
  10
1460.494560
  20
-2688.604640
  42
-0.044477
  0
VERTEX
  8
0
  10
1459.928469
  20
-2694.955936
  42
-0.048300
  0
VERTEX
  8
0
  10
1458.337331
  20
-2700.610097
  42
-0.033785
  0
VERTEX
  8
0
  10
1457.086534
  20
-2703.239595
  42
-0.038957
  0
VERTEX
  8
0
  10
1455.682280
  20
-2705.339520
  42
-0.043131
  0
VERTEX
  8
0
  10
1453.959472
  20
-2707.175888
  42
-0.045165
  0
VERTEX
  8
0
  10
1452.031586
  20
-2708.613735
  42
-0.044606
  0
VERTEX
  8
0
  10
1449.879036
  20
-2709.641128
  42
-0.036486
  0
VERTEX
  8
0
  10
1447.081022
  20
-2710.455481
  42
-0.029232
  0
VERTEX
  8
0
  10
1444.186667
  20
-2710.898357
  42
-0.023351
  0
VERTEX
  8
0
  10
1440.526365
  20
-2711.069397
  0
VERTEX
  8
0
  10
1417.460611
  20
-2711.069397
  0
SEQEND
  0
POLYLINE
  8
0
  66
1
  70
1
  62
7
  0
VERTEX
  8
0
  10
1417.460611
  20
-2782.050712
  0
VERTEX
  8
0
  10
1417.460611
  20
-2726.349069
  0
VERTEX
  8
0
  10
1429.906162
  20
-2726.349069
  42
-0.011146
  0
VERTEX
  8
0
  10
1431.977966
  20
-2726.395260
  42
-0.015399
  0
VERTEX
  8
0
  10
1433.473887
  20
-2726.508233
  42
-0.022436
  0
VERTEX
  8
0
  10
1434.952559
  20
-2726.733280
  42
-0.034937
  0
VERTEX
  8
0
  10
1435.880026
  20
-2726.985722
  42
-0.061970
  0
VERTEX
  8
0
  10
1438.181040
  20
-2728.260618
  42
-0.047482
  0
VERTEX
  8
0
  10
1440.747620
  20
-2730.532789
  42
-0.031674
  0
VERTEX
  8
0
  10
1441.876168
  20
-2731.874217
  42
-0.021296
  0
VERTEX
  8
0
  10
1443.333528
  20
-2734.034381
  42
-0.015100
  0
VERTEX
  8
0
  10
1444.633163
  20
-2736.300418
  42
-0.011190
  0
VERTEX
  8
0
  10
1446.223662
  20
-2739.445932
  42
-0.011716
  0
VERTEX
  8
0
  10
1449.114244
  20
-2745.878293
  42
-0.006410
  0
VERTEX
  8
0
  10
1453.967560
  20
-2757.817919
  0
VERTEX
  8
0
  10
1463.341717
  20
-2782.050712
  0
VERTEX
  8
0
  10
1417.460611
  20
-2782.050712
  0
SEQEND
  0
POLYLINE
  8
0
  66
1
  70
1
  62
7
  0
VERTEX
  8
0
  10
1532.285349
  20
-2782.050712
  0
VERTEX
  8
0
  10
1555.108402
  20
-2673.961620
  0
VERTEX
  8
0
  10
1555.108402
  20
-2782.050712
  0
VERTEX
  8
0
  10
1532.285349
  20
-2782.050712
  0
SEQEND
  0
POLYLINE
  8
0
  66
1
  70
1
  62
7
  0
VERTEX
  8
0
  10
1498.412005
  20
-2782.050712
  0
VERTEX
  8
0
  10
1498.412005
  20
-2672.051661
  0
VERTEX
  8
0
  10
1521.140309
  20
-2782.050712
  0
VERTEX
  8
0
  10
1498.412005
  20
-2782.050712
  0
SEQEND
  0
POLYLINE
  8
0
  66
1
  70
1
  62
7
  0
VERTEX
  8
0
  10
1345.497671
  20
-2730.805640
  0
VERTEX
  8
0
  10
1354.403154
  20
-2691.696955
  42
0.012403
  0
VERTEX
  8
0
  10
1356.907411
  20
-2679.000518
  42
0.012437
  0
VERTEX
  8
0
  10
1358.772925
  20
-2666.230834
  42
0.008272
  0
VERTEX
  8
0
  10
1360.831731
  20
-2677.017988
  42
0.005262
  0
VERTEX
  8
0
  10
1364.525536
  20
-2693.879765
  0
VERTEX
  8
0
  10
1372.988510
  20
-2730.805640
  0
VERTEX
  8
0
  10
1345.497671
  20
-2730.805640
  0
SEQEND
  0
POLYLINE
  8
0
  66
1
  70
1
  62
7
  0
VERTEX
  8
0
  10
1334.268051
  20
-2782.050712
  0
VERTEX
  8
0
  10
1342.400112
  20
-2745.175809
  0
VERTEX
  8
0
  10
1376.307324
  20
-2745.175809
  0
VERTEX
  8
0
  10
1384.944482
  20
-2782.050712
  0
VERTEX
  8
0
  10
1334.268051
  20
-2782.050712
  0
SEQEND
  0
POLYLINE
  8
0
  66
1
  70
1
  62
7
  0
VERTEX
  8
0
  10
1597.229677
  20
-2730.805640
  0
VERTEX
  8
0
  10
1606.135160
  20
-2691.696955
  42
0.012403
  0
VERTEX
  8
0
  10
1608.639416
  20
-2679.000518
  42
0.012437
  0
VERTEX
  8
0
  10
1610.504931
  20
-2666.230834
  42
0.008272
  0
VERTEX
  8
0
  10
1612.563737
  20
-2677.017988
  42
0.005262
  0
VERTEX
  8
0
  10
1616.257541
  20
-2693.879765
  0
VERTEX
  8
0
  10
1624.720516
  20
-2730.805640
  0
VERTEX
  8
0
  10
1597.229677
  20
-2730.805640
  0
SEQEND
  0
POLYLINE
  8
0
  66
1
  70
1
  62
7
  0
VERTEX
  8
0
  10
1586.000057
  20
-2782.050712
  0
VERTEX
  8
0
  10
1594.132118
  20
-2745.175809
  0
VERTEX
  8
0
  10
1628.039329
  20
-2745.175809
  0
VERTEX
  8
0
  10
1636.676488
  20
-2782.050712
  0
VERTEX
  8
0
  10
1586.000057
  20
-2782.050712
  0
SEQEND
  0
POLYLINE
  8
0
  66
1
  70
1
  62
7
  0
VERTEX
  8
0
  10
1668.501198
  20
-2782.050712
  0
VERTEX
  8
0
  10
1668.501198
  20
-2680.782903
  0
VERTEX
  8
0
  10
1709.666992
  20
-2782.050712
  0
VERTEX
  8
0
  10
1668.501198
  20
-2782.050712
  0
SEQEND
  0
ENDSEC
  0
EOF
