  0
SECTION
  2
ENTITIES
  0
POLYLINE
  8
0
  66
1
  70
1
  62
7
  0
VERTEX
  8
0
  10
6756.564051
  20
805.152183
  42
0.005297
  0
VERTEX
  8
0
  10
6756.695027
  20
805.829500
  42
0.002868
  0
VERTEX
  8
0
  10
6756.916439
  20
807.084070
  42
-0.002023
  0
VERTEX
  8
0
  10
6757.148810
  20
808.413878
  42
-0.004466
  0
VERTEX
  8
0
  10
6757.261849
  20
809.014684
  42
-0.032385
  0
VERTEX
  8
0
  10
6757.718047
  20
810.731422
  42
-0.045383
  0
VERTEX
  8
0
  10
6758.229850
  20
811.892482
  42
0.003699
  0
VERTEX
  8
0
  10
6760.804728
  20
823.111772
  42
0.004185
  0
VERTEX
  8
0
  10
6762.924350
  20
833.064731
  42
0.005172
  0
VERTEX
  8
0
  10
6765.079570
  20
844.204158
  42
0.005677
  0
VERTEX
  8
0
  10
6766.822649
  20
854.394182
  42
0.004175
  0
VERTEX
  8
0
  10
6767.862229
  20
861.286133
  42
0.004652
  0
VERTEX
  8
0
  10
6768.685852
  20
867.486682
  0
VERTEX
  8
0
  10
6768.740952
  20
867.935581
  42
0.000361
  0
VERTEX
  8
0
  10
6768.791543
  20
868.353076
  42
0.000306
  0
VERTEX
  8
0
  10
6768.850652
  20
868.846383
  42
0.007812
  0
VERTEX
  8
0
  10
6769.821083
  20
878.175029
  42
0.008915
  0
VERTEX
  8
0
  10
6770.397550
  20
886.373168
  42
0.009739
  0
VERTEX
  8
0
  10
6770.656138
  20
894.231502
  42
0.011108
  0
VERTEX
  8
0
  10
6770.595489
  20
901.125030
  42
0.012022
  0
VERTEX
  8
0
  10
6770.234691
  20
907.671745
  42
0.013611
  0
VERTEX
  8
0
  10
6769.620109
  20
913.430467
  42
0.014442
  0
VERTEX
  8
0
  10
6768.736280
  20
918.824065
  42
0.016057
  0
VERTEX
  8
0
  10
6767.647052
  20
923.617978
  42
0.008037
  0
VERTEX
  8
0
  10
6767.019788
  20
925.911786
  42
0.008364
  0
VERTEX
  8
0
  10
6766.345051
  20
928.095081
  42
0.023264
  0
VERTEX
  8
0
  10
6764.723507
  20
932.364614
  42
0.022709
  0
VERTEX
  8
0
  10
6762.667851
  20
936.567480
  42
0.000521
  0
VERTEX
  8
0
  10
6762.579444
  20
936.729617
  42
0.001050
  0
VERTEX
  8
0
  10
6762.535351
  20
936.809881
  42
0.003430
  0
VERTEX
  8
0
  10
6762.204835
  20
937.398116
  42
0.003283
  0
VERTEX
  8
0
  10
6761.851252
  20
938.008080
  42
0.001792
  0
VERTEX
  8
0
  10
6761.638866
  20
938.367940
  42
0.002391
  0
VERTEX
  8
0
  10
6761.477452
  20
938.636278
  0
VERTEX
  8
0
  10
6761.311851
  20
938.904079
  42
0.027016
  0
VERTEX
  8
0
  10
6757.947536
  20
943.785889
  42
0.025415
  0
VERTEX
  8
0
  10
6753.848289
  20
948.572014
  42
0.022784
  0
VERTEX
  8
0
  10
6749.489465
  20
952.766358
  42
0.021287
  0
VERTEX
  8
0
  10
6744.447461
  20
956.827345
  42
0.036717
  0
VERTEX
  8
0
  10
6734.033939
  20
963.386257
  42
0.033254
  0
VERTEX
  8
0
  10
6721.641702
  20
968.952904
  42
0.030034
  0
VERTEX
  8
0
  10
6709.212588
  20
972.738625
  42
0.030251
  0
VERTEX
  8
0
  10
6696.509968
  20
974.986176
  42
0.015674
  0
VERTEX
  8
0
  10
6690.199730
  20
975.513001
  42
0.016545
  0
VERTEX
  8
0
  10
6684.201671
  20
975.626147
  42
0.017928
  0
VERTEX
  8
0
  10
6678.161359
  20
975.323410
  42
0.019584
  0
VERTEX
  8
0
  10
6672.667652
  20
974.632579
  42
0.001892
  0
VERTEX
  8
0
  10
6672.134562
  20
974.543539
  42
0.002021
  0
VERTEX
  8
0
  10
6671.636151
  20
974.456278
  0
VERTEX
  8
0
  10
6671.395253
  20
974.412379
  42
0.016911
  0
VERTEX
  8
0
  10
6667.272320
  20
973.512284
  42
0.018320
  0
VERTEX
  8
0
  10
6663.534155
  20
972.415480
  42
0.021694
  0
VERTEX
  8
0
  10
6658.744555
  20
970.582818
  42
0.020209
  0
VERTEX
  8
0
  10
6653.786153
  20
968.192279
  0
VERTEX
  8
0
  10
6653.507353
  20
968.042380
  42
0.002616
  0
VERTEX
  8
0
  10
6652.833301
  20
967.674617
  42
0.002657
  0
VERTEX
  8
0
  10
6652.173553
  20
967.305579
  42
0.025530
  0
VERTEX
  8
0
  10
6645.579154
  20
963.131219
  42
0.023602
  0
VERTEX
  8
0
  10
6638.923901
  20
957.938394
  42
0.021945
  0
VERTEX
  8
0
  10
6632.862049
  20
952.249553
  42
0.021263
  0
VERTEX
  8
0
  10
6627.135904
  20
945.860429
  42
0.021190
  0
VERTEX
  8
0
  10
6621.957918
  20
938.989957
  42
0.021593
  0
VERTEX
  8
0
  10
6617.471157
  20
931.838014
  42
0.023026
  0
VERTEX
  8
0
  10
6613.560420
  20
924.159455
  42
0.024537
  0
VERTEX
  8
0
  10
6610.591253
  20
916.637480
  42
0.001872
  0
VERTEX
  8
0
  10
6610.398463
  20
916.063944
  42
0.001917
  0
VERTEX
  8
0
  10
6610.214455
  20
915.502481
  42
0.000948
  0
VERTEX
  8
0
  10
6610.076842
  20
915.072286
  42
0.001217
  0
VERTEX
  8
0
  10
6609.971056
  20
914.736579
  42
0.002890
  0
VERTEX
  8
0
  10
6609.711848
  20
913.888483
  42
0.002918
  0
VERTEX
  8
0
  10
6609.464954
  20
913.045779
  0
VERTEX
  8
0
  10
6609.380855
  20
912.750081
  42
0.015739
  0
VERTEX
  8
0
  10
6608.283573
  20
908.333411
  42
0.016537
  0
VERTEX
  8
0
  10
6607.512554
  20
904.071282
  42
0.037811
  0
VERTEX
  8
0
  10
6606.875558
  20
895.026434
  42
0.041824
  0
VERTEX
  8
0
  10
6607.603356
  20
886.858880
  42
0.050376
  0
VERTEX
  8
0
  10
6610.052808
  20
878.115068
  42
0.051919
  0
VERTEX
  8
0
  10
6614.102742
  20
870.289032
  42
0.048565
  0
VERTEX
  8
0
  10
6619.477739
  20
863.619695
  42
0.044417
  0
VERTEX
  8
0
  10
6626.598153
  20
857.541182
  42
0.033298
  0
VERTEX
  8
0
  10
6630.797554
  20
855.081351
  42
0.048102
  0
VERTEX
  8
0
  10
6633.945755
  20
853.870479
  42
0.026083
  0
VERTEX
  8
0
  10
6635.211674
  20
853.588820
  42
0.032423
  0
VERTEX
  8
0
  10
6636.249892
  20
853.482605
  42
0.059422
  0
VERTEX
  8
0
  10
6637.599858
  20
853.592977
  42
0.083609
  0
VERTEX
  8
0
  10
6638.501453
  20
853.939680
  42
0.098685
  0
VERTEX
  8
0
  10
6639.154471
  20
854.524728
  42
0.099063
  0
VERTEX
  8
0
  10
6639.531279
  20
855.312755
  42
0.068436
  0
VERTEX
  8
0
  10
6639.617909
  20
856.083781
  42
0.052881
  0
VERTEX
  8
0
  10
6639.487555
  20
857.077480
  42
0.049804
  0
VERTEX
  8
0
  10
6639.042045
  20
858.354649
  42
0.035808
  0
VERTEX
  8
0
  10
6638.130054
  20
859.997618
  42
0.021077
  0
VERTEX
  8
0
  10
6637.280397
  20
861.186577
  42
0.017291
  0
VERTEX
  8
0
  10
6636.136854
  20
862.551981
  42
-0.046197
  0
VERTEX
  8
0
  10
6634.315745
  20
865.000692
  42
-0.043337
  0
VERTEX
  8
0
  10
6632.870464
  20
867.914074
  42
-0.035251
  0
VERTEX
  8
0
  10
6631.986003
  20
870.739087
  42
-0.030963
  0
VERTEX
  8
0
  10
6631.412541
  20
874.059206
  42
-0.042676
  0
VERTEX
  8
0
  10
6631.278324
  20
879.690592
  42
-0.033972
  0
VERTEX
  8
0
  10
6632.190753
  20
886.702981
  42
-0.028843
  0
VERTEX
  8
0
  10
6634.081858
  20
893.958268
  42
-0.024117
  0
VERTEX
  8
0
  10
6637.247152
  20
902.345380
  42
-0.020742
  0
VERTEX
  8
0
  10
6641.082120
  20
910.272560
  42
-0.019124
  0
VERTEX
  8
0
  10
6645.912655
  20
918.511181
  42
-0.018349
  0
VERTEX
  8
0
  10
6651.363546
  20
926.389539
  42
-0.018755
  0
VERTEX
  8
0
  10
6657.253265
  20
933.680967
  42
-0.020899
  0
VERTEX
  8
0
  10
6664.036781
  20
940.835983
  42
-0.022709
  0
VERTEX
  8
0
  10
6670.830153
  20
946.852681
  42
-0.025584
  0
VERTEX
  8
0
  10
6678.023270
  20
952.078318
  42
-0.029626
  0
VERTEX
  8
0
  10
6684.695753
  20
955.880016
  42
-0.019101
  0
VERTEX
  8
0
  10
6688.670760
  20
957.657305
  42
-0.020934
  0
VERTEX
  8
0
  10
6692.416090
  20
958.983821
  42
-0.024693
  0
VERTEX
  8
0
  10
6696.560652
  20
960.038365
  42
-0.026819
  0
VERTEX
  8
0
  10
6700.456751
  20
960.611878
  42
-0.023233
  0
VERTEX
  8
0
  10
6706.379849
  20
960.885012
  42
-0.028043
  0
VERTEX
  8
0
  10
6711.285503
  20
960.607804
  42
-0.040387
  0
VERTEX
  8
0
  10
6717.026418
  20
959.484358
  42
-0.047583
  0
VERTEX
  8
0
  10
6721.660053
  20
957.692078
  42
-0.040238
  0
VERTEX
  8
0
  10
6724.959609
  20
955.693458
  42
-0.040677
  0
VERTEX
  8
0
  10
6727.862665
  20
953.216517
  42
-0.036551
  0
VERTEX
  8
0
  10
6730.226423
  20
950.466776
  42
-0.032735
  0
VERTEX
  8
0
  10
6732.415951
  20
947.062379
  42
-0.035981
  0
VERTEX
  8
0
  10
6734.614636
  20
942.320388
  42
-0.030345
  0
VERTEX
  8
0
  10
6736.454714
  20
936.404517
  42
-0.021378
  0
VERTEX
  8
0
  10
6737.480860
  20
931.293438
  42
-0.017896
  0
VERTEX
  8
0
  10
6738.223753
  20
925.111481
  42
-0.015834
  0
VERTEX
  8
0
  10
6738.564277
  20
918.586041
  42
-0.013206
  0
VERTEX
  8
0
  10
6738.517750
  20
910.752279
  42
-0.010690
  0
VERTEX
  8
0
  10
6738.111259
  20
903.191017
  42
-0.008992
  0
VERTEX
  8
0
  10
6737.274650
  20
894.227981
  42
-0.007518
  0
VERTEX
  8
0
  10
6736.107435
  20
885.020838
  42
-0.006565
  0
VERTEX
  8
0
  10
6734.474577
  20
874.520256
  42
-0.004734
  0
VERTEX
  8
0
  10
6732.904947
  20
865.738242
  42
-0.003843
  0
VERTEX
  8
0
  10
6730.786350
  20
854.956082
  42
-0.003417
  0
VERTEX
  8
0
  10
6728.459819
  20
843.961926
  42
-0.002969
  0
VERTEX
  8
0
  10
6725.620701
  20
831.343432
  42
-0.002079
  0
VERTEX
  8
0
  10
6723.179471
  20
820.982895
  42
-0.001636
  0
VERTEX
  8
0
  10
6719.979250
  20
807.839383
  0
VERTEX
  8
0
  10
6716.655050
  20
796.099281
  42
0.017116
  0
VERTEX
  8
0
  10
6690.606089
  20
787.766503
  42
0.018883
  0
VERTEX
  8
0
  10
6667.597752
  20
778.534183
  42
0.008871
  0
VERTEX
  8
0
  10
6657.770158
  20
773.942335
  42
0.009542
  0
VERTEX
  8
0
  10
6648.796578
  20
769.339671
  42
0.011020
  0
VERTEX
  8
0
  10
6639.365272
  20
764.001506
  42
0.011832
  0
VERTEX
  8
0
  10
6630.817255
  20
758.633383
  42
0.011698
  0
VERTEX
  8
0
  10
6623.447931
  20
753.506670
  42
0.012978
  0
VERTEX
  8
0
  10
6617.041255
  20
748.563383
  42
0.013958
  0
VERTEX
  8
0
  10
6611.180389
  20
743.514946
  42
0.016013
  0
VERTEX
  8
0
  10
6606.344056
  20
738.815883
  42
0.015627
  0
VERTEX
  8
0
  10
6602.457152
  20
734.529218
  42
0.018599
  0
VERTEX
  8
0
  10
6599.445004
  20
730.712196
  42
0.028287
  0
VERTEX
  8
0
  10
6596.206617
  20
725.707675
  42
0.036126
  0
VERTEX
  8
0
  10
6594.194153
  20
721.493786
  42
0.054627
  0
VERTEX
  8
0
  10
6592.743428
  20
715.487756
  42
0.051248
  0
VERTEX
  8
0
  10
6592.575867
  20
708.906072
  42
0.041295
  0
VERTEX
  8
0
  10
6593.527407
  20
702.990848
  42
0.036316
  0
VERTEX
  8
0
  10
6595.634954
  20
696.515084
  42
0.031900
  0
VERTEX
  8
0
  10
6598.648654
  20
690.292319
  42
0.028362
  0
VERTEX
  8
0
  10
6602.854042
  20
683.752910
  42
0.023317
  0
VERTEX
  8
0
  10
6607.287622
  20
678.211982
  42
0.021756
  0
VERTEX
  8
0
  10
6612.554355
  20
672.725487
  42
0.021240
  0
VERTEX
  8
0
  10
6618.370993
  20
667.625512
  42
0.021196
  0
VERTEX
  8
0
  10
6624.611904
  20
663.027348
  42
0.022263
  0
VERTEX
  8
0
  10
6631.380828
  20
658.895135
  42
0.023393
  0
VERTEX
  8
0
  10
6638.154754
  20
655.566087
  42
0.026172
  0
VERTEX
  8
0
  10
6645.371583
  20
652.868738
  42
0.029113
  0
VERTEX
  8
0
  10
6652.088453
  20
651.174085
  42
0.034509
  0
VERTEX
  8
0
  10
6659.269435
  20
650.308465
  42
0.039139
  0
VERTEX
  8
0
  10
6665.646553
  20
650.482386
  42
0.039750
  0
VERTEX
  8
0
  10
6669.089754
  20
651.126679
  42
0.035123
  0
VERTEX
  8
0
  10
6672.832945
  20
652.428326
  42
0.027344
  0
VERTEX
  8
0
  10
6676.036679
  20
654.013820
  42
0.023586
  0
VERTEX
  8
0
  10
6679.544090
  20
656.219585
  42
0.031316
  0
VERTEX
  8
0
  10
6684.779371
  20
660.377190
  42
0.024411
  0
VERTEX
  8
0
  10
6690.858553
  20
666.422287
  42
0.020053
  0
VERTEX
  8
0
  10
6696.604729
  20
673.254062
  42
0.016060
  0
VERTEX
  8
0
  10
6703.144353
  20
682.278487
  42
0.012260
  0
VERTEX
  8
0
  10
6708.729086
  20
690.982952
  42
0.010379
  0
VERTEX
  8
0
  10
6714.853252
  20
701.551985
  42
0.008296
  0
VERTEX
  8
0
  10
6720.132092
  20
711.501280
  42
0.007382
  0
VERTEX
  8
0
  10
6725.711053
  20
722.862884
  42
0.006163
  0
VERTEX
  8
0
  10
6730.544009
  20
733.418911
  42
0.005761
  0
VERTEX
  8
0
  10
6735.443352
  20
744.831383
  42
0.009649
  0
VERTEX
  8
0
  10
6743.585469
  20
765.535542
  42
0.010307
  0
VERTEX
  8
0
  10
6750.428650
  20
785.207384
  42
0.012342
  0
VERTEX
  8
0
  10
6751.029429
  20
785.371167
  42
0.009267
  0
VERTEX
  8
0
  10
6751.819300
  20
785.623633
  0
VERTEX
  8
0
  10
6753.188353
  20
786.108883
  42
-0.015196
  0
VERTEX
  8
0
  10
6755.037795
  20
786.703032
  42
-0.022309
  0
VERTEX
  8
0
  10
6756.324649
  20
787.012283
  42
-0.012404
  0
VERTEX
  8
0
  10
6780.960160
  20
792.927832
  42
-0.013669
  0
VERTEX
  8
0
  10
6803.566300
  20
797.123669
  42
-0.016475
  0
VERTEX
  8
0
  10
6828.609052
  20
800.225504
  42
-0.018010
  0
VERTEX
  8
0
  10
6851.659649
  20
801.477682
  42
0.006912
  0
VERTEX
  8
0
  10
6847.601934
  20
783.583319
  42
0.007801
  0
VERTEX
  8
0
  10
6844.474850
  20
767.630182
  42
0.009284
  0
VERTEX
  8
0
  10
6841.828828
  20
751.170209
  42
0.011089
  0
VERTEX
  8
0
  10
6840.176648
  20
737.310185
  42
0.006104
  0
VERTEX
  8
0
  10
6839.599320
  20
730.475630
  42
0.007039
  0
VERTEX
  8
0
  10
6839.254637
  20
724.538084
  42
0.009029
  0
VERTEX
  8
0
  10
6839.079881
  20
717.779572
  42
0.010100
  0
VERTEX
  8
0
  10
6839.154848
  20
711.735984
  42
0.010344
  0
VERTEX
  8
0
  10
6839.443303
  20
706.328987
  42
0.012390
  0
VERTEX
  8
0
  10
6839.889062
  20
701.830347
  42
0.017374
  0
VERTEX
  8
0
  10
6840.736387
  20
696.522127
  42
0.020513
  0
VERTEX
  8
0
  10
6841.792448
  20
692.092785
  42
0.044825
  0
VERTEX
  8
0
  10
6844.923350
  20
683.342051
  42
0.041740
  0
VERTEX
  8
0
  10
6849.852025
  20
674.666034
  42
0.037737
  0
VERTEX
  8
0
  10
6855.829476
  20
667.205652
  42
0.037072
  0
VERTEX
  8
0
  10
6862.977250
  20
660.603185
  42
0.036936
  0
VERTEX
  8
0
  10
6870.706258
  20
655.340182
  42
0.040715
  0
VERTEX
  8
0
  10
6878.374049
  20
651.705985
  42
0.021978
  0
VERTEX
  8
0
  10
6882.256711
  20
650.430984
  42
0.023998
  0
VERTEX
  8
0
  10
6885.905161
  20
649.594584
  42
0.029338
  0
VERTEX
  8
0
  10
6889.992234
  20
649.107118
  42
0.032582
  0
VERTEX
  8
0
  10
6893.699149
  20
649.125984
  42
0.031741
  0
VERTEX
  8
0
  10
6896.531345
  20
649.421414
  42
0.043254
  0
VERTEX
  8
0
  10
6898.555773
  20
649.946648
  42
0.041709
  0
VERTEX
  8
0
  10
6899.849287
  20
650.530008
  42
0.054953
  0
VERTEX
  8
0
  10
6900.728936
  20
651.153812
  42
0.080712
  0
VERTEX
  8
0
  10
6901.499001
  20
652.100100
  42
0.087513
  0
VERTEX
  8
0
  10
6901.882549
  20
653.159285
  42
0.105464
  0
VERTEX
  8
0
  10
6901.829148
  20
654.589584
  42
0.087419
  0
VERTEX
  8
0
  10
6901.124548
  20
656.159509
  42
0.066729
  0
VERTEX
  8
0
  10
6900.045672
  20
657.366235
  42
0.068694
  0
VERTEX
  8
0
  10
6898.722246
  20
658.216086
  0
VERTEX
  8
0
  10
6898.717149
  20
658.218485
  0
VERTEX
  8
0
  10
6898.711546
  20
658.218485
  42
-0.018263
  0
VERTEX
  8
0
  10
6897.707435
  20
658.255173
  42
-0.013286
  0
VERTEX
  8
0
  10
6896.333299
  20
658.392507
  42
-0.012799
  0
VERTEX
  8
0
  10
6894.869077
  20
658.616467
  42
-0.013152
  0
VERTEX
  8
0
  10
6893.457286
  20
658.908061
  42
-0.017183
  0
VERTEX
  8
0
  10
6891.898017
  20
659.330119
  42
-0.021928
  0
VERTEX
  8
0
  10
6890.705529
  20
659.755377
  42
-0.035381
  0
VERTEX
  8
0
  10
6889.428890
  20
660.383340
  42
-0.055545
  0
VERTEX
  8
0
  10
6888.700048
  20
660.924686
  42
-0.053107
  0
VERTEX
  8
0
  10
6886.690227
  20
662.951600
  42
-0.042205
  0
VERTEX
  8
0
  10
6884.691903
  20
665.931705
  42
-0.029022
  0
VERTEX
  8
0
  10
6883.323726
  20
668.776359
  42
-0.023278
  0
VERTEX
  8
0
  10
6881.997861
  20
672.480536
  42
-0.026759
  0
VERTEX
  8
0
  10
6880.595750
  20
678.120154
  42
-0.019773
  0
VERTEX
  8
0
  10
6879.415950
  20
685.893086
  42
-0.016206
  0
VERTEX
  8
0
  10
6878.753539
  20
694.294528
  42
-0.012620
  0
VERTEX
  8
0
  10
6878.525948
  20
705.113485
  42
-0.009219
  0
VERTEX
  8
0
  10
6878.747041
  20
714.883202
  42
-0.007734
  0
VERTEX
  8
0
  10
6879.405148
  20
726.512385
  42
-0.010550
  0
VERTEX
  8
0
  10
6881.217633
  20
745.923475
  42
-0.008868
  0
VERTEX
  8
0
  10
6884.268747
  20
768.914583
  42
-0.003310
  0
VERTEX
  8
0
  10
6885.675817
  20
777.844508
  42
-0.003426
  0
VERTEX
  8
0
  10
6887.151248
  20
786.452383
  42
-0.003143
  0
VERTEX
  8
0
  10
6888.478178
  20
793.626478
  42
-0.004024
  0
VERTEX
  8
0
  10
6889.594947
  20
799.215184
  42
-0.011775
  0
VERTEX
  8
0
  10
6899.552456
  20
797.750648
  42
-0.013666
  0
VERTEX
  8
0
  10
6908.057247
  20
796.053981
  42
-0.006655
  0
VERTEX
  8
0
  10
6911.545930
  20
795.209339
  42
-0.007643
  0
VERTEX
  8
0
  10
6914.561548
  20
794.387283
  42
-0.007977
  0
VERTEX
  8
0
  10
6917.174626
  20
793.586352
  42
-0.010261
  0
VERTEX
  8
0
  10
6919.182147
  20
792.889981
  42
0.014229
  0
VERTEX
  8
0
  10
6922.028617
  20
792.167222
  42
0.016713
  0
VERTEX
  8
0
  10
6924.485523
  20
791.702907
  42
0.024349
  0
VERTEX
  8
0
  10
6927.476006
  20
791.388749
  42
0.030214
  0
VERTEX
  8
0
  10
6929.900047
  20
791.399484
  42
0.027627
  0
VERTEX
  8
0
  10
6931.567897
  20
791.600732
  42
0.034497
  0
VERTEX
  8
0
  10
6932.873922
  20
791.926283
  42
0.064210
  0
VERTEX
  8
0
  10
6934.453730
  20
792.672923
  42
0.090212
  0
VERTEX
  8
0
  10
6935.367647
  20
793.523781
  42
0.104926
  0
VERTEX
  8
0
  10
6935.850741
  20
794.571401
  42
0.099898
  0
VERTEX
  8
0
  10
6935.879609
  20
795.781532
  42
0.063553
  0
VERTEX
  8
0
  10
6935.568921
  20
796.778067
  42
0.048655
  0
VERTEX
  8
0
  10
6934.885047
  20
797.954984
  42
0.047232
  0
VERTEX
  8
0
  10
6933.644558
  20
799.375182
  42
0.034276
  0
VERTEX
  8
0
  10
6931.642484
  20
801.027295
  42
0.020470
  0
VERTEX
  8
0
  10
6929.944271
  20
802.141030
  42
0.016871
  0
VERTEX
  8
0
  10
6927.789046
  20
803.334683
  42
0.020762
  0
VERTEX
  8
0
  10
6925.386617
  20
804.438191
  42
0.016106
  0
VERTEX
  8
0
  10
6922.193948
  20
805.628483
  42
0.012965
  0
VERTEX
  8
0
  10
6918.857520
  20
806.655751
  42
0.010337
  0
VERTEX
  8
0
  10
6914.617647
  20
807.747781
  42
0.008513
  0
VERTEX
  8
0
  10
6910.251373
  20
808.698513
  42
0.006959
  0
VERTEX
  8
0
  10
6904.876948
  20
809.695682
  42
0.005841
  0
VERTEX
  8
0
  10
6899.398448
  20
810.567757
  42
0.004878
  0
VERTEX
  8
0
  10
6892.817149
  20
811.471181
  42
-0.009064
  0
VERTEX
  8
0
  10
6901.804480
  20
844.871695
  42
-0.010548
  0
VERTEX
  8
0
  10
6910.647447
  20
873.249882
  42
-0.004817
  0
VERTEX
  8
0
  10
6914.678760
  20
884.912366
  42
-0.005356
  0
VERTEX
  8
0
  10
6918.516760
  20
895.324543
  42
-0.006473
  0
VERTEX
  8
0
  10
6923.013638
  20
906.688259
  42
-0.007054
  0
VERTEX
  8
0
  10
6927.420848
  20
917.000880
  42
-0.006684
  0
VERTEX
  8
0
  10
6931.295190
  20
925.418535
  42
-0.007552
  0
VERTEX
  8
0
  10
6934.934747
  20
932.767679
  42
-0.007825
  0
VERTEX
  8
0
  10
6938.431897
  20
939.315322
  42
-0.009141
  0
VERTEX
  8
0
  10
6941.613846
  20
944.815280
  42
-0.009811
  0
VERTEX
  8
0
  10
6944.655794
  20
949.641494
  42
-0.012209
  0
VERTEX
  8
0
  10
6947.268545
  20
953.408279
  42
-0.014260
  0
VERTEX
  8
0
  10
6949.783457
  20
956.652950
  42
-0.020250
  0
VERTEX
  8
0
  10
6951.708247
  20
958.810778
  42
0.073588
  0
VERTEX
  8
0
  10
6952.276195
  20
959.519944
  42
0.096469
  0
VERTEX
  8
0
  10
6952.505600
  20
960.176775
  42
0.087212
  0
VERTEX
  8
0
  10
6952.486915
  20
960.793047
  42
0.071919
  0
VERTEX
  8
0
  10
6952.232647
  20
961.494217
  42
0.076144
  0
VERTEX
  8
0
  10
6951.510820
  20
962.456715
  42
0.048973
  0
VERTEX
  8
0
  10
6950.058245
  20
963.625278
  42
0.039679
  0
VERTEX
  8
0
  10
6947.915220
  20
964.796804
  42
0.029621
  0
VERTEX
  8
0
  10
6944.857421
  20
965.953854
  42
0.019940
  0
VERTEX
  8
0
  10
6942.211285
  20
966.665278
  42
0.018309
  0
VERTEX
  8
0
  10
6939.278746
  20
967.217578
  42
0.022064
  0
VERTEX
  8
0
  10
6935.606462
  20
967.606174
  42
0.022608
  0
VERTEX
  8
0
  10
6932.002852
  20
967.664190
  42
0.025778
  0
VERTEX
  8
0
  10
6928.154667
  20
967.353145
  42
0.028012
  0
VERTEX
  8
0
  10
6924.664211
  20
966.688342
  42
0.033457
  0
VERTEX
  8
0
  10
6921.015335
  20
965.515046
  42
0.036888
  0
VERTEX
  8
0
  10
6917.886887
  20
963.997113
  42
0.043382
  0
VERTEX
  8
0
  10
6914.817415
  20
961.841771
  42
0.045423
  0
VERTEX
  8
0
  10
6912.294948
  20
959.297580
  42
0.016228
  0
VERTEX
  8
0
  10
6911.054432
  20
957.827125
  42
0.013040
  0
VERTEX
  8
0
  10
6909.620510
  20
955.910242
  42
0.008045
  0
VERTEX
  8
0
  10
6908.588093
  20
954.401431
  42
0.005900
  0
VERTEX
  8
0
  10
6907.238347
  20
952.305778
  42
0.011229
  0
VERTEX
  8
0
  10
6904.515205
  20
947.741381
  42
0.008413
  0
VERTEX
  8
0
  10
6901.122648
  20
941.511181
  42
0.006746
  0
VERTEX
  8
0
  10
6897.898173
  20
935.137233
  42
0.005642
  0
VERTEX
  8
0
  10
6894.233248
  20
927.423981
  42
0.005015
  0
VERTEX
  8
0
  10
6890.661156
  20
919.473278
  42
0.004508
  0
VERTEX
  8
0
  10
6886.856647
  20
910.554681
  42
0.008562
  0
VERTEX
  8
0
  10
6879.250058
  20
891.346870
  42
0.007993
  0
VERTEX
  8
0
  10
6871.787247
  20
870.512379
  42
0.008781
  0
VERTEX
  8
0
  10
6864.400375
  20
847.484732
  42
0.009286
  0
VERTEX
  8
0
  10
6858.206248
  20
825.470581
  0
VERTEX
  8
0
  10
6855.256649
  20
814.187782
  42
0.014603
  0
VERTEX
  8
0
  10
6831.447567
  20
813.888177
  42
0.013469
  0
VERTEX
  8
0
  10
6805.693938
  20
812.115471
  42
0.011284
  0
VERTEX
  8
0
  10
6782.242904
  20
809.329904
  42
0.010242
  0
VERTEX
  8
0
  10
6756.564051
  20
805.152183
  0
SEQEND
  0
POLYLINE
  8
0
  66
1
  70
1
  62
7
  0
VERTEX
  8
0
  10
8529.622513
  20
712.497984
  42
0.025132
  0
VERTEX
  8
0
  10
8530.097737
  20
709.343552
  42
0.032343
  0
VERTEX
  8
0
  10
8530.745913
  20
706.949884
  42
0.034036
  0
VERTEX
  8
0
  10
8531.518774
  20
705.107208
  42
0.041830
  0
VERTEX
  8
0
  10
8532.367424
  20
703.719273
  42
0.054534
  0
VERTEX
  8
0
  10
8533.560308
  20
702.416423
  42
0.060193
  0
VERTEX
  8
0
  10
8534.881812
  20
701.511885
  0
VERTEX
  8
0
  10
8534.917012
  20
701.493685
  42
0.022259
  0
VERTEX
  8
0
  10
8535.461133
  20
701.244356
  42
0.021794
  0
VERTEX
  8
0
  10
8536.037113
  20
701.039586
  0
VERTEX
  8
0
  10
8536.049111
  20
701.035783
  42
0.030256
  0
VERTEX
  8
0
  10
8536.912046
  20
700.828492
  42
0.027964
  0
VERTEX
  8
0
  10
8537.865310
  20
700.714184
  42
0.072858
  0
VERTEX
  8
0
  10
8538.504766
  20
700.700911
  42
0.049627
  0
VERTEX
  8
0
  10
8539.417731
  20
700.908790
  42
0.029463
  0
VERTEX
  8
0
  10
8540.168490
  20
701.210362
  42
0.021825
  0
VERTEX
  8
0
  10
8541.134599
  20
701.718885
  42
0.021882
  0
VERTEX
  8
0
  10
8542.369006
  20
702.513436
  42
0.015542
  0
VERTEX
  8
0
  10
8544.018012
  20
703.758585
  42
0.014328
  0
VERTEX
  8
0
  10
8545.977150
  20
705.430596
  42
0.010628
  0
VERTEX
  8
0
  10
8548.502410
  20
707.813484
  42
0.008091
  0
VERTEX
  8
0
  10
8550.885823
  20
710.237799
  42
0.006540
  0
VERTEX
  8
0
  10
8553.745411
  20
713.321985
  42
0.009886
  0
VERTEX
  8
0
  10
8559.167441
  20
719.569429
  42
0.007548
  0
VERTEX
  8
0
  10
8565.978813
  20
727.993885
  42
0.006151
  0
VERTEX
  8
0
  10
8572.486564
  20
736.509985
  42
0.005408
  0
VERTEX
  8
0
  10
8579.662212
  20
746.364185
  42
0.005096
  0
VERTEX
  8
0
  10
8586.722314
  20
756.500717
  42
0.004977
  0
VERTEX
  8
0
  10
8593.740712
  20
767.023182
  42
0.005273
  0
VERTEX
  8
0
  10
8600.784127
  20
778.067286
  42
0.005625
  0
VERTEX
  8
0
  10
8607.159511
  20
788.561581
  42
0.006593
  0
VERTEX
  8
0
  10
8613.594585
  20
799.761892
  42
0.007649
  0
VERTEX
  8
0
  10
8618.864010
  20
809.569882
  42
0.009876
  0
VERTEX
  8
0
  10
8624.088543
  20
820.168942
  42
0.012623
  0
VERTEX
  8
0
  10
8627.799208
  20
828.637481
  0
VERTEX
  8
0
  10
8632.502808
  20
842.650481
  42
-0.039249
  0
VERTEX
  8
0
  10
8633.661468
  20
846.093894
  42
-0.051251
  0
VERTEX
  8
0
  10
8635.010159
  20
848.530955
  42
-0.036466
  0
VERTEX
  8
0
  10
8636.048610
  20
849.813098
  42
-0.040465
  0
VERTEX
  8
0
  10
8637.150718
  20
850.811850
  42
-0.047010
  0
VERTEX
  8
0
  10
8638.522838
  20
851.674784
  42
-0.046929
  0
VERTEX
  8
0
  10
8640.034508
  20
852.267482
  42
-0.068281
  0
VERTEX
  8
0
  10
8642.563309
  20
852.632934
  42
-0.055896
  0
VERTEX
  8
0
  10
8645.662735
  20
852.307844
  42
-0.036365
  0
VERTEX
  8
0
  10
8648.139651
  20
851.571722
  42
-0.030114
  0
VERTEX
  8
0
  10
8650.985411
  20
850.294780
  42
-0.024509
  0
VERTEX
  8
0
  10
8653.597283
  20
848.760853
  42
-0.022226
  0
VERTEX
  8
0
  10
8656.306733
  20
846.808193
  42
-0.020412
  0
VERTEX
  8
0
  10
8658.743279
  20
844.715024
  42
-0.020788
  0
VERTEX
  8
0
  10
8660.958608
  20
842.469683
  42
-0.019186
  0
VERTEX
  8
0
  10
8662.581708
  20
840.537697
  42
-0.022354
  0
VERTEX
  8
0
  10
8663.832559
  20
838.769419
  42
-0.018430
  0
VERTEX
  8
0
  10
8664.533143
  20
837.584899
  42
-0.023097
  0
VERTEX
  8
0
  10
8665.011928
  20
836.596436
  42
-0.034677
  0
VERTEX
  8
0
  10
8665.423154
  20
835.417275
  42
-0.046956
  0
VERTEX
  8
0
  10
8665.581510
  20
834.507781
  0
VERTEX
  8
0
  10
8665.582011
  20
834.501981
  0
VERTEX
  8
0
  10
8665.579908
  20
834.496482
  42
-0.003784
  0
VERTEX
  8
0
  10
8665.057406
  20
833.191892
  42
-0.001186
  0
VERTEX
  8
0
  10
8663.348709
  20
829.045483
  42
0.001208
  0
VERTEX
  8
0
  10
8661.419744
  20
824.364391
  42
0.001765
  0
VERTEX
  8
0
  10
8660.118608
  20
821.152782
  42
0.006644
  0
VERTEX
  8
0
  10
8655.635923
  20
809.529867
  42
0.006727
  0
VERTEX
  8
0
  10
8651.516810
  20
797.935384
  42
0.009996
  0
VERTEX
  8
0
  10
8645.646418
  20
779.476749
  42
0.009506
  0
VERTEX
  8
0
  10
8640.235048
  20
759.840946
  42
0.008574
  0
VERTEX
  8
0
  10
8635.772891
  20
741.017194
  42
0.008133
  0
VERTEX
  8
0
  10
8631.734511
  20
721.027484
  0
VERTEX
  8
0
  10
8628.912610
  20
709.336986
  42
0.008537
  0
VERTEX
  8
0
  10
8635.457199
  20
713.990264
  42
0.012402
  0
VERTEX
  8
0
  10
8639.824309
  20
717.379286
  42
0.018460
  0
VERTEX
  8
0
  10
8645.001892
  20
721.935678
  42
0.020095
  0
VERTEX
  8
0
  10
8649.421910
  20
726.475484
  42
0.021226
  0
VERTEX
  8
0
  10
8658.586999
  20
735.912875
  42
0.019518
  0
VERTEX
  8
0
  10
8667.685059
  20
746.952445
  42
0.015881
  0
VERTEX
  8
0
  10
8675.160501
  20
757.457051
  42
0.014050
  0
VERTEX
  8
0
  10
8682.884307
  20
769.814184
  42
0.004351
  0
VERTEX
  8
0
  10
8685.353568
  20
774.108582
  42
0.003705
  0
VERTEX
  8
0
  10
8688.172134
  20
779.198519
  42
0.002393
  0
VERTEX
  8
0
  10
8690.315303
  20
783.182663
  42
0.001733
  0
VERTEX
  8
0
  10
8693.229409
  20
788.708781
  42
-0.000813
  0
VERTEX
  8
0
  10
8696.189494
  20
794.347458
  42
-0.002440
  0
VERTEX
  8
0
  10
8697.188408
  20
796.220584
  42
-0.006483
  0
VERTEX
  8
0
  10
8699.203292
  20
799.841448
  42
-0.010799
  0
VERTEX
  8
0
  10
8700.487410
  20
801.972283
  42
-0.077549
  0
VERTEX
  8
0
  10
8702.381788
  20
803.121300
  42
-0.069937
  0
VERTEX
  8
0
  10
8704.759033
  20
803.730283
  42
-0.061367
  0
VERTEX
  8
0
  10
8707.115163
  20
803.703305
  42
-0.062220
  0
VERTEX
  8
0
  10
8709.362307
  20
803.109582
  42
-0.072074
  0
VERTEX
  8
0
  10
8711.394051
  20
801.928586
  42
-0.085122
  0
VERTEX
  8
0
  10
8712.724508
  20
800.443482
  42
-0.053510
  0
VERTEX
  8
0
  10
8713.223765
  20
799.419879
  42
-0.054135
  0
VERTEX
  8
0
  10
8713.489958
  20
798.326020
  42
-0.048934
  0
VERTEX
  8
0
  10
8713.525289
  20
797.247839
  42
-0.044312
  0
VERTEX
  8
0
  10
8713.343108
  20
796.071084
  42
-0.017631
  0
VERTEX
  8
0
  10
8705.453992
  20
777.493079
  42
-0.018474
  0
VERTEX
  8
0
  10
8696.665207
  20
760.351682
  42
-0.016404
  0
VERTEX
  8
0
  10
8688.265137
  20
746.449241
  42
-0.017829
  0
VERTEX
  8
0
  10
8679.678747
  20
734.215458
  42
-0.021303
  0
VERTEX
  8
0
  10
8669.300781
  20
721.647000
  42
-0.023347
  0
VERTEX
  8
0
  10
8658.845610
  20
711.067985
  42
-0.013894
  0
VERTEX
  8
0
  10
8650.864366
  20
704.426750
  42
-0.011693
  0
VERTEX
  8
0
  10
8640.990009
  20
697.031148
  42
-0.007500
  0
VERTEX
  8
0
  10
8633.098877
  20
691.580741
  42
-0.005475
  0
VERTEX
  8
0
  10
8622.099110
  20
684.397485
  42
-0.017935
  0
VERTEX
  8
0
  10
8614.508351
  20
663.274100
  42
-0.020536
  0
VERTEX
  8
0
  10
8606.480311
  20
645.389185
  42
-0.012009
  0
VERTEX
  8
0
  10
8601.667819
  20
636.301274
  42
-0.013179
  0
VERTEX
  8
0
  10
8596.870861
  20
628.250961
  42
-0.015806
  0
VERTEX
  8
0
  10
8591.117931
  20
619.757345
  42
-0.017267
  0
VERTEX
  8
0
  10
8585.348912
  20
612.346785
  42
-0.019092
  0
VERTEX
  8
0
  10
8579.070339
  20
605.389921
  42
-0.020885
  0
VERTEX
  8
0
  10
8572.840921
  20
599.508673
  42
-0.024008
  0
VERTEX
  8
0
  10
8565.739519
  20
593.918482
  42
-0.025869
  0
VERTEX
  8
0
  10
8558.664312
  20
589.411887
  42
-0.028881
  0
VERTEX
  8
0
  10
8550.755424
  20
585.516271
  42
-0.029992
  0
VERTEX
  8
0
  10
8542.751153
  20
582.685150
  42
-0.031819
  0
VERTEX
  8
0
  10
8534.059342
  20
580.774450
  42
-0.031244
  0
VERTEX
  8
0
  10
8525.033513
  20
579.957189
  42
-0.044061
  0
VERTEX
  8
0
  10
8514.749616
  20
580.383962
  42
-0.044973
  0
VERTEX
  8
0
  10
8504.906712
  20
582.579086
  42
-0.040804
  0
VERTEX
  8
0
  10
8496.477971
  20
586.052362
  42
-0.041737
  0
VERTEX
  8
0
  10
8488.906614
  20
590.755688
  42
-0.040628
  0
VERTEX
  8
0
  10
8482.715289
  20
596.191409
  42
-0.045682
  0
VERTEX
  8
0
  10
8478.118514
  20
601.901688
  42
-0.023548
  0
VERTEX
  8
0
  10
8476.427862
  20
604.726043
  42
-0.026198
  0
VERTEX
  8
0
  10
8475.167652
  20
607.403474
  42
-0.034414
  0
VERTEX
  8
0
  10
8474.115816
  20
610.591006
  42
-0.040062
  0
VERTEX
  8
0
  10
8473.628214
  20
613.434085
  42
-0.045647
  0
VERTEX
  8
0
  10
8473.528668
  20
616.910786
  42
-0.048943
  0
VERTEX
  8
0
  10
8474.046975
  20
620.114068
  42
-0.044643
  0
VERTEX
  8
0
  10
8475.065509
  20
622.926607
  42
-0.041211
  0
VERTEX
  8
0
  10
8476.672451
  20
625.739373
  42
-0.032565
  0
VERTEX
  8
0
  10
8478.484742
  20
628.043246
  42
-0.027597
  0
VERTEX
  8
0
  10
8480.933359
  20
630.484909
  42
-0.019924
  0
VERTEX
  8
0
  10
8483.251829
  20
632.394356
  42
-0.016236
  0
VERTEX
  8
0
  10
8486.258413
  20
634.525585
  42
-0.014159
  0
VERTEX
  8
0
  10
8489.680028
  20
636.651139
  42
-0.011718
  0
VERTEX
  8
0
  10
8493.941526
  20
639.002062
  42
-0.007367
  0
VERTEX
  8
0
  10
8497.282966
  20
640.682418
  42
-0.005340
  0
VERTEX
  8
0
  10
8501.949912
  20
642.882587
  42
-0.003629
  0
VERTEX
  8
0
  10
8506.072021
  20
644.736344
  42
-0.002630
  0
VERTEX
  8
0
  10
8511.792399
  20
647.223248
  0
VERTEX
  8
0
  10
8521.691811
  20
651.435285
  42
0.005515
  0
VERTEX
  8
0
  10
8539.757521
  20
659.388853
  42
0.006029
  0
VERTEX
  8
0
  10
8556.112387
  20
667.044723
  42
0.007047
  0
VERTEX
  8
0
  10
8573.591670
  20
675.791252
  42
0.007547
  0
VERTEX
  8
0
  10
8589.667911
  20
684.431285
  42
0.013346
  0
VERTEX
  8
0
  10
8592.697182
  20
694.814117
  42
0.010993
  0
VERTEX
  8
0
  10
8595.757010
  20
707.582686
  42
0.003412
  0
VERTEX
  8
0
  10
8596.799749
  20
712.617223
  42
0.002268
  0
VERTEX
  8
0
  10
8598.282360
  20
720.208721
  0
VERTEX
  8
0
  10
8599.463351
  20
726.434379
  42
-0.000722
  0
VERTEX
  8
0
  10
8600.162822
  20
730.085298
  42
-0.001038
  0
VERTEX
  8
0
  10
8600.658610
  20
732.624683
  42
-0.001481
  0
VERTEX
  8
0
  10
8601.364582
  20
736.196125
  42
-0.001806
  0
VERTEX
  8
0
  10
8601.962812
  20
739.121283
  42
-0.000656
  0
VERTEX
  8
0
  10
8602.289416
  20
740.678936
  42
-0.000715
  0
VERTEX
  8
0
  10
8602.593212
  20
742.108284
  42
-0.006359
  0
VERTEX
  8
0
  10
8604.307865
  20
749.880412
  42
-0.006606
  0
VERTEX
  8
0
  10
8606.152009
  20
757.317384
  42
-0.005209
  0
VERTEX
  8
0
  10
8607.633796
  20
762.812740
  42
-0.005679
  0
VERTEX
  8
0
  10
8609.102410
  20
767.822584
  42
-0.004341
  0
VERTEX
  8
0
  10
8601.230283
  20
753.829632
  42
-0.005244
  0
VERTEX
  8
0
  10
8594.492309
  20
742.372285
  42
-0.007772
  0
VERTEX
  8
0
  10
8586.031816
  20
728.806830
  42
-0.009934
  0
VERTEX
  8
0
  10
8579.040709
  20
718.434183
  42
-0.006753
  0
VERTEX
  8
0
  10
8574.976837
  20
712.818713
  42
-0.007933
  0
VERTEX
  8
0
  10
8571.378412
  20
708.141983
  42
-0.010044
  0
VERTEX
  8
0
  10
8567.387409
  20
703.323609
  42
-0.012231
  0
VERTEX
  8
0
  10
8563.936811
  20
699.516383
  42
-0.013897
  0
VERTEX
  8
0
  10
8560.466919
  20
696.068215
  42
-0.017739
  0
VERTEX
  8
0
  10
8557.582811
  20
693.543797
  42
-0.030065
  0
VERTEX
  8
0
  10
8553.524532
  20
690.625635
  42
-0.040668
  0
VERTEX
  8
0
  10
8550.247810
  20
688.911386
  42
-0.046016
  0
VERTEX
  8
0
  10
8547.289409
  20
687.967878
  42
-0.034709
  0
VERTEX
  8
0
  10
8543.220962
  20
687.363935
  42
-0.022244
  0
VERTEX
  8
0
  10
8539.873553
  20
687.251759
  42
-0.019138
  0
VERTEX
  8
0
  10
8535.985911
  20
687.443386
  42
-0.019472
  0
VERTEX
  8
0
  10
8531.547857
  20
688.007746
  42
-0.018420
  0
VERTEX
  8
0
  10
8526.915025
  20
688.957773
  42
-0.017399
  0
VERTEX
  8
0
  10
8522.483471
  20
690.202818
  42
-0.017409
  0
VERTEX
  8
0
  10
8518.151711
  20
691.752185
  42
-0.018525
  0
VERTEX
  8
0
  10
8513.990516
  20
693.587314
  42
-0.019577
  0
VERTEX
  8
0
  10
8510.196452
  20
695.618567
  42
-0.024088
  0
VERTEX
  8
0
  10
8506.172863
  20
698.248154
  42
-0.027079
  0
VERTEX
  8
0
  10
8502.850887
  20
700.940960
  42
-0.034360
  0
VERTEX
  8
0
  10
8499.564647
  20
704.351877
  42
-0.039048
  0
VERTEX
  8
0
  10
8497.142084
  20
707.745016
  42
-0.047736
  0
VERTEX
  8
0
  10
8495.170452
  20
711.862542
  42
-0.050354
  0
VERTEX
  8
0
  10
8494.097114
  20
716.056383
  42
-0.017849
  0
VERTEX
  8
0
  10
8493.640042
  20
720.961032
  42
-0.015793
  0
VERTEX
  8
0
  10
8493.497288
  20
726.526133
  42
-0.012201
  0
VERTEX
  8
0
  10
8493.645481
  20
731.409345
  42
-0.010620
  0
VERTEX
  8
0
  10
8494.071513
  20
737.005784
  42
-0.006256
  0
VERTEX
  8
0
  10
8488.897916
  20
728.421974
  42
-0.007013
  0
VERTEX
  8
0
  10
8484.081415
  20
720.890183
  42
-0.008949
  0
VERTEX
  8
0
  10
8478.569618
  20
712.848902
  42
-0.010913
  0
VERTEX
  8
0
  10
8473.791614
  20
706.439686
  42
-0.006304
  0
VERTEX
  8
0
  10
8471.232282
  20
703.242417
  42
-0.007522
  0
VERTEX
  8
0
  10
8469.014038
  20
700.623122
  42
-0.010165
  0
VERTEX
  8
0
  10
8466.311689
  20
697.651979
  42
-0.011631
  0
VERTEX
  8
0
  10
8463.839114
  20
695.160784
  42
-0.012406
  0
VERTEX
  8
0
  10
8461.528825
  20
693.046759
  42
-0.015407
  0
VERTEX
  8
0
  10
8459.576664
  20
691.450460
  42
-0.023818
  0
VERTEX
  8
0
  10
8456.991120
  20
689.654870
  42
-0.030048
  0
VERTEX
  8
0
  10
8454.799713
  20
688.459686
  42
-0.038596
  0
VERTEX
  8
0
  10
8451.527250
  20
687.220197
  42
-0.030943
  0
VERTEX
  8
0
  10
8447.272864
  20
686.255223
  42
-0.021590
  0
VERTEX
  8
0
  10
8443.610955
  20
685.821083
  42
-0.019000
  0
VERTEX
  8
0
  10
8439.424113
  20
685.666787
  42
-0.037839
  0
VERTEX
  8
0
  10
8429.950641
  20
686.395816
  42
-0.035771
  0
VERTEX
  8
0
  10
8420.152216
  20
688.627686
  42
-0.019414
  0
VERTEX
  8
0
  10
8415.236160
  20
690.335101
  42
-0.020320
  0
VERTEX
  8
0
  10
8410.683457
  20
692.334118
  42
-0.023134
  0
VERTEX
  8
0
  10
8406.033986
  20
694.877965
  42
-0.024940
  0
VERTEX
  8
0
  10
8401.967277
  20
697.640873
  42
-0.028948
  0
VERTEX
  8
0
  10
8397.964669
  20
701.043227
  42
-0.031244
  0
VERTEX
  8
0
  10
8394.660966
  20
704.618533
  42
-0.035616
  0
VERTEX
  8
0
  10
8391.674082
  20
708.871542
  42
-0.037009
  0
VERTEX
  8
0
  10
8389.421815
  20
713.337684
  42
-0.032215
  0
VERTEX
  8
0
  10
8387.263999
  20
719.664622
  42
-0.027501
  0
VERTEX
  8
0
  10
8385.637554
  20
727.322209
  42
-0.019773
  0
VERTEX
  8
0
  10
8384.876653
  20
733.923624
  42
-0.016659
  0
VERTEX
  8
0
  10
8384.546317
  20
741.803082
  42
-0.005496
  0
VERTEX
  8
0
  10
8380.470105
  20
734.504466
  42
-0.005963
  0
VERTEX
  8
0
  10
8376.559847
  20
727.865126
  42
-0.009640
  0
VERTEX
  8
0
  10
8370.679226
  20
718.557168
  42
-0.011578
  0
VERTEX
  8
0
  10
8365.458066
  20
711.021172
  42
-0.008171
  0
VERTEX
  8
0
  10
8362.179538
  20
706.667000
  42
-0.009412
  0
VERTEX
  8
0
  10
8359.201906
  20
702.989041
  42
-0.012155
  0
VERTEX
  8
0
  10
8355.760009
  20
699.093825
  42
-0.014588
  0
VERTEX
  8
0
  10
8352.722485
  20
696.005924
  42
-0.019458
  0
VERTEX
  8
0
  10
8349.208940
  20
692.889712
  42
-0.024446
  0
VERTEX
  8
0
  10
8346.204992
  20
690.663659
  42
-0.033701
  0
VERTEX
  8
0
  10
8342.734628
  20
688.669818
  42
-0.043442
  0
VERTEX
  8
0
  10
8339.834617
  20
687.554084
  42
-0.030841
  0
VERTEX
  8
0
  10
8335.583785
  20
686.696617
  42
-0.027938
  0
VERTEX
  8
0
  10
8330.813519
  20
686.306863
  42
-0.023450
  0
VERTEX
  8
0
  10
8326.357061
  20
686.401484
  42
-0.021322
  0
VERTEX
  8
0
  10
8321.485229
  20
686.943296
  42
-0.034136
  0
VERTEX
  8
0
  10
8312.805607
  20
688.899195
  42
-0.031434
  0
VERTEX
  8
0
  10
8303.739817
  20
692.236585
  42
-0.031057
  0
VERTEX
  8
0
  10
8295.211826
  20
696.651183
  42
-0.034477
  0
VERTEX
  8
0
  10
8288.113617
  20
701.598485
  42
-0.018605
  0
VERTEX
  8
0
  10
8285.075847
  20
704.235075
  42
-0.021257
  0
VERTEX
  8
0
  10
8282.609029
  20
706.747360
  42
-0.029587
  0
VERTEX
  8
0
  10
8280.035717
  20
709.964918
  42
-0.035750
  0
VERTEX
  8
0
  10
8278.270317
  20
712.883683
  42
-0.038970
  0
VERTEX
  8
0
  10
8275.193710
  20
720.271273
  42
-0.034026
  0
VERTEX
  8
0
  10
8272.938592
  20
729.151722
  42
-0.026313
  0
VERTEX
  8
0
  10
8271.900484
  20
737.214640
  42
-0.023595
  0
VERTEX
  8
0
  10
8271.644416
  20
746.275884
  42
-0.016743
  0
VERTEX
  8
0
  10
8272.003484
  20
753.120891
  42
-0.017429
  0
VERTEX
  8
0
  10
8272.796617
  20
759.657585
  42
-0.007793
  0
VERTEX
  8
0
  10
8273.232601
  20
762.179161
  42
-0.009439
  0
VERTEX
  8
0
  10
8273.664119
  20
764.247583
  42
-0.006569
  0
VERTEX
  8
0
  10
8273.976174
  20
765.536447
  42
-0.011507
  0
VERTEX
  8
0
  10
8274.180818
  20
766.265384
  42
-0.003540
  0
VERTEX
  8
0
  10
8273.999911
  20
765.854913
  42
-0.002009
  0
VERTEX
  8
0
  10
8273.673118
  20
765.135183
  42
-0.003412
  0
VERTEX
  8
0
  10
8273.086409
  20
763.879656
  42
-0.002639
  0
VERTEX
  8
0
  10
8272.308217
  20
762.265583
  42
-0.004935
  0
VERTEX
  8
0
  10
8270.379333
  20
758.415699
  42
-0.004146
  0
VERTEX
  8
0
  10
8268.000617
  20
753.875783
  42
-0.010301
  0
VERTEX
  8
0
  10
8261.191638
  20
741.747083
  42
-0.010746
  0
VERTEX
  8
0
  10
8254.181419
  20
730.405982
  42
-0.007269
  0
VERTEX
  8
0
  10
8249.557604
  20
723.495087
  42
-0.008313
  0
VERTEX
  8
0
  10
8245.328080
  20
717.580921
  42
-0.010644
  0
VERTEX
  8
0
  10
8240.279835
  20
711.059312
  42
-0.011970
  0
VERTEX
  8
0
  10
8235.533117
  20
705.468884
  42
-0.015842
  0
VERTEX
  8
0
  10
8230.043565
  20
699.688280
  42
-0.019192
  0
VERTEX
  8
0
  10
8225.188520
  20
695.244883
  42
-0.025988
  0
VERTEX
  8
0
  10
8219.483541
  20
690.900704
  42
-0.032764
  0
VERTEX
  8
0
  10
8214.583819
  20
688.007883
  42
-0.045292
  0
VERTEX
  8
0
  10
8211.456520
  20
686.862197
  42
-0.037131
  0
VERTEX
  8
0
  10
8207.467056
  20
686.109760
  42
-0.026466
  0
VERTEX
  8
0
  10
8203.993645
  20
685.903654
  42
-0.023440
  0
VERTEX
  8
0
  10
8200.068820
  20
686.062783
  42
-0.023443
  0
VERTEX
  8
0
  10
8195.749827
  20
686.646242
  42
-0.022200
  0
VERTEX
  8
0
  10
8191.264407
  20
687.675434
  42
-0.020944
  0
VERTEX
  8
0
  10
8187.002337
  20
689.049265
  42
-0.020919
  0
VERTEX
  8
0
  10
8182.865220
  20
690.776684
  42
-0.023174
  0
VERTEX
  8
0
  10
8178.628660
  20
693.002157
  42
-0.024404
  0
VERTEX
  8
0
  10
8174.824429
  20
695.488161
  42
-0.027602
  0
VERTEX
  8
0
  10
8171.107915
  20
698.510870
  42
-0.029785
  0
VERTEX
  8
0
  10
8168.006783
  20
701.688322
  42
-0.034185
  0
VERTEX
  8
0
  10
8165.174576
  20
705.450109
  42
-0.036445
  0
VERTEX
  8
0
  10
8163.040681
  20
709.317963
  42
-0.040464
  0
VERTEX
  8
0
  10
8161.428357
  20
713.729391
  42
-0.040689
  0
VERTEX
  8
0
  10
8160.554520
  20
718.317883
  42
-0.014312
  0
VERTEX
  8
0
  10
8160.353715
  20
721.944367
  42
-0.012528
  0
VERTEX
  8
0
  10
8160.346921
  20
726.093486
  42
-0.010071
  0
VERTEX
  8
0
  10
8154.124261
  20
716.649490
  42
-0.012340
  0
VERTEX
  8
0
  10
8148.705084
  20
709.176622
  42
-0.017530
  0
VERTEX
  8
0
  10
8142.277822
  20
701.343993
  42
-0.023985
  0
VERTEX
  8
0
  10
8137.120322
  20
696.027083
  42
-0.011761
  0
VERTEX
  8
0
  10
8135.004204
  20
694.116323
  42
-0.013373
  0
VERTEX
  8
0
  10
8133.060922
  20
692.531383
  42
-0.011357
  0
VERTEX
  8
0
  10
8131.703753
  20
691.531909
  42
-0.011548
  0
VERTEX
  8
0
  10
8130.325522
  20
690.611186
  42
-0.036908
  0
VERTEX
  8
0
  10
8125.903080
  20
688.198567
  42
-0.037341
  0
VERTEX
  8
0
  10
8121.227222
  20
686.486530
  42
-0.034206
  0
VERTEX
  8
0
  10
8116.642515
  20
685.519144
  42
-0.032376
  0
VERTEX
  8
0
  10
8111.706596
  20
685.149061
  42
-0.028096
  0
VERTEX
  8
0
  10
8107.068254
  20
685.362898
  42
-0.025762
  0
VERTEX
  8
0
  10
8102.064733
  20
686.138354
  42
-0.021962
  0
VERTEX
  8
0
  10
8097.478351
  20
687.305490
  42
-0.020143
  0
VERTEX
  8
0
  10
8092.602720
  20
688.993985
  42
-0.021639
  0
VERTEX
  8
0
  10
8087.090759
  20
691.418163
  42
-0.020116
  0
VERTEX
  8
0
  10
8081.400172
  20
694.510998
  42
-0.018073
  0
VERTEX
  8
0
  10
8076.265049
  20
697.833025
  42
-0.017790
  0
VERTEX
  8
0
  10
8071.303424
  20
701.573085
  42
-0.041785
  0
VERTEX
  8
0
  10
8069.198776
  20
703.429496
  42
-0.035435
  0
VERTEX
  8
0
  10
8067.084098
  20
705.972869
  42
-0.026789
  0
VERTEX
  8
0
  10
8065.477009
  20
708.484476
  42
-0.022840
  0
VERTEX
  8
0
  10
8063.893472
  20
711.602034
  42
-0.031155
  0
VERTEX
  8
0
  10
8061.822915
  20
717.069444
  42
-0.026699
  0
VERTEX
  8
0
  10
8060.159721
  20
723.683883
  42
-0.025872
  0
VERTEX
  8
0
  10
8059.123571
  20
730.972573
  42
-0.025614
  0
VERTEX
  8
0
  10
8058.839122
  20
738.403084
  42
-0.027875
  0
VERTEX
  8
0
  10
8059.349023
  20
745.818412
  42
-0.033003
  0
VERTEX
  8
0
  10
8060.537324
  20
751.984785
  42
-0.012947
  0
VERTEX
  8
0
  10
8056.618664
  20
744.515384
  42
-0.010062
  0
VERTEX
  8
0
  10
8051.140022
  20
735.147083
  42
-0.010792
  0
VERTEX
  8
0
  10
8044.513885
  20
724.829681
  42
-0.011419
  0
VERTEX
  8
0
  10
8037.824824
  20
715.366583
  42
-0.006699
  0
VERTEX
  8
0
  10
8033.994997
  20
710.344780
  42
-0.007669
  0
VERTEX
  8
0
  10
8030.525149
  20
706.056359
  42
-0.009783
  0
VERTEX
  8
0
  10
8026.427876
  20
701.339139
  42
-0.010952
  0
VERTEX
  8
0
  10
8022.596223
  20
697.280584
  42
-0.013735
  0
VERTEX
  8
0
  10
8018.464954
  20
693.316115
  42
-0.016605
  0
VERTEX
  8
0
  10
8014.855022
  20
690.249984
  42
-0.021961
  0
VERTEX
  8
0
  10
8010.775237
  20
687.294185
  42
-0.027864
  0
VERTEX
  8
0
  10
8007.343022
  20
685.295386
  42
-0.059447
  0
VERTEX
  8
0
  10
8004.808195
  20
684.428022
  42
-0.044695
  0
VERTEX
  8
0
  10
8001.276510
  20
683.996422
  42
-0.027152
  0
VERTEX
  8
0
  10
7998.445730
  20
684.058755
  42
-0.022365
  0
VERTEX
  8
0
  10
7995.034122
  20
684.473685
  42
-0.020776
  0
VERTEX
  8
0
  10
7991.236561
  20
685.272426
  42
-0.018463
  0
VERTEX
  8
0
  10
7987.047161
  20
686.503347
  42
-0.015229
  0
VERTEX
  8
0
  10
7983.313300
  20
687.879666
  42
-0.014188
  0
VERTEX
  8
0
  10
7979.399424
  20
689.589986
  42
-0.030534
  0
VERTEX
  8
0
  10
7971.372783
  20
693.989452
  42
-0.034469
  0
VERTEX
  8
0
  10
7964.825825
  20
698.776485
  42
-0.020224
  0
VERTEX
  8
0
  10
7961.900751
  20
701.451076
  42
-0.023540
  0
VERTEX
  8
0
  10
7959.597836
  20
703.960122
  42
-0.033969
  0
VERTEX
  8
0
  10
7957.220052
  20
707.237780
  42
-0.041673
  0
VERTEX
  8
0
  10
7955.705525
  20
710.172685
  42
-0.037093
  0
VERTEX
  8
0
  10
7954.095888
  20
714.570943
  42
-0.029546
  0
VERTEX
  8
0
  10
7952.827123
  20
720.309183
  42
-0.017696
  0
VERTEX
  8
0
  10
7944.804932
  20
710.663605
  42
-0.020545
  0
VERTEX
  8
0
  10
7937.279824
  20
702.906909
  42
-0.013124
  0
VERTEX
  8
0
  10
7932.722710
  20
698.802162
  42
-0.014311
  0
VERTEX
  8
0
  10
7928.343216
  20
695.272535
  42
-0.016788
  0
VERTEX
  8
0
  10
7923.416444
  20
691.783728
  42
-0.018330
  0
VERTEX
  8
0
  10
7918.690826
  20
688.912787
  42
-0.039991
  0
VERTEX
  8
0
  10
7913.732758
  20
686.519071
  42
-0.034529
  0
VERTEX
  8
0
  10
7907.645025
  20
684.630459
  42
-0.026117
  0
VERTEX
  8
0
  10
7902.140016
  20
683.631190
  42
-0.023178
  0
VERTEX
  8
0
  10
7895.857027
  20
683.121185
  42
-0.022020
  0
VERTEX
  8
0
  10
7889.145184
  20
683.184131
  42
-0.020393
  0
VERTEX
  8
0
  10
7881.930052
  20
683.865747
  42
-0.018054
  0
VERTEX
  8
0
  10
7875.192866
  20
685.029679
  42
-0.017320
  0
VERTEX
  8
0
  10
7868.273827
  20
686.736187
  42
-0.017241
  0
VERTEX
  8
0
  10
7861.551299
  20
688.896544
  42
-0.017273
  0
VERTEX
  8
0
  10
7855.005991
  20
691.510500
  42
-0.018765
  0
VERTEX
  8
0
  10
7848.329742
  20
694.752183
  42
-0.019763
  0
VERTEX
  8
0
  10
7842.246139
  20
698.309072
  42
-0.022551
  0
VERTEX
  8
0
  10
7836.128534
  20
702.618414
  42
-0.024477
  0
VERTEX
  8
0
  10
7830.889557
  20
707.100752
  42
-0.028535
  0
VERTEX
  8
0
  10
7825.846837
  20
712.437525
  42
-0.031077
  0
VERTEX
  8
0
  10
7821.831526
  20
717.854386
  42
-0.039987
  0
VERTEX
  8
0
  10
7816.897105
  20
726.977181
  42
-0.038338
  0
VERTEX
  8
0
  10
7813.297531
  20
737.177286
  42
-0.033174
  0
VERTEX
  8
0
  10
7811.331476
  20
747.064300
  42
-0.030449
  0
VERTEX
  8
0
  10
7810.573439
  20
758.018721
  42
-0.025844
  0
VERTEX
  8
0
  10
7811.017435
  20
768.226650
  42
-0.023827
  0
VERTEX
  8
0
  10
7812.594392
  20
779.195387
  42
-0.020751
  0
VERTEX
  8
0
  10
7814.970577
  20
789.256289
  42
-0.019875
  0
VERTEX
  8
0
  10
7818.295529
  20
799.523981
  42
-0.018605
  0
VERTEX
  8
0
  10
7822.312992
  20
809.294063
  42
-0.018663
  0
VERTEX
  8
0
  10
7827.032177
  20
818.708770
  42
-0.019668
  0
VERTEX
  8
0
  10
7832.595332
  20
827.962097
  42
-0.020625
  0
VERTEX
  8
0
  10
7838.593628
  20
836.330781
  42
-0.020582
  0
VERTEX
  8
0
  10
7844.660998
  20
843.471851
  42
-0.023112
  0
VERTEX
  8
0
  10
7850.599240
  20
849.336157
  42
-0.031614
  0
VERTEX
  8
0
  10
7858.170845
  20
855.331237
  42
-0.038044
  0
VERTEX
  8
0
  10
7865.096428
  20
859.393282
  42
-0.043194
  0
VERTEX
  8
0
  10
7870.759369
  20
861.577205
  42
-0.040218
  0
VERTEX
  8
0
  10
7877.144726
  20
862.880557
  42
-0.033449
  0
VERTEX
  8
0
  10
7883.126661
  20
863.204407
  42
-0.030281
  0
VERTEX
  8
0
  10
7889.724927
  20
862.719680
  42
-0.026043
  0
VERTEX
  8
0
  10
7895.974680
  20
861.544002
  42
-0.023976
  0
VERTEX
  8
0
  10
7902.600963
  20
859.595756
  42
-0.021036
  0
VERTEX
  8
0
  10
7908.641897
  20
857.211119
  42
-0.020140
  0
VERTEX
  8
0
  10
7914.725127
  20
854.209982
  42
-0.018495
  0
VERTEX
  8
0
  10
7920.163340
  20
850.982687
  42
-0.019156
  0
VERTEX
  8
0
  10
7925.164575
  20
847.480669
  42
-0.022092
  0
VERTEX
  8
0
  10
7930.185113
  20
843.308556
  42
-0.024459
  0
VERTEX
  8
0
  10
7934.350324
  20
839.134582
  42
-0.025177
  0
VERTEX
  8
0
  10
7937.584360
  20
835.176667
  42
-0.029989
  0
VERTEX
  8
0
  10
7939.917825
  20
831.574157
  42
-0.021292
  0
VERTEX
  8
0
  10
7941.077497
  20
829.303804
  42
-0.024394
  0
VERTEX
  8
0
  10
7941.904813
  20
827.237791
  42
-0.030999
  0
VERTEX
  8
0
  10
7942.558376
  20
824.877485
  42
-0.035419
  0
VERTEX
  8
0
  10
7942.851926
  20
822.753582
  42
-0.043687
  0
VERTEX
  8
0
  10
7942.848485
  20
820.569636
  42
-0.038882
  0
VERTEX
  8
0
  10
7942.441688
  20
818.150782
  42
-0.029426
  0
VERTEX
  8
0
  10
7941.799718
  20
816.098605
  42
-0.025359
  0
VERTEX
  8
0
  10
7940.799126
  20
813.813481
  42
-0.023174
  0
VERTEX
  8
0
  10
7939.463462
  20
811.424465
  42
-0.019836
  0
VERTEX
  8
0
  10
7937.669314
  20
808.778169
  42
-0.014513
  0
VERTEX
  8
0
  10
7935.985054
  20
806.628019
  42
-0.012359
  0
VERTEX
  8
0
  10
7933.874624
  20
804.213181
  42
-0.020863
  0
VERTEX
  8
0
  10
7929.326154
  20
799.657956
  42
-0.016363
  0
VERTEX
  8
0
  10
7923.111925
  20
794.298284
  42
-0.012395
  0
VERTEX
  8
0
  10
7917.028942
  20
789.633827
  42
-0.010411
  0
VERTEX
  8
0
  10
7909.541125
  20
784.416481
  42
-0.015362
  0
VERTEX
  8
0
  10
7895.437560
  20
775.632324
  42
-0.012914
  0
VERTEX
  8
0
  10
7878.096825
  20
766.147983
  42
-0.010868
  0
VERTEX
  8
0
  10
7862.203134
  20
758.412862
  42
-0.012248
  0
VERTEX
  8
0
  10
7847.798425
  20
752.208484
  42
0.017244
  0
VERTEX
  8
0
  10
7847.132756
  20
745.878318
  42
0.019383
  0
VERTEX
  8
0
  10
7846.954239
  20
740.218135
  42
0.022759
  0
VERTEX
  8
0
  10
7847.277900
  20
734.087133
  42
0.023772
  0
VERTEX
  8
0
  10
7848.131828
  20
728.271285
  42
0.033230
  0
VERTEX
  8
0
  10
7849.571994
  20
723.333250
  42
0.032421
  0
VERTEX
  8
0
  10
7851.697714
  20
718.508923
  42
0.033054
  0
VERTEX
  8
0
  10
7854.458255
  20
713.964991
  42
0.034484
  0
VERTEX
  8
0
  10
7857.666826
  20
710.004985
  42
0.042020
  0
VERTEX
  8
0
  10
7861.999474
  20
706.073493
  42
0.044173
  0
VERTEX
  8
0
  10
7866.701952
  20
703.094960
  42
0.045840
  0
VERTEX
  8
0
  10
7871.946827
  20
700.971388
  42
0.045040
  0
VERTEX
  8
0
  10
7877.587026
  20
699.809986
  42
0.037128
  0
VERTEX
  8
0
  10
7883.545808
  20
699.578493
  42
0.036035
  0
VERTEX
  8
0
  10
7889.654059
  20
700.237235
  42
0.031162
  0
VERTEX
  8
0
  10
7895.173925
  20
701.598412
  42
0.028466
  0
VERTEX
  8
0
  10
7900.995663
  20
703.796335
  42
0.023352
  0
VERTEX
  8
0
  10
7906.077117
  20
706.343141
  42
0.020868
  0
VERTEX
  8
0
  10
7911.488773
  20
709.683660
  42
0.016675
  0
VERTEX
  8
0
  10
7916.100116
  20
713.032507
  42
0.014910
  0
VERTEX
  8
0
  10
7921.010325
  20
717.095585
  42
0.013447
  0
VERTEX
  8
0
  10
7925.780388
  20
721.521458
  42
0.012178
  0
VERTEX
  8
0
  10
7930.790138
  20
726.671796
  42
0.009843
  0
VERTEX
  8
0
  10
7935.080130
  20
731.489498
  42
0.008765
  0
VERTEX
  8
0
  10
7939.692826
  20
737.074883
  42
0.013588
  0
VERTEX
  8
0
  10
7947.279740
  20
747.146669
  42
0.011358
  0
VERTEX
  8
0
  10
7955.743526
  20
759.632784
  42
-0.023614
  0
VERTEX
  8
0
  10
7959.887488
  20
773.604909
  42
-0.023188
  0
VERTEX
  8
0
  10
7965.418712
  20
787.376808
  42
-0.023792
  0
VERTEX
  8
0
  10
7972.298635
  20
800.726726
  42
-0.024826
  0
VERTEX
  8
0
  10
7980.102923
  20
812.820581
  42
-0.018651
  0
VERTEX
  8
0
  10
7989.060595
  20
824.362129
  42
-0.021222
  0
VERTEX
  8
0
  10
7997.716736
  20
833.846982
  42
-0.026808
  0
VERTEX
  8
0
  10
8008.403041
  20
843.507139
  42
-0.029652
  0
VERTEX
  8
0
  10
8018.988223
  20
851.097883
  42
-0.024311
  0
VERTEX
  8
0
  10
8027.817669
  20
856.085816
  42
-0.024289
  0
VERTEX
  8
0
  10
8037.097724
  20
860.197182
  42
-0.018601
  0
VERTEX
  8
0
  10
8044.793764
  20
862.844245
  42
-0.016136
  0
VERTEX
  8
0
  10
8053.855021
  20
865.272282
  42
-0.037153
  0
VERTEX
  8
0
  10
8058.573543
  20
865.880447
  42
-0.030385
  0
VERTEX
  8
0
  10
8064.387910
  20
865.840668
  42
-0.021375
  0
VERTEX
  8
0
  10
8069.276798
  20
865.299042
  42
-0.018529
  0
VERTEX
  8
0
  10
8074.848121
  20
864.226782
  42
-0.016917
  0
VERTEX
  8
0
  10
8080.461508
  20
862.727480
  42
-0.015968
  0
VERTEX
  8
0
  10
8086.291147
  20
860.751719
  42
-0.014957
  0
VERTEX
  8
0
  10
8091.812772
  20
858.490972
  42
-0.014867
  0
VERTEX
  8
0
  10
8097.222522
  20
855.889381
  42
-0.015813
  0
VERTEX
  8
0
  10
8102.422885
  20
852.983084
  42
-0.017475
  0
VERTEX
  8
0
  10
8106.943620
  20
850.045783
  42
-0.020745
  0
VERTEX
  8
0
  10
8111.314137
  20
846.705435
  42
-0.025318
  0
VERTEX
  8
0
  10
8114.628922
  20
843.650081
  42
-0.029521
  0
VERTEX
  8
0
  10
8117.339346
  20
840.537413
  42
-0.038035
  0
VERTEX
  8
0
  10
8119.099608
  20
837.858706
  42
-0.029750
  0
VERTEX
  8
0
  10
8119.962824
  20
836.052643
  42
-0.035138
  0
VERTEX
  8
0
  10
8120.489903
  20
834.441253
  42
-0.045928
  0
VERTEX
  8
0
  10
8120.779792
  20
832.574851
  42
-0.051279
  0
VERTEX
  8
0
  10
8120.711820
  20
830.883681
  42
-0.047451
  0
VERTEX
  8
0
  10
8118.969194
  20
826.634946
  42
-0.039397
  0
VERTEX
  8
0
  10
8116.020108
  20
821.960319
  42
-0.029232
  0
VERTEX
  8
0
  10
8112.895427
  20
818.250642
  42
-0.026686
  0
VERTEX
  8
0
  10
8109.041120
  20
814.594781
  42
-0.024787
  0
VERTEX
  8
0
  10
8105.058504
  20
811.529055
  42
-0.027176
  0
VERTEX
  8
0
  10
8101.155122
  20
809.124383
  42
-0.032971
  0
VERTEX
  8
0
  10
8097.124712
  20
807.266765
  42
-0.048381
  0
VERTEX
  8
0
  10
8094.205721
  20
806.461183
  42
-0.011897
  0
VERTEX
  8
0
  10
8096.980210
  20
804.149267
  42
-0.014321
  0
VERTEX
  8
0
  10
8099.181433
  20
802.110357
  42
-0.021466
  0
VERTEX
  8
0
  10
8101.690492
  20
799.428360
  42
-0.026972
  0
VERTEX
  8
0
  10
8103.472022
  20
797.110184
  42
-0.034794
  0
VERTEX
  8
0
  10
8104.843242
  20
794.779209
  42
-0.047193
  0
VERTEX
  8
0
  10
8105.561009
  20
792.916858
  42
-0.037190
  0
VERTEX
  8
0
  10
8105.807784
  20
791.694479
  42
-0.043329
  0
VERTEX
  8
0
  10
8105.848738
  20
790.624389
  42
-0.054020
  0
VERTEX
  8
0
  10
8105.663831
  20
789.450903
  42
-0.055812
  0
VERTEX
  8
0
  10
8105.241820
  20
788.381082
  42
0.015144
  0
VERTEX
  8
0
  10
8103.399990
  20
784.893023
  42
0.016344
  0
VERTEX
  8
0
  10
8101.900122
  20
781.559983
  42
0.013526
  0
VERTEX
  8
0
  10
8100.718303
  20
778.449414
  42
0.009938
  0
VERTEX
  8
0
  10
8099.310222
  20
774.145183
  42
0.004375
  0
VERTEX
  8
0
  10
8098.520270
  20
771.474309
  42
0.001647
  0
VERTEX
  8
0
  10
8096.507621
  20
764.355283
  42
-0.001429
  0
VERTEX
  8
0
  10
8094.189632
  20
756.142686
  42
-0.002044
  0
VERTEX
  8
0
  10
8092.529021
  20
750.411784
  42
0.024567
  0
VERTEX
  8
0
  10
8090.781842
  20
740.477270
  42
0.027264
  0
VERTEX
  8
0
  10
8090.141922
  20
731.409085
  42
0.014407
  0
VERTEX
  8
0
  10
8090.197242
  20
727.115295
  42
0.016159
  0
VERTEX
  8
0
  10
8090.480360
  20
723.296971
  42
0.020813
  0
VERTEX
  8
0
  10
8091.119297
  20
719.009826
  42
0.023847
  0
VERTEX
  8
0
  10
8092.008523
  20
715.332384
  42
0.025609
  0
VERTEX
  8
0
  10
8093.125115
  20
712.136621
  42
0.029744
  0
VERTEX
  8
0
  10
8094.384803
  20
709.507519
  42
0.037779
  0
VERTEX
  8
0
  10
8096.109500
  20
706.885409
  42
0.043913
  0
VERTEX
  8
0
  10
8097.941171
  20
704.899810
  42
0.053177
  0
VERTEX
  8
0
  10
8100.277053
  20
703.190676
  42
0.055760
  0
VERTEX
  8
0
  10
8102.804864
  20
702.079913
  42
0.057433
  0
VERTEX
  8
0
  10
8105.719854
  20
701.525729
  42
0.050313
  0
VERTEX
  8
0
  10
8109.103121
  20
701.618484
  42
0.042103
  0
VERTEX
  8
0
  10
8111.017486
  20
701.935307
  42
0.034282
  0
VERTEX
  8
0
  10
8113.280683
  20
702.677036
  42
0.025814
  0
VERTEX
  8
0
  10
8115.298363
  20
703.619187
  42
0.021070
  0
VERTEX
  8
0
  10
8117.650897
  20
704.999501
  42
0.028548
  0
VERTEX
  8
0
  10
8121.536674
  20
707.831628
  42
0.020956
  0
VERTEX
  8
0
  10
8126.421208
  20
712.192422
  42
0.013120
  0
VERTEX
  8
0
  10
8130.094080
  20
715.951170
  42
0.010836
  0
VERTEX
  8
0
  10
8134.317901
  20
720.709748
  42
0.006481
  0
VERTEX
  8
0
  10
8137.092397
  20
724.062503
  42
0.005537
  0
VERTEX
  8
0
  10
8140.244822
  20
728.063982
  42
0.012336
  0
VERTEX
  8
0
  10
8147.882525
  20
738.505922
  42
0.010116
  0
VERTEX
  8
0
  10
8156.615319
  20
751.644485
  42
0.007798
  0
VERTEX
  8
0
  10
8163.771130
  20
763.295311
  42
0.007868
  0
VERTEX
  8
0
  10
8170.497819
  20
775.058582
  42
-0.007589
  0
VERTEX
  8
0
  10
8174.260610
  20
785.960646
  42
-0.006139
  0
VERTEX
  8
0
  10
8179.280820
  20
799.306133
  42
-0.003208
  0
VERTEX
  8
0
  10
8182.632738
  20
807.735130
  42
-0.001740
  0
VERTEX
  8
0
  10
8188.965319
  20
823.211682
  42
0.000789
  0
VERTEX
  8
0
  10
8191.541790
  20
829.474115
  42
0.001535
  0
VERTEX
  8
0
  10
8192.850620
  20
832.697883
  42
0.003250
  0
VERTEX
  8
0
  10
8194.723025
  20
837.440146
  42
0.004946
  0
VERTEX
  8
0
  10
8195.902119
  20
840.575982
  42
0.008689
  0
VERTEX
  8
0
  10
8197.168420
  20
844.244419
  42
0.014020
  0
VERTEX
  8
0
  10
8197.849318
  20
846.551681
  42
0.008428
  0
VERTEX
  8
0
  10
8198.122932
  20
847.659642
  42
0.012337
  0
VERTEX
  8
0
  10
8198.278269
  20
848.423668
  42
0.025108
  0
VERTEX
  8
0
  10
8198.423345
  20
849.571715
  42
0.038512
  0
VERTEX
  8
0
  10
8198.422219
  20
850.326781
  0
VERTEX
  8
0
  10
8198.421619
  20
850.333780
  0
VERTEX
  8
0
  10
8198.424819
  20
850.340183
  42
-0.053737
  0
VERTEX
  8
0
  10
8198.988232
  20
851.216868
  42
-0.050625
  0
VERTEX
  8
0
  10
8199.765726
  20
852.003219
  42
-0.040181
  0
VERTEX
  8
0
  10
8200.584216
  20
852.574765
  42
-0.034518
  0
VERTEX
  8
0
  10
8201.624919
  20
853.090706
  42
-0.044987
  0
VERTEX
  8
0
  10
8203.433581
  20
853.652826
  42
-0.034773
  0
VERTEX
  8
0
  10
8205.857321
  20
853.999081
  42
-0.029748
  0
VERTEX
  8
0
  10
8208.593423
  20
854.034363
  42
-0.024994
  0
VERTEX
  8
0
  10
8211.834207
  20
853.720456
  42
-0.019425
  0
VERTEX
  8
0
  10
8214.682314
  20
853.186337
  42
-0.018149
  0
VERTEX
  8
0
  10
8217.679020
  20
852.387483
  42
-0.018398
  0
VERTEX
  8
0
  10
8220.637367
  20
851.362124
  42
-0.019772
  0
VERTEX
  8
0
  10
8223.309470
  20
850.200831
  42
-0.025489
  0
VERTEX
  8
0
  10
8226.184672
  20
848.628314
  42
-0.030273
  0
VERTEX
  8
0
  10
8228.443720
  20
847.042780
  42
-0.036037
  0
VERTEX
  8
0
  10
8230.314193
  20
845.319371
  42
-0.046021
  0
VERTEX
  8
0
  10
8231.539869
  20
843.747506
  42
-0.033759
  0
VERTEX
  8
0
  10
8232.116371
  20
842.699231
  42
-0.038442
  0
VERTEX
  8
0
  10
8232.485085
  20
841.715091
  42
-0.046913
  0
VERTEX
  8
0
  10
8232.700824
  20
840.580252
  42
-0.049040
  0
VERTEX
  8
0
  10
8232.696519
  20
839.474980
  42
-0.015507
  0
VERTEX
  8
0
  10
8232.523792
  20
838.730819
  42
-0.011168
  0
VERTEX
  8
0
  10
8232.229231
  20
837.711895
  42
-0.004752
  0
VERTEX
  8
0
  10
8232.072276
  20
837.227348
  42
-0.001837
  0
VERTEX
  8
0
  10
8231.649817
  20
835.979482
  42
-0.004664
  0
VERTEX
  8
0
  10
8230.882783
  20
833.806871
  42
-0.002754
  0
VERTEX
  8
0
  10
8229.529418
  20
830.147381
  42
-0.001320
  0
VERTEX
  8
0
  10
8228.182303
  20
826.593680
  42
-0.000919
  0
VERTEX
  8
0
  10
8226.225519
  20
821.500582
  0
VERTEX
  8
0
  10
8222.885618
  20
812.867281
  42
0.001702
  0
VERTEX
  8
0
  10
8217.634341
  20
799.108740
  42
0.002413
  0
VERTEX
  8
0
  10
8214.010443
  20
789.374220
  42
0.003840
  0
VERTEX
  8
0
  10
8209.416346
  20
776.545103
  42
0.004555
  0
VERTEX
  8
0
  10
8205.726119
  20
765.668082
  42
0.007158
  0
VERTEX
  8
0
  10
8201.454826
  20
752.036680
  42
0.009233
  0
VERTEX
  8
0
  10
8198.491321
  20
741.364883
  42
0.006359
  0
VERTEX
  8
0
  10
8197.027244
  20
735.374828
  42
0.007504
  0
VERTEX
  8
0
  10
8195.927720
  20
730.266183
  42
0.009599
  0
VERTEX
  8
0
  10
8194.946895
  20
724.806692
  42
0.011807
  0
VERTEX
  8
0
  10
8194.340118
  20
720.337684
  42
0.013386
  0
VERTEX
  8
0
  10
8193.980796
  20
716.097018
  42
0.017372
  0
VERTEX
  8
0
  10
8193.905307
  20
712.818071
  42
0.030775
  0
VERTEX
  8
0
  10
8194.225804
  20
708.450726
  42
0.043133
  0
VERTEX
  8
0
  10
8194.911318
  20
705.399485
  42
0.055547
  0
VERTEX
  8
0
  10
8196.043055
  20
702.852924
  42
0.072624
  0
VERTEX
  8
0
  10
8197.376531
  20
701.184148
  42
0.044064
  0
VERTEX
  8
0
  10
8198.298921
  20
700.463005
  42
0.044493
  0
VERTEX
  8
0
  10
8199.323921
  20
699.920805
  42
0.044125
  0
VERTEX
  8
0
  10
8200.481174
  20
699.550822
  42
0.039454
  0
VERTEX
  8
0
  10
8201.825720
  20
699.358085
  42
0.056229
  0
VERTEX
  8
0
  10
8202.816027
  20
699.378288
  42
0.043920
  0
VERTEX
  8
0
  10
8204.051919
  20
699.655335
  42
0.027146
  0
VERTEX
  8
0
  10
8204.994152
  20
700.012777
  42
0.021734
  0
VERTEX
  8
0
  10
8206.121520
  20
700.571785
  42
0.034409
  0
VERTEX
  8
0
  10
8208.413143
  20
702.048984
  42
0.023000
  0
VERTEX
  8
0
  10
8211.563819
  20
704.635386
  42
0.015651
  0
VERTEX
  8
0
  10
8214.385927
  20
707.342782
  42
0.011720
  0
VERTEX
  8
0
  10
8217.950719
  20
711.158586
  42
0.008720
  0
VERTEX
  8
0
  10
8221.202046
  20
714.937093
  42
0.007030
  0
VERTEX
  8
0
  10
8225.085420
  20
719.748686
  42
0.010040
  0
VERTEX
  8
0
  10
8232.000670
  20
728.942572
  42
0.007504
  0
VERTEX
  8
0
  10
8240.815520
  20
741.560283
  42
0.005402
  0
VERTEX
  8
0
  10
8248.465479
  20
753.136195
  42
0.004592
  0
VERTEX
  8
0
  10
8257.191817
  20
766.932684
  42
0.003710
  0
VERTEX
  8
0
  10
8264.850770
  20
779.498866
  42
0.003555
  0
VERTEX
  8
0
  10
8272.653117
  20
792.729082
  42
0.003330
  0
VERTEX
  8
0
  10
8279.631563
  20
804.943521
  42
0.003772
  0
VERTEX
  8
0
  10
8285.638416
  20
815.812983
  42
0.004608
  0
VERTEX
  8
0
  10
8291.189269
  20
826.267308
  42
0.007192
  0
VERTEX
  8
0
  10
8294.586715
  20
833.047581
  42
0.005951
  0
VERTEX
  8
0
  10
8296.166824
  20
836.419448
  42
0.009827
  0
VERTEX
  8
0
  10
8297.058816
  20
838.490582
  42
0.004684
  0
VERTEX
  8
0
  10
8297.409739
  20
839.375114
  42
0.008423
  0
VERTEX
  8
0
  10
8297.591930
  20
839.871957
  42
0.024176
  0
VERTEX
  8
0
  10
8297.880674
  20
840.852848
  42
0.056594
  0
VERTEX
  8
0
  10
8297.935219
  20
841.287383
  0
VERTEX
  8
0
  10
8297.935317
  20
841.296383
  0
VERTEX
  8
0
  10
8297.941018
  20
841.303283
  42
-0.056409
  0
VERTEX
  8
0
  10
8298.667985
  20
842.005012
  42
-0.047003
  0
VERTEX
  8
0
  10
8299.693670
  20
842.649637
  42
-0.033489
  0
VERTEX
  8
0
  10
8300.684275
  20
843.068704
  42
-0.027311
  0
VERTEX
  8
0
  10
8301.951842
  20
843.431345
  42
-0.033208
  0
VERTEX
  8
0
  10
8303.993121
  20
843.755846
  42
-0.026436
  0
VERTEX
  8
0
  10
8306.586518
  20
843.855482
  42
-0.024848
  0
VERTEX
  8
0
  10
8309.647466
  20
843.658745
  42
-0.022293
  0
VERTEX
  8
0
  10
8313.023080
  20
843.119356
  42
-0.019850
  0
VERTEX
  8
0
  10
8316.171096
  20
842.339888
  42
-0.019799
  0
VERTEX
  8
0
  10
8319.255417
  20
841.310882
  42
-0.021945
  0
VERTEX
  8
0
  10
8322.279779
  20
840.012571
  42
-0.024849
  0
VERTEX
  8
0
  10
8324.832192
  20
838.621282
  42
-0.035727
  0
VERTEX
  8
0
  10
8327.623968
  20
836.627470
  42
-0.044595
  0
VERTEX
  8
0
  10
8329.577815
  20
834.691783
  42
-0.059858
  0
VERTEX
  8
0
  10
8331.126080
  20
832.335714
  42
-0.071226
  0
VERTEX
  8
0
  10
8331.871566
  20
830.083057
  42
-0.079168
  0
VERTEX
  8
0
  10
8331.919383
  20
827.615149
  42
-0.071750
  0
VERTEX
  8
0
  10
8331.162616
  20
825.001983
  42
0.005976
  0
VERTEX
  8
0
  10
8330.585508
  20
823.576512
  42
0.003702
  0
VERTEX
  8
0
  10
8329.698715
  20
821.258083
  42
0.002945
  0
VERTEX
  8
0
  10
8328.777780
  20
818.751096
  42
0.002383
  0
VERTEX
  8
0
  10
8327.672617
  20
815.640580
  42
0.004625
  0
VERTEX
  8
0
  10
8325.166556
  20
808.260782
  42
0.004127
  0
VERTEX
  8
0
  10
8322.503118
  20
799.942083
  42
0.004943
  0
VERTEX
  8
0
  10
8319.480529
  20
789.876722
  42
0.005181
  0
VERTEX
  8
0
  10
8316.791818
  20
780.217381
  42
0.006725
  0
VERTEX
  8
0
  10
8313.903666
  20
768.796448
  42
0.007718
  0
VERTEX
  8
0
  10
8311.675616
  20
758.776684
  42
0.010611
  0
VERTEX
  8
0
  10
8309.547094
  20
747.220107
  42
0.013301
  0
VERTEX
  8
0
  10
8308.291716
  20
737.930185
  42
0.008836
  0
VERTEX
  8
0
  10
8307.831729
  20
732.835208
  42
0.010299
  0
VERTEX
  8
0
  10
8307.604617
  20
728.452084
  42
0.012877
  0
VERTEX
  8
0
  10
8307.579590
  20
723.824158
  42
0.015522
  0
VERTEX
  8
0
  10
8307.776815
  20
719.989485
  42
0.015639
  0
VERTEX
  8
0
  10
8308.147676
  20
716.741432
  42
0.018883
  0
VERTEX
  8
0
  10
8308.639716
  20
714.078653
  42
0.028701
  0
VERTEX
  8
0
  10
8309.557912
  20
710.859746
  42
0.035871
  0
VERTEX
  8
0
  10
8310.618542
  20
708.399073
  42
0.052258
  0
VERTEX
  8
0
  10
8312.320803
  20
705.818365
  42
0.062394
  0
VERTEX
  8
0
  10
8314.202254
  20
704.034975
  42
0.036660
  0
VERTEX
  8
0
  10
8315.424051
  20
703.267721
  42
0.036547
  0
VERTEX
  8
0
  10
8316.748744
  20
702.685052
  42
0.036901
  0
VERTEX
  8
0
  10
8318.224735
  20
702.280446
  42
0.033843
  0
VERTEX
  8
0
  10
8319.879816
  20
702.070586
  42
0.058309
  0
VERTEX
  8
0
  10
8321.537629
  20
702.103245
  42
0.045849
  0
VERTEX
  8
0
  10
8323.589228
  20
702.578896
  42
0.028417
  0
VERTEX
  8
0
  10
8325.152361
  20
703.196486
  42
0.022741
  0
VERTEX
  8
0
  10
8327.016115
  20
704.163384
  42
0.020738
  0
VERTEX
  8
0
  10
8329.115746
  20
705.496009
  42
0.017116
  0
VERTEX
  8
0
  10
8331.530015
  20
707.298196
  42
0.011564
  0
VERTEX
  8
0
  10
8333.409981
  20
708.877158
  42
0.009311
  0
VERTEX
  8
0
  10
8335.660815
  20
710.933785
  42
0.015800
  0
VERTEX
  8
0
  10
8339.966376
  20
715.284008
  42
0.012040
  0
VERTEX
  8
0
  10
8345.289517
  20
721.297684
  42
0.008860
  0
VERTEX
  8
0
  10
8349.971109
  20
727.054579
  42
0.007355
  0
VERTEX
  8
0
  10
8355.382715
  20
734.168484
  42
0.010529
  0
VERTEX
  8
0
  10
8364.561859
  20
747.175665
  42
0.008836
  0
VERTEX
  8
0
  10
8374.890814
  20
763.085985
  42
0.007238
  0
VERTEX
  8
0
  10
8383.363865
  20
777.104759
  42
0.008694
  0
VERTEX
  8
0
  10
8390.042415
  20
788.994383
  42
-0.006597
  0
VERTEX
  8
0
  10
8392.529191
  20
800.491070
  42
-0.005684
  0
VERTEX
  8
0
  10
8395.742316
  20
813.759781
  42
-0.004934
  0
VERTEX
  8
0
  10
8399.249312
  20
827.005594
  42
-0.004289
  0
VERTEX
  8
0
  10
8403.563914
  20
842.165881
  42
0.002784
  0
VERTEX
  8
0
  10
8394.192371
  20
842.113278
  42
0.002407
  0
VERTEX
  8
0
  10
8383.352817
  20
841.939881
  0
VERTEX
  8
0
  10
8376.438517
  20
841.784380
  42
-0.001383
  0
VERTEX
  8
0
  10
8373.318225
  20
841.722415
  42
-0.004273
  0
VERTEX
  8
0
  10
8372.308015
  20
841.713782
  42
-0.032622
  0
VERTEX
  8
0
  10
8370.689729
  20
841.819480
  42
-0.036684
  0
VERTEX
  8
0
  10
8369.276978
  20
842.111419
  42
-0.046548
  0
VERTEX
  8
0
  10
8367.782149
  20
842.691452
  42
-0.051343
  0
VERTEX
  8
0
  10
8366.554414
  20
843.471081
  42
-0.096395
  0
VERTEX
  8
0
  10
8364.949294
  20
845.337524
  42
-0.099010
  0
VERTEX
  8
0
  10
8364.193417
  20
847.613183
  42
-0.094500
  0
VERTEX
  8
0
  10
8364.350648
  20
850.023893
  42
-0.086152
  0
VERTEX
  8
0
  10
8365.442716
  20
852.433982
  42
-0.082756
  0
VERTEX
  8
0
  10
8367.451823
  20
854.537626
  42
-0.068798
  0
VERTEX
  8
0
  10
8370.506217
  20
856.229582
  0
VERTEX
  8
0
  10
8370.515015
  20
856.232983
  0
VERTEX
  8
0
  10
8370.523916
  20
856.229780
  42
0.031629
  0
VERTEX
  8
0
  10
8371.229689
  20
856.026344
  42
0.018673
  0
VERTEX
  8
0
  10
8372.452915
  20
855.803680
  42
0.011690
  0
VERTEX
  8
0
  10
8373.641152
  20
855.661061
  42
0.008175
  0
VERTEX
  8
0
  10
8375.346917
  20
855.524781
  42
0.009853
  0
VERTEX
  8
0
  10
8378.469381
  20
855.388667
  42
0.005965
  0
VERTEX
  8
0
  10
8383.631815
  20
855.327081
  42
0.003223
  0
VERTEX
  8
0
  10
8387.906629
  20
855.354641
  42
0.002061
  0
VERTEX
  8
0
  10
8394.590214
  20
855.468383
  42
0.000518
  0
VERTEX
  8
0
  10
8397.309016
  20
855.528672
  42
0.000381
  0
VERTEX
  8
0
  10
8401.004728
  20
855.617270
  0
VERTEX
  8
0
  10
8407.419016
  20
855.778683
  42
-0.003408
  0
VERTEX
  8
0
  10
8412.611943
  20
872.020385
  42
-0.003447
  0
VERTEX
  8
0
  10
8417.966415
  20
888.008280
  42
-0.001146
  0
VERTEX
  8
0
  10
8419.588587
  20
892.708141
  42
-0.000834
  0
VERTEX
  8
0
  10
8421.844040
  20
899.159817
  0
VERTEX
  8
0
  10
8425.768015
  20
910.294779
  42
0.001443
  0
VERTEX
  8
0
  10
8427.546185
  20
915.393975
  42
0.002450
  0
VERTEX
  8
0
  10
8428.569815
  20
918.404579
  42
0.004514
  0
VERTEX
  8
0
  10
8429.806924
  20
922.215726
  42
0.006536
  0
VERTEX
  8
0
  10
8430.602915
  20
924.865979
  42
0.008085
  0
VERTEX
  8
0
  10
8431.319773
  20
927.533418
  42
0.011881
  0
VERTEX
  8
0
  10
8431.734764
  20
929.366716
  42
0.021487
  0
VERTEX
  8
0
  10
8432.144915
  20
931.976522
  42
0.028523
  0
VERTEX
  8
0
  10
8432.256113
  20
933.964280
  0
VERTEX
  8
0
  10
8432.256113
  20
933.976980
  0
VERTEX
  8
0
  10
8432.266213
  20
933.984579
  42
-0.063009
  0
VERTEX
  8
0
  10
8433.881702
  20
934.909484
  42
-0.051984
  0
VERTEX
  8
0
  10
8436.040913
  20
935.554391
  42
-0.034839
  0
VERTEX
  8
0
  10
8437.917253
  20
935.774392
  42
-0.029315
  0
VERTEX
  8
0
  10
8440.161514
  20
935.748478
  42
-0.048116
  0
VERTEX
  8
0
  10
8444.756244
  20
934.977278
  42
-0.041216
  0
VERTEX
  8
0
  10
8449.871912
  20
933.139778
  42
-0.019609
  0
VERTEX
  8
0
  10
8452.165303
  20
931.984982
  42
-0.020876
  0
VERTEX
  8
0
  10
8454.224888
  20
930.729516
  42
-0.025629
  0
VERTEX
  8
0
  10
8456.353011
  20
929.143645
  42
-0.029306
  0
VERTEX
  8
0
  10
8458.051213
  20
927.560778
  42
-0.033649
  0
VERTEX
  8
0
  10
8459.463857
  20
925.865468
  42
-0.040309
  0
VERTEX
  8
0
  10
8460.422227
  20
924.291230
  42
-0.058335
  0
VERTEX
  8
0
  10
8461.162521
  20
922.261551
  42
-0.067509
  0
VERTEX
  8
0
  10
8461.346115
  20
920.401580
  42
-0.027715
  0
VERTEX
  8
0
  10
8461.286011
  20
918.510894
  42
-0.019469
  0
VERTEX
  8
0
  10
8460.947413
  20
915.840580
  42
-0.013340
  0
VERTEX
  8
0
  10
8460.463657
  20
913.349070
  42
-0.009962
  0
VERTEX
  8
0
  10
8459.661213
  20
910.046780
  42
-0.007157
  0
VERTEX
  8
0
  10
8458.717651
  20
906.671257
  42
-0.005894
  0
VERTEX
  8
0
  10
8457.465326
  20
902.603742
  42
-0.003477
  0
VERTEX
  8
0
  10
8456.502110
  20
899.671788
  42
-0.002295
  0
VERTEX
  8
0
  10
8454.991413
  20
895.246281
  42
-0.001647
  0
VERTEX
  8
0
  10
8453.647028
  20
891.407386
  42
-0.001189
  0
VERTEX
  8
0
  10
8451.754389
  20
886.099669
  0
VERTEX
  8
0
  10
8448.463814
  20
876.971881
  42
0.002278
  0
VERTEX
  8
0
  10
8444.050294
  20
864.523358
  42
0.003434
  0
VERTEX
  8
0
  10
8441.216615
  20
856.231282
  42
-0.000830
  0
VERTEX
  8
0
  10
8451.928096
  20
856.213505
  42
-0.001731
  0
VERTEX
  8
0
  10
8457.063714
  20
856.178680
  42
-0.003869
  0
VERTEX
  8
0
  10
8465.309453
  20
856.030424
  42
-0.005892
  0
VERTEX
  8
0
  10
8470.721512
  20
855.827380
  42
-0.007290
  0
VERTEX
  8
0
  10
8475.674217
  20
855.510577
  42
-0.011712
  0
VERTEX
  8
0
  10
8478.747512
  20
855.196382
  42
-0.013507
  0
VERTEX
  8
0
  10
8481.437175
  20
854.783511
  42
-0.019864
  0
VERTEX
  8
0
  10
8483.243605
  20
854.381363
  42
-0.040851
  0
VERTEX
  8
0
  10
8485.308528
  20
853.649926
  42
-0.085046
  0
VERTEX
  8
0
  10
8486.186711
  20
853.059680
  42
-0.036767
  0
VERTEX
  8
0
  10
8488.119238
  20
850.925465
  42
-0.045419
  0
VERTEX
  8
0
  10
8489.380913
  20
848.963856
  42
-0.036204
  0
VERTEX
  8
0
  10
8489.949107
  20
847.650874
  42
-0.043612
  0
VERTEX
  8
0
  10
8490.241804
  20
846.499158
  42
-0.057909
  0
VERTEX
  8
0
  10
8490.302802
  20
845.174384
  42
-0.063277
  0
VERTEX
  8
0
  10
8490.066212
  20
843.983180
  42
-0.061694
  0
VERTEX
  8
0
  10
8489.579769
  20
842.964903
  42
-0.062099
  0
VERTEX
  8
0
  10
8488.863551
  20
842.102272
  42
-0.051071
  0
VERTEX
  8
0
  10
8488.054363
  20
841.484852
  42
-0.044222
  0
VERTEX
  8
0
  10
8487.002475
  20
840.961943
  42
-0.059407
  0
VERTEX
  8
0
  10
8485.055492
  20
840.455920
  42
-0.048171
  0
VERTEX
  8
0
  10
8482.579513
  20
840.358481
  42
0.032488
  0
VERTEX
  8
0
  10
8481.751518
  20
840.636970
  42
0.018546
  0
VERTEX
  8
0
  10
8480.260013
  20
840.974282
  42
0.011506
  0
VERTEX
  8
0
  10
8478.799994
  20
841.213231
  42
0.008025
  0
VERTEX
  8
0
  10
8476.695215
  20
841.473780
  42
0.009961
  0
VERTEX
  8
0
  10
8472.720050
  20
841.820967
  42
0.006290
  0
VERTEX
  8
0
  10
8466.411012
  20
842.165881
  42
0.003977
  0
VERTEX
  8
0
  10
8460.672804
  20
842.361582
  42
0.002937
  0
VERTEX
  8
0
  10
8452.901515
  20
842.519082
  42
0.002004
  0
VERTEX
  8
0
  10
8446.036006
  20
842.590291
  42
0.001586
  0
VERTEX
  8
0
  10
8437.358913
  20
842.617980
  42
0.027036
  0
VERTEX
  8
0
  10
8434.917093
  20
834.813491
  42
0.023147
  0
VERTEX
  8
0
  10
8432.992914
  20
825.459680
  42
0.000548
  0
VERTEX
  8
0
  10
8430.012670
  20
810.420201
  42
0.001168
  0
VERTEX
  8
0
  10
8428.638451
  20
803.358345
  42
0.002408
  0
VERTEX
  8
0
  10
8426.329825
  20
791.024978
  42
0.003028
  0
VERTEX
  8
0
  10
8424.600715
  20
781.197984
  42
0.004611
  0
VERTEX
  8
0
  10
8422.649808
  20
769.023720
  42
0.005689
  0
VERTEX
  8
0
  10
8421.272215
  20
759.126284
  42
0.008061
  0
VERTEX
  8
0
  10
8420.011420
  20
747.794789
  42
0.010248
  0
VERTEX
  8
0
  10
8419.346613
  20
738.850784
  42
0.006126
  0
VERTEX
  8
0
  10
8419.152361
  20
734.166896
  42
0.007363
  0
VERTEX
  8
0
  10
8419.095927
  20
730.267059
  42
0.010027
  0
VERTEX
  8
0
  10
8419.189049
  20
725.682591
  42
0.011492
  0
VERTEX
  8
0
  10
8419.442314
  20
721.689785
  42
0.012356
  0
VERTEX
  8
0
  10
8419.841688
  20
718.107476
  42
0.015189
  0
VERTEX
  8
0
  10
8420.326577
  20
715.215371
  42
0.022782
  0
VERTEX
  8
0
  10
8421.190692
  20
711.715349
  42
0.028104
  0
VERTEX
  8
0
  10
8422.176014
  20
708.963183
  42
0.031546
  0
VERTEX
  8
0
  10
8423.327624
  20
706.656803
  42
0.038314
  0
VERTEX
  8
0
  10
8424.531490
  20
704.907496
  42
0.053522
  0
VERTEX
  8
0
  10
8426.280143
  20
703.161969
  42
0.059789
  0
VERTEX
  8
0
  10
8428.157615
  20
701.989786
  42
0.063835
  0
VERTEX
  8
0
  10
8430.405594
  20
701.266714
  42
0.056416
  0
VERTEX
  8
0
  10
8433.068464
  20
701.077348
  42
0.039122
  0
VERTEX
  8
0
  10
8435.316673
  20
701.348255
  42
0.031758
  0
VERTEX
  8
0
  10
8438.009915
  20
702.069383
  42
0.041022
  0
VERTEX
  8
0
  10
8439.457654
  20
702.693647
  42
0.028343
  0
VERTEX
  8
0
  10
8441.406318
  20
703.877094
  42
0.019651
  0
VERTEX
  8
0
  10
8443.171933
  20
705.196473
  42
0.014762
  0
VERTEX
  8
0
  10
8445.395587
  20
707.109961
  42
0.019581
  0
VERTEX
  8
0
  10
8449.328282
  20
710.994572
  42
0.013219
  0
VERTEX
  8
0
  10
8454.763079
  20
717.117182
  42
0.008866
  0
VERTEX
  8
0
  10
8459.498752
  20
722.952011
  42
0.006913
  0
VERTEX
  8
0
  10
8465.333108
  20
730.623095
  42
0.005153
  0
VERTEX
  8
0
  10
8470.478669
  20
737.738561
  42
0.004414
  0
VERTEX
  8
0
  10
8476.326388
  20
746.159746
  42
0.006576
  0
VERTEX
  8
0
  10
8486.357912
  20
761.305958
  42
0.006271
  0
VERTEX
  8
0
  10
8496.465560
  20
777.453452
  42
0.003098
  0
VERTEX
  8
0
  10
8500.677390
  20
784.471094
  42
0.003776
  0
VERTEX
  8
0
  10
8504.052882
  20
790.274603
  42
0.005079
  0
VERTEX
  8
0
  10
8507.210003
  20
795.930824
  42
0.008773
  0
VERTEX
  8
0
  10
8508.946314
  20
799.254681
  0
VERTEX
  8
0
  10
8508.948614
  20
799.259383
  0
VERTEX
  8
0
  10
8508.955913
  20
799.265381
  42
-0.001553
  0
VERTEX
  8
0
  10
8510.313466
  20
803.436844
  42
-0.000455
  0
VERTEX
  8
0
  10
8515.000912
  20
817.646182
  42
0.002251
  0
VERTEX
  8
0
  10
8518.399650
  20
828.075248
  42
0.004346
  0
VERTEX
  8
0
  10
8520.088313
  20
833.498780
  42
0.003155
  0
VERTEX
  8
0
  10
8521.167723
  20
837.158144
  42
0.004740
  0
VERTEX
  8
0
  10
8521.847600
  20
839.604757
  42
0.008067
  0
VERTEX
  8
0
  10
8522.697828
  20
842.999118
  42
0.009894
  0
VERTEX
  8
0
  10
8523.291214
  20
845.789780
  42
0.010903
  0
VERTEX
  8
0
  10
8523.671548
  20
848.033133
  42
0.015349
  0
VERTEX
  8
0
  10
8523.857738
  20
849.638831
  42
0.032301
  0
VERTEX
  8
0
  10
8523.905936
  20
852.028621
  42
0.052443
  0
VERTEX
  8
0
  10
8523.686713
  20
853.486982
  0
VERTEX
  8
0
  10
8523.684113
  20
853.496979
  0
VERTEX
  8
0
  10
8523.689211
  20
853.505880
  42
-0.052211
  0
VERTEX
  8
0
  10
8524.351344
  20
854.432468
  42
-0.046751
  0
VERTEX
  8
0
  10
8525.279206
  20
855.301346
  42
-0.035689
  0
VERTEX
  8
0
  10
8526.228588
  20
855.933989
  42
-0.030162
  0
VERTEX
  8
0
  10
8527.440062
  20
856.528406
  42
-0.038529
  0
VERTEX
  8
0
  10
8529.496117
  20
857.207066
  42
-0.030049
  0
VERTEX
  8
0
  10
8532.225011
  20
857.708483
  42
-0.026118
  0
VERTEX
  8
0
  10
8535.332287
  20
857.924529
  42
-0.022407
  0
VERTEX
  8
0
  10
8538.960974
  20
857.824307
  42
-0.017918
  0
VERTEX
  8
0
  10
8542.212034
  20
857.471000
  42
-0.016820
  0
VERTEX
  8
0
  10
8545.640613
  20
856.855180
  42
-0.016906
  0
VERTEX
  8
0
  10
8548.972175
  20
856.021744
  42
-0.018494
  0
VERTEX
  8
0
  10
8551.956361
  20
855.046293
  42
-0.024790
  0
VERTEX
  8
0
  10
8555.268532
  20
853.636245
  42
-0.030106
  0
VERTEX
  8
0
  10
8557.853011
  20
852.182981
  42
-0.040505
  0
VERTEX
  8
0
  10
8560.182460
  20
850.399644
  42
-0.055451
  0
VERTEX
  8
0
  10
8561.606612
  20
848.794282
  42
-0.035995
  0
VERTEX
  8
0
  10
8562.177964
  20
847.847345
  42
-0.041025
  0
VERTEX
  8
0
  10
8562.546061
  20
846.949119
  42
-0.049321
  0
VERTEX
  8
0
  10
8562.764040
  20
845.918150
  42
-0.051123
  0
VERTEX
  8
0
  10
8562.771812
  20
844.901380
  42
-0.019855
  0
VERTEX
  8
0
  10
8562.701784
  20
844.382659
  42
-0.011490
  0
VERTEX
  8
0
  10
8562.524910
  20
843.495881
  42
-0.007172
  0
VERTEX
  8
0
  10
8562.322744
  20
842.647839
  42
-0.004988
  0
VERTEX
  8
0
  10
8562.002510
  20
841.435980
  42
-0.005937
  0
VERTEX
  8
0
  10
8561.366944
  20
839.226807
  42
-0.003528
  0
VERTEX
  8
0
  10
8560.227410
  20
835.530681
  42
-0.002054
  0
VERTEX
  8
0
  10
8558.885324
  20
831.344123
  42
-0.001368
  0
VERTEX
  8
0
  10
8556.827211
  20
825.071981
  0
VERTEX
  8
0
  10
8554.267096
  20
817.333060
  42
0.000314
  0
VERTEX
  8
0
  10
8552.629040
  20
812.370113
  42
0.000435
  0
VERTEX
  8
0
  10
8551.452906
  20
808.788674
  42
0.001632
  0
VERTEX
  8
0
  10
8548.068270
  20
798.336534
  42
0.002045
  0
VERTEX
  8
0
  10
8545.427273
  20
789.971446
  42
0.003090
  0
VERTEX
  8
0
  10
8542.137932
  20
779.167571
  42
0.003655
  0
VERTEX
  8
0
  10
8539.480260
  20
769.996160
  42
0.005076
  0
VERTEX
  8
0
  10
8536.557682
  20
759.209489
  42
0.006139
  0
VERTEX
  8
0
  10
8534.341812
  20
750.238683
  0
VERTEX
  8
0
  10
8534.324811
  20
750.166085
  42
0.001144
  0
VERTEX
  8
0
  10
8534.087990
  20
749.142420
  42
0.000804
  0
VERTEX
  8
0
  10
8533.756613
  20
747.684184
  42
0.000552
  0
VERTEX
  8
0
  10
8533.591278
  20
746.944552
  42
0.000593
  0
VERTEX
  8
0
  10
8533.438813
  20
746.255084
  42
0.000523
  0
VERTEX
  8
0
  10
8533.381259
  20
745.992759
  42
0.000222
  0
VERTEX
  8
0
  10
8533.246313
  20
745.373285
  42
0.000531
  0
VERTEX
  8
0
  10
8533.110764
  20
744.744993
  42
0.000544
  0
VERTEX
  8
0
  10
8532.979613
  20
744.130685
  42
0.006205
  0
VERTEX
  8
0
  10
8531.744864
  20
737.937332
  42
0.007318
  0
VERTEX
  8
0
  10
8530.840312
  20
732.659583
  42
0.009345
  0
VERTEX
  8
0
  10
8530.065951
  20
727.017562
  42
0.011462
  0
VERTEX
  8
0
  10
8529.626513
  20
722.395285
  42
0.008445
  0
VERTEX
  8
0
  10
8529.460166
  20
719.376050
  42
0.010188
  0
VERTEX
  8
0
  10
8529.415612
  20
716.869984
  0
VERTEX
  8
0
  10
8529.417210
  20
716.574084
  42
0.003467
  0
VERTEX
  8
0
  10
8529.428322
  20
715.819689
  42
0.003665
  0
VERTEX
  8
0
  10
8529.449013
  20
715.106183
  42
0.002145
  0
VERTEX
  8
0
  10
8529.465320
  20
714.707022
  42
0.002162
  0
VERTEX
  8
0
  10
8529.484912
  20
714.311086
  42
0.003537
  0
VERTEX
  8
0
  10
8529.522868
  20
713.688674
  42
0.003742
  0
VERTEX
  8
0
  10
8529.567310
  20
713.100885
  42
0.002221
  0
VERTEX
  8
0
  10
8529.590121
  20
712.838947
  42
0.001705
  0
VERTEX
  8
0
  10
8529.622513
  20
712.497984
  0
SEQEND
  0
POLYLINE
  8
0
  66
1
  70
1
  62
7
  0
VERTEX
  8
0
  10
8050.223421
  20
837.160183
  0
VERTEX
  8
0
  10
8093.992322
  20
836.151881
  0
VERTEX
  8
0
  10
8093.992322
  20
836.154283
  42
0.032251
  0
VERTEX
  8
0
  10
8093.702920
  20
839.314907
  42
0.040538
  0
VERTEX
  8
0
  10
8093.110147
  20
841.770969
  42
0.054764
  0
VERTEX
  8
0
  10
8091.955365
  20
844.307148
  42
0.061378
  0
VERTEX
  8
0
  10
8090.431123
  20
846.273982
  0
VERTEX
  8
0
  10
8090.414422
  20
846.290580
  42
0.007393
  0
VERTEX
  8
0
  10
8090.239559
  20
846.460775
  42
0.006794
  0
VERTEX
  8
0
  10
8090.044122
  20
846.640482
  42
0.003992
  0
VERTEX
  8
0
  10
8089.928424
  20
846.742830
  42
0.003810
  0
VERTEX
  8
0
  10
8089.805521
  20
846.848180
  0
VERTEX
  8
0
  10
8089.729620
  20
846.911582
  42
0.035213
  0
VERTEX
  8
0
  10
8088.537565
  20
847.764116
  42
0.032806
  0
VERTEX
  8
0
  10
8087.146021
  20
848.497180
  42
0.038287
  0
VERTEX
  8
0
  10
8085.585428
  20
849.054074
  42
0.033273
  0
VERTEX
  8
0
  10
8083.717321
  20
849.432182
  42
0.003424
  0
VERTEX
  8
0
  10
8083.388339
  20
849.472482
  42
0.004407
  0
VERTEX
  8
0
  10
8083.132323
  20
849.499782
  0
VERTEX
  8
0
  10
8082.970321
  20
849.514581
  42
0.037404
  0
VERTEX
  8
0
  10
8080.050535
  20
849.541135
  42
0.029549
  0
VERTEX
  8
0
  10
8076.385024
  20
849.081441
  42
0.023320
  0
VERTEX
  8
0
  10
8072.855843
  20
848.253349
  42
0.019363
  0
VERTEX
  8
0
  10
8068.706686
  20
846.897556
  42
0.016360
  0
VERTEX
  8
0
  10
8064.704136
  20
845.265072
  42
0.014374
  0
VERTEX
  8
0
  10
8060.271691
  20
843.130909
  42
0.012985
  0
VERTEX
  8
0
  10
8055.953794
  20
840.752700
  42
0.012001
  0
VERTEX
  8
0
  10
8051.416424
  20
837.949481
  0
VERTEX
  8
0
  10
8051.269224
  20
837.853180
  42
0.001535
  0
VERTEX
  8
0
  10
8050.818698
  20
837.556628
  42
0.001158
  0
VERTEX
  8
0
  10
8050.223421
  20
837.160183
  0
SEQEND
  0
POLYLINE
  8
0
  66
1
  70
1
  62
7
  0
VERTEX
  8
0
  10
7693.569932
  20
843.989682
  42
-0.000939
  0
VERTEX
  8
0
  10
7693.114447
  20
843.745921
  42
-0.000857
  0
VERTEX
  8
0
  10
7692.614331
  20
843.480581
  0
VERTEX
  8
0
  10
7692.553029
  20
843.448182
  42
-0.010267
  0
VERTEX
  8
0
  10
7686.794888
  20
840.558489
  42
-0.010250
  0
VERTEX
  8
0
  10
7680.913631
  20
837.903183
  42
-0.017524
  0
VERTEX
  8
0
  10
7670.168828
  20
833.753565
  42
-0.016127
  0
VERTEX
  8
0
  10
7658.217331
  20
830.040080
  42
-0.021273
  0
VERTEX
  8
0
  10
7671.953496
  20
830.809897
  42
-0.019084
  0
VERTEX
  8
0
  10
7687.283432
  20
830.430880
  42
-0.020092
  0
VERTEX
  8
0
  10
7703.489762
  20
828.754610
  42
-0.021470
  0
VERTEX
  8
0
  10
7718.474131
  20
825.932180
  42
-0.011178
  0
VERTEX
  8
0
  10
7725.408917
  20
824.150617
  42
-0.011950
  0
VERTEX
  8
0
  10
7731.811568
  20
822.186033
  42
-0.014882
  0
VERTEX
  8
0
  10
7738.965274
  20
819.563527
  42
-0.016551
  0
VERTEX
  8
0
  10
7745.237216
  20
816.805869
  42
-0.020878
  0
VERTEX
  8
0
  10
7751.985316
  20
813.214405
  42
-0.023793
  0
VERTEX
  8
0
  10
7757.602795
  20
809.546711
  42
-0.029961
  0
VERTEX
  8
0
  10
7763.302971
  20
804.881325
  42
-0.034013
  0
VERTEX
  8
0
  10
7767.760028
  20
800.163581
  42
-0.019563
  0
VERTEX
  8
0
  10
7771.126977
  20
795.733379
  42
-0.021177
  0
VERTEX
  8
0
  10
7773.894189
  20
791.400916
  42
-0.023521
  0
VERTEX
  8
0
  10
7776.347755
  20
786.676762
  42
-0.024861
  0
VERTEX
  8
0
  10
7778.226615
  20
782.003583
  42
-0.026706
  0
VERTEX
  8
0
  10
7779.661246
  20
776.998728
  42
-0.027155
  0
VERTEX
  8
0
  10
7780.534923
  20
771.953449
  42
-0.027858
  0
VERTEX
  8
0
  10
7780.859688
  20
766.676562
  42
-0.027021
  0
VERTEX
  8
0
  10
7780.596729
  20
761.232385
  42
-0.035395
  0
VERTEX
  8
0
  10
7779.285844
  20
753.733330
  42
-0.031731
  0
VERTEX
  8
0
  10
7776.718146
  20
745.641165
  42
-0.025335
  0
VERTEX
  8
0
  10
7773.564860
  20
738.605734
  42
-0.022220
  0
VERTEX
  8
0
  10
7769.224741
  20
730.962734
  42
-0.017327
  0
VERTEX
  8
0
  10
7764.843744
  20
724.497230
  42
-0.015315
  0
VERTEX
  8
0
  10
7759.421205
  20
717.522028
  42
-0.011719
  0
VERTEX
  8
0
  10
7754.445736
  20
711.790183
  42
-0.010496
  0
VERTEX
  8
0
  10
7748.612228
  20
705.643985
  42
-0.021351
  0
VERTEX
  8
0
  10
7740.160692
  20
697.805190
  42
-0.019355
  0
VERTEX
  8
0
  10
7730.165880
  20
689.945134
  42
-0.015945
  0
VERTEX
  8
0
  10
7720.598047
  20
683.458125
  42
-0.014521
  0
VERTEX
  8
0
  10
7709.678329
  20
676.988284
  42
-0.013100
  0
VERTEX
  8
0
  10
7698.691542
  20
671.273494
  42
-0.012408
  0
VERTEX
  8
0
  10
7686.799829
  20
665.839472
  42
-0.011249
  0
VERTEX
  8
0
  10
7675.236881
  20
661.203446
  42
-0.010775
  0
VERTEX
  8
0
  10
7662.964929
  20
656.900084
  42
-0.020271
  0
VERTEX
  8
0
  10
7639.091158
  20
650.159573
  42
-0.021474
  0
VERTEX
  8
0
  10
7616.102033
  20
645.697785
  42
-0.011580
  0
VERTEX
  8
0
  10
7604.984262
  20
644.294172
  42
-0.012958
  0
VERTEX
  8
0
  10
7594.998831
  20
643.528685
  42
-0.015005
  0
VERTEX
  8
0
  10
7585.003456
  20
643.322989
  42
-0.018091
  0
VERTEX
  8
0
  10
7576.719231
  20
643.701087
  42
-0.028499
  0
VERTEX
  8
0
  10
7570.022257
  20
644.485362
  42
-0.026029
  0
VERTEX
  8
0
  10
7562.827926
  20
646.136560
  42
-0.022486
  0
VERTEX
  8
0
  10
7556.219174
  20
648.345854
  42
-0.020861
  0
VERTEX
  8
0
  10
7549.328834
  20
651.334874
  42
-0.018643
  0
VERTEX
  8
0
  10
7543.030530
  20
654.680541
  42
-0.017954
  0
VERTEX
  8
0
  10
7536.762440
  20
658.623269
  42
-0.017003
  0
VERTEX
  8
0
  10
7531.021305
  20
662.821439
  42
-0.017282
  0
VERTEX
  8
0
  10
7525.669233
  20
667.328985
  42
-0.017383
  0
VERTEX
  8
0
  10
7520.935951
  20
671.912005
  42
-0.019324
  0
VERTEX
  8
0
  10
7516.991535
  20
676.336284
  42
-0.022376
  0
VERTEX
  8
0
  10
7513.475147
  20
681.012918
  42
-0.027835
  0
VERTEX
  8
0
  10
7511.038833
  20
685.037784
  42
-0.031457
  0
VERTEX
  8
0
  10
7509.366770
  20
688.724583
  42
-0.041567
  0
VERTEX
  8
0
  10
7508.520073
  20
691.671222
  42
-0.035215
  0
VERTEX
  8
0
  10
7508.271218
  20
693.630768
  42
-0.043239
  0
VERTEX
  8
0
  10
7508.320314
  20
695.239720
  42
-0.059001
  0
VERTEX
  8
0
  10
7508.741139
  20
696.998961
  42
-0.065495
  0
VERTEX
  8
0
  10
7509.499233
  20
698.442884
  42
-0.032085
  0
VERTEX
  8
0
  10
7510.815755
  20
700.197554
  42
-0.026521
  0
VERTEX
  8
0
  10
7512.645137
  20
702.118957
  42
-0.019630
  0
VERTEX
  8
0
  10
7514.427031
  20
703.674381
  42
-0.016555
  0
VERTEX
  8
0
  10
7516.667434
  20
705.360920
  42
-0.020946
  0
VERTEX
  8
0
  10
7520.319320
  20
707.703140
  42
-0.015868
  0
VERTEX
  8
0
  10
7525.353335
  20
710.431483
  42
-0.012985
  0
VERTEX
  8
0
  10
7530.720662
  20
712.951480
  42
-0.010092
  0
VERTEX
  8
0
  10
7537.768332
  20
715.871584
  42
-0.007054
  0
VERTEX
  8
0
  10
7544.098402
  20
718.243422
  42
-0.005565
  0
VERTEX
  8
0
  10
7552.194735
  20
721.046185
  42
-0.050136
  0
VERTEX
  8
0
  10
7551.145061
  20
722.951983
  42
-0.052637
  0
VERTEX
  8
0
  10
7550.536296
  20
724.933447
  42
-0.051314
  0
VERTEX
  8
0
  10
7550.351015
  20
726.978327
  42
-0.047694
  0
VERTEX
  8
0
  10
7550.587934
  20
729.173885
  42
-0.007845
  0
VERTEX
  8
0
  10
7551.439250
  20
737.973878
  42
-0.006617
  0
VERTEX
  8
0
  10
7552.749834
  20
748.373282
  42
-0.006041
  0
VERTEX
  8
0
  10
7554.381309
  20
759.117344
  42
-0.005497
  0
VERTEX
  8
0
  10
7556.446134
  20
770.879682
  42
-0.010868
  0
VERTEX
  8
0
  10
7561.778493
  20
796.332581
  42
-0.010366
  0
VERTEX
  8
0
  10
7568.497132
  20
822.757480
  42
-0.003195
  0
VERTEX
  8
0
  10
7569.802592
  20
829.154148
  42
-0.002237
  0
VERTEX
  8
0
  10
7571.766034
  20
838.268382
  42
-0.001719
  0
VERTEX
  8
0
  10
7573.780633
  20
847.273003
  42
-0.001451
  0
VERTEX
  8
0
  10
7576.235534
  20
857.928080
  42
-0.002650
  0
VERTEX
  8
0
  10
7581.645288
  20
880.558446
  42
-0.002658
  0
VERTEX
  8
0
  10
7587.277231
  20
903.059279
  42
-0.001613
  0
VERTEX
  8
0
  10
7590.345958
  20
914.890100
  42
-0.001844
  0
VERTEX
  8
0
  10
7593.100234
  20
925.214379
  42
-0.002360
  0
VERTEX
  8
0
  10
7596.129400
  20
936.197996
  42
-0.002975
  0
VERTEX
  8
0
  10
7598.625232
  20
944.884978
  42
-0.004290
  0
VERTEX
  8
0
  10
7601.429291
  20
954.136371
  42
-0.006282
  0
VERTEX
  8
0
  10
7603.477633
  20
960.413179
  42
-0.004686
  0
VERTEX
  8
0
  10
7604.625822
  20
963.686322
  42
-0.006289
  0
VERTEX
  8
0
  10
7605.534733
  20
966.105979
  42
-0.009100
  0
VERTEX
  8
0
  10
7606.539640
  20
968.550169
  42
-0.014061
  0
VERTEX
  8
0
  10
7607.262632
  20
970.100379
  42
0.024258
  0
VERTEX
  8
0
  10
7584.806604
  20
966.402597
  42
0.024523
  0
VERTEX
  8
0
  10
7563.055132
  20
960.598878
  42
0.011251
  0
VERTEX
  8
0
  10
7553.563612
  20
957.323626
  42
0.012016
  0
VERTEX
  8
0
  10
7544.828384
  20
953.846705
  42
0.013942
  0
VERTEX
  8
0
  10
7535.636424
  20
949.623024
  42
0.015126
  0
VERTEX
  8
0
  10
7527.404434
  20
945.244279
  42
0.016151
  0
VERTEX
  8
0
  10
7520.081857
  20
940.740641
  42
0.018890
  0
VERTEX
  8
0
  10
7514.105435
  20
936.460680
  42
0.022815
  0
VERTEX
  8
0
  10
7508.535883
  20
931.722936
  42
0.028698
  0
VERTEX
  8
0
  10
7504.517535
  20
927.519778
  42
0.032953
  0
VERTEX
  8
0
  10
7501.433796
  20
923.374946
  42
0.042384
  0
VERTEX
  8
0
  10
7499.545547
  20
919.826716
  42
0.031943
  0
VERTEX
  8
0
  10
7498.725625
  20
917.512268
  42
0.036899
  0
VERTEX
  8
0
  10
7498.297282
  20
915.429559
  42
0.046254
  0
VERTEX
  8
0
  10
7498.211209
  20
913.080930
  42
0.049589
  0
VERTEX
  8
0
  10
7498.549534
  20
910.914380
  42
-0.038679
  0
VERTEX
  8
0
  10
7498.793022
  20
909.550737
  42
-0.051572
  0
VERTEX
  8
0
  10
7498.789197
  20
908.510642
  42
-0.042359
  0
VERTEX
  8
0
  10
7498.665649
  20
907.873042
  42
-0.050687
  0
VERTEX
  8
0
  10
7498.465511
  20
907.368084
  42
-0.064724
  0
VERTEX
  8
0
  10
7498.119569
  20
906.870907
  42
-0.065778
  0
VERTEX
  8
0
  10
7497.664534
  20
906.485880
  42
-0.103984
  0
VERTEX
  8
0
  10
7496.703013
  20
906.119954
  42
-0.076660
  0
VERTEX
  8
0
  10
7495.314348
  20
906.115230
  42
-0.041453
  0
VERTEX
  8
0
  10
7494.244193
  20
906.368597
  42
-0.033747
  0
VERTEX
  8
0
  10
7492.991834
  20
906.872881
  42
-0.036285
  0
VERTEX
  8
0
  10
7491.383944
  20
907.799485
  42
-0.030307
  0
VERTEX
  8
0
  10
7489.623922
  20
909.154018
  42
-0.022722
  0
VERTEX
  8
0
  10
7488.217565
  20
910.495967
  42
-0.020664
  0
VERTEX
  8
0
  10
7486.804934
  20
912.099879
  42
-0.046151
  0
VERTEX
  8
0
  10
7483.814610
  20
916.580633
  42
-0.040449
  0
VERTEX
  8
0
  10
7481.335435
  20
922.201480
  42
-0.042504
  0
VERTEX
  8
0
  10
7480.559877
  20
924.954345
  42
-0.037038
  0
VERTEX
  8
0
  10
7480.181435
  20
928.213116
  42
-0.029433
  0
VERTEX
  8
0
  10
7480.232577
  20
931.172778
  42
-0.027318
  0
VERTEX
  8
0
  10
7480.648334
  20
934.334478
  42
-0.060237
  0
VERTEX
  8
0
  10
7483.019110
  20
941.846560
  42
-0.051942
  0
VERTEX
  8
0
  10
7487.631637
  20
949.722080
  42
-0.028310
  0
VERTEX
  8
0
  10
7491.214843
  20
954.061766
  42
-0.025805
  0
VERTEX
  8
0
  10
7495.636422
  20
958.369742
  42
-0.021340
  0
VERTEX
  8
0
  10
7500.022427
  20
961.902869
  42
-0.019461
  0
VERTEX
  8
0
  10
7505.131234
  20
965.371979
  42
-0.022324
  0
VERTEX
  8
0
  10
7512.034519
  20
969.260339
  42
-0.019967
  0
VERTEX
  8
0
  10
7520.091360
  20
972.939779
  42
-0.015939
  0
VERTEX
  8
0
  10
7527.515462
  20
975.705416
  42
-0.014245
  0
VERTEX
  8
0
  10
7535.993334
  20
978.292980
  42
-0.026098
  0
VERTEX
  8
0
  10
7560.948227
  20
983.757243
  42
-0.024267
  0
VERTEX
  8
0
  10
7588.239133
  20
986.905580
  42
-0.022493
  0
VERTEX
  8
0
  10
7614.604672
  20
987.468675
  42
-0.022841
  0
VERTEX
  8
0
  10
7640.511933
  20
985.670477
  42
-0.011338
  0
VERTEX
  8
0
  10
7652.814664
  20
983.966253
  42
-0.012012
  0
VERTEX
  8
0
  10
7664.339469
  20
981.817291
  42
-0.013622
  0
VERTEX
  8
0
  10
7676.468896
  20
978.905347
  42
-0.014566
  0
VERTEX
  8
0
  10
7687.641632
  20
975.547078
  42
-0.014851
  0
VERTEX
  8
0
  10
7697.844799
  20
971.813180
  42
-0.016606
  0
VERTEX
  8
0
  10
7706.742431
  20
967.906516
  42
-0.021117
  0
VERTEX
  8
0
  10
7716.393483
  20
962.769138
  42
-0.023960
  0
VERTEX
  8
0
  10
7724.458430
  20
957.493280
  42
-0.016733
  0
VERTEX
  8
0
  10
7729.990310
  20
953.193899
  42
-0.018227
  0
VERTEX
  8
0
  10
7734.780851
  20
948.901620
  42
-0.022103
  0
VERTEX
  8
0
  10
7739.648314
  20
943.775810
  42
-0.024468
  0
VERTEX
  8
0
  10
7743.596192
  20
938.755968
  42
-0.029485
  0
VERTEX
  8
0
  10
7747.277347
  20
932.865460
  42
-0.032224
  0
VERTEX
  8
0
  10
7749.957103
  20
927.101223
  42
-0.037241
  0
VERTEX
  8
0
  10
7751.958178
  20
920.546396
  42
-0.038479
  0
VERTEX
  8
0
  10
7752.916230
  20
913.982280
  42
-0.007635
  0
VERTEX
  8
0
  10
7752.983391
  20
912.709441
  42
-0.007623
  0
VERTEX
  8
0
  10
7753.011730
  20
911.433080
  0
VERTEX
  8
0
  10
7753.012528
  20
911.167280
  42
-0.002513
  0
VERTEX
  8
0
  10
7753.010797
  20
910.764402
  42
-0.002394
  0
VERTEX
  8
0
  10
7753.004830
  20
910.341579
  42
-0.036511
  0
VERTEX
  8
0
  10
7752.450753
  20
904.219539
  42
-0.035868
  0
VERTEX
  8
0
  10
7750.994118
  20
898.134381
  42
-0.033120
  0
VERTEX
  8
0
  10
7748.821190
  20
892.579493
  42
-0.032066
  0
VERTEX
  8
0
  10
7745.850430
  20
887.182681
  42
-0.002011
  0
VERTEX
  8
0
  10
7745.646860
  20
886.865176
  42
-0.001887
  0
VERTEX
  8
0
  10
7745.427329
  20
886.528582
  42
-0.000698
  0
VERTEX
  8
0
  10
7745.327877
  20
886.377882
  42
-0.001177
  0
VERTEX
  8
0
  10
7745.268530
  20
886.288682
  42
-0.027127
  0
VERTEX
  8
0
  10
7742.010194
  20
881.930017
  42
-0.026729
  0
VERTEX
  8
0
  10
7738.247131
  20
877.887579
  42
-0.004670
  0
VERTEX
  8
0
  10
7733.637766
  20
873.520758
  42
-0.005138
  0
VERTEX
  8
0
  10
7729.370928
  20
869.634382
  42
-0.012376
  0
VERTEX
  8
0
  10
7720.249585
  20
861.865333
  42
-0.014072
  0
VERTEX
  8
0
  10
7711.877192
  20
855.466007
  42
-0.016133
  0
VERTEX
  8
0
  10
7702.693218
  20
849.287407
  42
-0.016927
  0
VERTEX
  8
0
  10
7693.569932
  20
843.989682
  0
SEQEND
  0
POLYLINE
  8
0
  66
1
  70
1
  62
7
  0
VERTEX
  8
0
  10
7634.816830
  20
679.301183
  42
0.003540
  0
VERTEX
  8
0
  10
7639.058362
  20
680.615812
  42
0.003583
  0
VERTEX
  8
0
  10
7643.230530
  20
681.974385
  42
0.013442
  0
VERTEX
  8
0
  10
7657.771857
  20
687.263544
  42
0.014878
  0
VERTEX
  8
0
  10
7670.619431
  20
692.778786
  42
0.018397
  0
VERTEX
  8
0
  10
7684.143134
  20
699.683073
  42
0.021362
  0
VERTEX
  8
0
  10
7695.281832
  20
706.535984
  42
0.012435
  0
VERTEX
  8
0
  10
7700.813247
  20
710.477737
  42
0.013624
  0
VERTEX
  8
0
  10
7705.667718
  20
714.333633
  42
0.016275
  0
VERTEX
  8
0
  10
7710.709687
  20
718.855297
  42
0.017732
  0
VERTEX
  8
0
  10
7715.044930
  20
723.310584
  42
0.016115
  0
VERTEX
  8
0
  10
7721.111137
  20
729.983401
  42
0.017781
  0
VERTEX
  8
0
  10
7726.187142
  20
736.390046
  42
0.021926
  0
VERTEX
  8
0
  10
7731.229261
  20
743.910370
  42
0.024422
  0
VERTEX
  8
0
  10
7735.112129
  20
751.052682
  42
0.023390
  0
VERTEX
  8
0
  10
7737.823470
  20
757.424078
  42
0.025922
  0
VERTEX
  8
0
  10
7739.692391
  20
763.386895
  42
0.032190
  0
VERTEX
  8
0
  10
7740.982961
  20
770.187536
  42
0.035726
  0
VERTEX
  8
0
  10
7741.305728
  20
776.417481
  42
0.038121
  0
VERTEX
  8
0
  10
7740.721292
  20
782.495523
  42
0.041010
  0
VERTEX
  8
0
  10
7739.294498
  20
787.990588
  42
0.041177
  0
VERTEX
  8
0
  10
7737.062682
  20
793.010858
  42
0.041130
  0
VERTEX
  8
0
  10
7734.035354
  20
797.603007
  42
0.038703
  0
VERTEX
  8
0
  10
7730.403184
  20
801.561574
  42
0.036366
  0
VERTEX
  8
0
  10
7725.951898
  20
805.148687
  42
0.033018
  0
VERTEX
  8
0
  10
7721.114659
  20
808.045589
  42
0.030188
  0
VERTEX
  8
0
  10
7715.467730
  20
810.521581
  42
0.028298
  0
VERTEX
  8
0
  10
7700.517199
  20
815.085587
  42
0.025463
  0
VERTEX
  8
0
  10
7683.456432
  20
818.345381
  42
0.019873
  0
VERTEX
  8
0
  10
7668.462075
  20
819.821592
  42
0.018111
  0
VERTEX
  8
0
  10
7651.934630
  20
820.188182
  42
0.013938
  0
VERTEX
  8
0
  10
7638.179344
  20
819.611243
  42
0.013193
  0
VERTEX
  8
0
  10
7623.701430
  20
818.214482
  42
0.009922
  0
VERTEX
  8
0
  10
7612.529652
  20
816.612715
  42
0.010043
  0
VERTEX
  8
0
  10
7601.564731
  20
814.590982
  42
0.056486
  0
VERTEX
  8
0
  10
7601.349423
  20
814.255124
  42
0.040587
  0
VERTEX
  8
0
  10
7601.145807
  20
813.739494
  42
0.051610
  0
VERTEX
  8
0
  10
7601.034148
  20
813.164596
  42
0.085874
  0
VERTEX
  8
0
  10
7601.063332
  20
812.812181
  0
VERTEX
  8
0
  10
7601.064831
  20
812.806381
  0
VERTEX
  8
0
  10
7582.896134
  20
727.846685
  42
-0.011342
  0
VERTEX
  8
0
  10
7591.883993
  20
729.478333
  42
-0.011181
  0
VERTEX
  8
0
  10
7601.066732
  20
730.721284
  42
-0.011160
  0
VERTEX
  8
0
  10
7610.089819
  20
731.534337
  42
-0.011853
  0
VERTEX
  8
0
  10
7618.611532
  20
731.908184
  42
-0.013088
  0
VERTEX
  8
0
  10
7627.102130
  20
731.856758
  42
-0.015222
  0
VERTEX
  8
0
  10
7634.388632
  20
731.399486
  42
-0.019028
  0
VERTEX
  8
0
  10
7641.740736
  20
730.429478
  42
-0.024795
  0
VERTEX
  8
0
  10
7647.297233
  20
729.193884
  42
-0.108008
  0
VERTEX
  8
0
  10
7649.920263
  20
727.075272
  42
-0.132333
  0
VERTEX
  8
0
  10
7651.031332
  20
724.540184
  42
-0.070247
  0
VERTEX
  8
0
  10
7651.043490
  20
723.282128
  42
-0.077781
  0
VERTEX
  8
0
  10
7650.722744
  20
722.190772
  42
-0.090222
  0
VERTEX
  8
0
  10
7650.033211
  20
721.227069
  42
-0.089080
  0
VERTEX
  8
0
  10
7649.037531
  20
720.557383
  0
VERTEX
  8
0
  10
7649.031333
  20
720.554684
  0
VERTEX
  8
0
  10
7649.024531
  20
720.555485
  42
0.019502
  0
VERTEX
  8
0
  10
7645.718549
  20
720.795058
  42
0.016149
  0
VERTEX
  8
0
  10
7641.716243
  20
720.799246
  42
0.011017
  0
VERTEX
  8
0
  10
7638.440960
  20
720.624565
  42
0.008939
  0
VERTEX
  8
0
  10
7634.416131
  20
720.248385
  42
0.016037
  0
VERTEX
  8
0
  10
7626.177232
  20
719.060789
  42
0.013059
  0
VERTEX
  8
0
  10
7616.162132
  20
717.016584
  42
0.011152
  0
VERTEX
  8
0
  10
7606.476265
  20
714.545757
  42
0.010438
  0
VERTEX
  8
0
  10
7596.252434
  20
711.461985
  42
0.010495
  0
VERTEX
  8
0
  10
7586.092872
  20
707.927294
  42
0.011142
  0
VERTEX
  8
0
  10
7576.676231
  20
704.186985
  42
0.013087
  0
VERTEX
  8
0
  10
7567.120666
  20
699.844437
  42
0.015792
  0
VERTEX
  8
0
  10
7559.422135
  20
695.794285
  42
0.008891
  0
VERTEX
  8
0
  10
7555.722782
  20
693.608493
  42
0.010689
  0
VERTEX
  8
0
  10
7552.719185
  20
691.671272
  42
0.014975
  0
VERTEX
  8
0
  10
7549.267502
  20
689.185377
  42
0.017631
  0
VERTEX
  8
0
  10
7546.479435
  20
686.887285
  42
0.023358
  0
VERTEX
  8
0
  10
7543.831338
  20
684.312288
  42
0.030225
  0
VERTEX
  8
0
  10
7542.008735
  20
682.114085
  42
0.002698
  0
VERTEX
  8
0
  10
7541.840002
  20
681.879629
  42
0.003048
  0
VERTEX
  8
0
  10
7541.693034
  20
681.670386
  42
0.004087
  0
VERTEX
  8
0
  10
7541.519228
  20
681.414689
  42
0.004215
  0
VERTEX
  8
0
  10
7541.354833
  20
681.163984
  42
0.005754
  0
VERTEX
  8
0
  10
7541.117216
  20
680.783608
  42
0.006366
  0
VERTEX
  8
0
  10
7540.910834
  20
680.434687
  42
0.002448
  0
VERTEX
  8
0
  10
7540.827451
  20
680.287450
  42
0.002669
  0
VERTEX
  8
0
  10
7540.752335
  20
680.151586
  42
0.008086
  0
VERTEX
  8
0
  10
7540.511853
  20
679.691409
  42
0.009095
  0
VERTEX
  8
0
  10
7540.312234
  20
679.275184
  42
0.001907
  0
VERTEX
  8
0
  10
7540.279381
  20
679.202845
  42
0.001642
  0
VERTEX
  8
0
  10
7540.241834
  20
679.118586
  42
0.010405
  0
VERTEX
  8
0
  10
7540.029552
  20
678.606548
  42
0.011757
  0
VERTEX
  8
0
  10
7539.861934
  20
678.145483
  0
VERTEX
  8
0
  10
7539.841935
  20
678.086485
  42
0.012912
  0
VERTEX
  8
0
  10
7539.680548
  20
677.551188
  42
0.013924
  0
VERTEX
  8
0
  10
7539.557734
  20
677.047484
  0
VERTEX
  8
0
  10
7539.555635
  20
677.037585
  42
0.015170
  0
VERTEX
  8
0
  10
7539.459268
  20
676.508079
  42
0.015567
  0
VERTEX
  8
0
  10
7539.397234
  20
675.987284
  0
VERTEX
  8
0
  10
7539.396733
  20
675.981283
  42
0.016279
  0
VERTEX
  8
0
  10
7539.368943
  20
675.467666
  42
0.016434
  0
VERTEX
  8
0
  10
7539.374734
  20
674.958186
  0
VERTEX
  8
0
  10
7539.377034
  20
674.916184
  42
0.016115
  0
VERTEX
  8
0
  10
7539.415850
  20
674.443244
  42
0.015943
  0
VERTEX
  8
0
  10
7539.485633
  20
673.968686
  42
0.002186
  0
VERTEX
  8
0
  10
7539.496655
  20
673.909115
  42
0.001955
  0
VERTEX
  8
0
  10
7539.509534
  20
673.842586
  42
0.014665
  0
VERTEX
  8
0
  10
7539.603885
  20
673.428127
  42
0.014333
  0
VERTEX
  8
0
  10
7539.724834
  20
673.010387
  42
0.004485
  0
VERTEX
  8
0
  10
7539.765845
  20
672.886372
  42
0.004247
  0
VERTEX
  8
0
  10
7539.811434
  20
672.756186
  42
0.011972
  0
VERTEX
  8
0
  10
7539.936889
  20
672.429440
  42
0.011548
  0
VERTEX
  8
0
  10
7540.082734
  20
672.097186
  42
0.008105
  0
VERTEX
  8
0
  10
7540.196187
  20
671.862851
  42
0.007763
  0
VERTEX
  8
0
  10
7540.322334
  20
671.622086
  42
0.007144
  0
VERTEX
  8
0
  10
7540.370801
  20
671.534796
  42
0.002345
  0
VERTEX
  8
0
  10
7540.523435
  20
671.271785
  42
0.020738
  0
VERTEX
  8
0
  10
7540.953541
  20
670.622619
  42
0.019282
  0
VERTEX
  8
0
  10
7541.470435
  20
669.963685
  42
0.032546
  0
VERTEX
  8
0
  10
7541.793741
  20
669.629483
  42
0.027195
  0
VERTEX
  8
0
  10
7542.225432
  20
669.278587
  42
0.004812
  0
VERTEX
  8
0
  10
7542.420070
  20
669.144351
  42
0.006672
  0
VERTEX
  8
0
  10
7542.562635
  20
669.050784
  42
0.004730
  0
VERTEX
  8
0
  10
7542.670321
  20
668.984215
  42
0.004940
  0
VERTEX
  8
0
  10
7542.774633
  20
668.922486
  42
0.048130
  0
VERTEX
  8
0
  10
7544.443752
  20
668.180226
  42
0.030306
  0
VERTEX
  8
0
  10
7547.242166
  20
667.430817
  42
0.020410
  0
VERTEX
  8
0
  10
7550.077326
  20
666.972551
  42
0.014974
  0
VERTEX
  8
0
  10
7553.975399
  20
666.622773
  42
0.011582
  0
VERTEX
  8
0
  10
7557.877544
  20
666.480739
  42
0.009414
  0
VERTEX
  8
0
  10
7562.681399
  20
666.507673
  42
0.008011
  0
VERTEX
  8
0
  10
7567.521782
  20
666.703593
  42
0.006980
  0
VERTEX
  8
0
  10
7573.067233
  20
667.094835
  42
0.012370
  0
VERTEX
  8
0
  10
7584.594073
  20
668.357824
  42
0.010807
  0
VERTEX
  8
0
  10
7597.706667
  20
670.413223
  42
0.010836
  0
VERTEX
  8
0
  10
7611.605634
  20
673.212878
  42
0.010697
  0
VERTEX
  8
0
  10
7625.550233
  20
676.652486
  0
VERTEX
  8
0
  10
7625.958633
  20
676.762986
  42
0.001209
  0
VERTEX
  8
0
  10
7627.343591
  20
677.141686
  42
0.001138
  0
VERTEX
  8
0
  10
7628.812933
  20
677.550884
  42
0.000387
  0
VERTEX
  8
0
  10
7629.253639
  20
677.675036
  42
0.000355
  0
VERTEX
  8
0
  10
7629.733133
  20
677.810884
  42
0.001019
  0
VERTEX
  8
0
  10
7630.810026
  20
678.118765
  42
0.000954
  0
VERTEX
  8
0
  10
7631.958730
  20
678.452086
  42
0.000802
  0
VERTEX
  8
0
  10
7632.894665
  20
678.726916
  42
0.000771
  0
VERTEX
  8
0
  10
7633.868433
  20
679.016185
  42
0.000500
  0
VERTEX
  8
0
  10
7634.162598
  20
679.104263
  42
0.000225
  0
VERTEX
  8
0
  10
7634.816830
  20
679.301183
  0
SEQEND
  0
POLYLINE
  8
0
  66
1
  70
1
  62
7
  0
VERTEX
  8
0
  10
7708.710731
  20
894.939181
  42
0.002271
  0
VERTEX
  8
0
  10
7708.908929
  20
895.406223
  42
0.002178
  0
VERTEX
  8
0
  10
7709.111229
  20
895.894980
  0
VERTEX
  8
0
  10
7709.223130
  20
896.170379
  42
0.030711
  0
VERTEX
  8
0
  10
7711.430615
  20
902.792381
  42
0.031968
  0
VERTEX
  8
0
  10
7712.739629
  20
909.369679
  42
0.062484
  0
VERTEX
  8
0
  10
7712.837016
  20
921.986276
  42
0.061642
  0
VERTEX
  8
0
  10
7709.794630
  20
934.406981
  42
0.048773
  0
VERTEX
  8
0
  10
7705.338552
  20
942.749894
  42
0.048145
  0
VERTEX
  8
0
  10
7699.282293
  20
950.174367
  42
0.042344
  0
VERTEX
  8
0
  10
7692.392672
  20
956.044791
  42
0.038237
  0
VERTEX
  8
0
  10
7683.822132
  20
961.236178
  42
0.021414
  0
VERTEX
  8
0
  10
7678.065594
  20
963.844010
  42
0.019663
  0
VERTEX
  8
0
  10
7671.584987
  20
966.159950
  42
0.016712
  0
VERTEX
  8
0
  10
7665.419310
  20
967.869529
  42
0.015286
  0
VERTEX
  8
0
  10
7658.572970
  20
969.303653
  42
0.023676
  0
VERTEX
  8
0
  10
7646.414383
  20
970.875622
  42
0.020205
  0
VERTEX
  8
0
  10
7632.063131
  20
971.461879
  42
-0.032488
  0
VERTEX
  8
0
  10
7637.179137
  20
967.389267
  42
-0.036207
  0
VERTEX
  8
0
  10
7641.227130
  20
963.139880
  42
-0.019657
  0
VERTEX
  8
0
  10
7642.801765
  20
961.066127
  42
-0.023325
  0
VERTEX
  8
0
  10
7643.974056
  20
959.210704
  42
-0.037962
  0
VERTEX
  8
0
  10
7645.146812
  20
956.725798
  42
-0.051418
  0
VERTEX
  8
0
  10
7645.673531
  20
954.764177
  0
VERTEX
  8
0
  10
7645.675831
  20
954.749879
  0
VERTEX
  8
0
  10
7645.664630
  20
954.740679
  42
0.046348
  0
VERTEX
  8
0
  10
7643.244467
  20
952.317767
  42
0.032295
  0
VERTEX
  8
0
  10
7640.361533
  20
948.344042
  42
0.017558
  0
VERTEX
  8
0
  10
7638.549668
  20
945.237151
  42
0.013231
  0
VERTEX
  8
0
  10
7636.403931
  20
940.974881
  42
0.011944
  0
VERTEX
  8
0
  10
7634.251766
  20
936.104133
  42
0.009320
  0
VERTEX
  8
0
  10
7631.761633
  20
929.750681
  42
0.007131
  0
VERTEX
  8
0
  10
7629.561876
  20
923.544816
  42
0.005735
  0
VERTEX
  8
0
  10
7627.026033
  20
915.760280
  42
0.004588
  0
VERTEX
  8
0
  10
7624.531788
  20
907.530635
  42
0.003931
  0
VERTEX
  8
0
  10
7621.785007
  20
897.878317
  42
0.002641
  0
VERTEX
  8
0
  10
7619.686995
  20
890.119872
  42
0.002003
  0
VERTEX
  8
0
  10
7617.015431
  20
879.863382
  42
0.002953
  0
VERTEX
  8
0
  10
7612.604607
  20
862.214014
  42
0.001857
  0
VERTEX
  8
0
  10
7605.862034
  20
834.086882
  42
0.006845
  0
VERTEX
  8
0
  10
7610.582490
  20
835.153007
  42
0.005904
  0
VERTEX
  8
0
  10
7616.021631
  20
836.528083
  0
VERTEX
  8
0
  10
7616.039334
  20
836.532782
  0
VERTEX
  8
0
  10
7616.041030
  20
836.533283
  42
0.004620
  0
VERTEX
  8
0
  10
7621.411025
  20
838.028807
  42
0.003575
  0
VERTEX
  8
0
  10
7628.318418
  20
840.075057
  42
0.002328
  0
VERTEX
  8
0
  10
7634.197925
  20
841.892578
  42
0.001661
  0
VERTEX
  8
0
  10
7642.415832
  20
844.504981
  42
0.000486
  0
VERTEX
  8
0
  10
7644.334633
  20
845.134989
  42
0.000442
  0
VERTEX
  8
0
  10
7646.444230
  20
845.831983
  42
0.008576
  0
VERTEX
  8
0
  10
7651.748702
  20
847.691321
  42
0.008931
  0
VERTEX
  8
0
  10
7656.776731
  20
849.653981
  42
0.001136
  0
VERTEX
  8
0
  10
7657.832275
  20
850.092889
  42
0.001839
  0
VERTEX
  8
0
  10
7658.482433
  20
850.367781
  0
VERTEX
  8
0
  10
7658.603630
  20
850.419480
  42
0.017539
  0
VERTEX
  8
0
  10
7667.497509
  20
854.610218
  42
0.018927
  0
VERTEX
  8
0
  10
7675.434720
  20
859.084033
  42
0.019845
  0
VERTEX
  8
0
  10
7682.782866
  20
864.012532
  42
0.021416
  0
VERTEX
  8
0
  10
7689.193080
  20
869.125669
  42
0.022517
  0
VERTEX
  8
0
  10
7694.982074
  20
874.640619
  42
0.024213
  0
VERTEX
  8
0
  10
7699.863764
  20
880.249461
  42
0.025442
  0
VERTEX
  8
0
  10
7704.080538
  20
886.194901
  42
0.027104
  0
VERTEX
  8
0
  10
7707.431830
  20
892.160481
  0
VERTEX
  8
0
  10
7707.493831
  20
892.286779
  42
0.003175
  0
VERTEX
  8
0
  10
7707.784003
  20
892.889081
  42
0.002924
  0
VERTEX
  8
0
  10
7708.091129
  20
893.546979
  42
0.000994
  0
VERTEX
  8
0
  10
7708.207054
  20
893.800548
  42
0.001100
  0
VERTEX
  8
0
  10
7708.310829
  20
894.030080
  42
0.002270
  0
VERTEX
  8
0
  10
7708.512441
  20
894.482819
  42
0.002261
  0
VERTEX
  8
0
  10
7708.710731
  20
894.939181
  0
SEQEND
  0
POLYLINE
  8
0
  66
1
  70
1
  62
7
  0
VERTEX
  8
0
  10
7337.776039
  20
691.453485
  42
-0.039607
  0
VERTEX
  8
0
  10
7329.504956
  20
695.866085
  42
-0.042866
  0
VERTEX
  8
0
  10
7322.633526
  20
701.143521
  42
-0.024793
  0
VERTEX
  8
0
  10
7319.394041
  20
704.414231
  42
-0.026242
  0
VERTEX
  8
0
  10
7316.663966
  20
707.800282
  42
-0.029086
  0
VERTEX
  8
0
  10
7314.207348
  20
711.650514
  42
-0.030319
  0
VERTEX
  8
0
  10
7312.304740
  20
715.597783
  42
-0.036462
  0
VERTEX
  8
0
  10
7309.972591
  20
721.982351
  42
-0.031625
  0
VERTEX
  8
0
  10
7308.308102
  20
729.637533
  42
-0.023461
  0
VERTEX
  8
0
  10
7307.604562
  20
736.380759
  42
-0.020202
  0
VERTEX
  8
0
  10
7307.473540
  20
744.252083
  42
-0.016480
  0
VERTEX
  8
0
  10
7307.899856
  20
751.762084
  42
-0.014603
  0
VERTEX
  8
0
  10
7308.906502
  20
760.190795
  42
-0.011336
  0
VERTEX
  8
0
  10
7310.175327
  20
767.549675
  42
-0.009895
  0
VERTEX
  8
0
  10
7311.985338
  20
775.910282
  42
-0.013804
  0
VERTEX
  8
0
  10
7315.440106
  20
788.866213
  42
-0.011322
  0
VERTEX
  8
0
  10
7320.439837
  20
804.429381
  42
-0.003029
  0
VERTEX
  8
0
  10
7322.160932
  20
809.302122
  42
-0.002338
  0
VERTEX
  8
0
  10
7324.458639
  20
815.591583
  0
VERTEX
  8
0
  10
7325.961350
  20
819.623507
  42
0.001400
  0
VERTEX
  8
0
  10
7326.841092
  20
822.008974
  42
0.002022
  0
VERTEX
  8
0
  10
7327.438938
  20
823.664881
  42
0.054092
  0
VERTEX
  8
0
  10
7327.986976
  20
825.549156
  42
0.071454
  0
VERTEX
  8
0
  10
7328.035050
  20
827.037146
  42
0.074818
  0
VERTEX
  8
0
  10
7327.688251
  20
828.342238
  42
0.071297
  0
VERTEX
  8
0
  10
7326.946213
  20
829.548644
  42
0.052611
  0
VERTEX
  8
0
  10
7326.023964
  20
830.446295
  42
0.040468
  0
VERTEX
  8
0
  10
7324.631388
  20
831.370386
  42
0.026249
  0
VERTEX
  8
0
  10
7323.335783
  20
832.000216
  42
0.019803
  0
VERTEX
  8
0
  10
7321.549539
  20
832.673383
  42
0.015752
  0
VERTEX
  8
0
  10
7319.562630
  20
833.264809
  42
0.012586
  0
VERTEX
  8
0
  10
7317.038201
  20
833.862920
  42
0.007224
  0
VERTEX
  8
0
  10
7315.214917
  20
834.219292
  42
0.004769
  0
VERTEX
  8
0
  10
7312.441138
  20
834.692683
  42
0.002819
  0
VERTEX
  8
0
  10
7310.433136
  20
835.004115
  42
0.001666
  0
VERTEX
  8
0
  10
7307.031564
  20
835.500481
  42
-0.000638
  0
VERTEX
  8
0
  10
7303.039386
  20
836.074643
  42
-0.001790
  0
VERTEX
  8
0
  10
7301.618240
  20
836.286081
  42
-0.004098
  0
VERTEX
  8
0
  10
7299.557946
  20
831.557932
  42
-0.002887
  0
VERTEX
  8
0
  10
7296.540040
  20
824.888180
  42
-0.001916
  0
VERTEX
  8
0
  10
7293.796707
  20
818.977493
  42
-0.001466
  0
VERTEX
  8
0
  10
7290.160241
  20
811.279281
  42
-0.001550
  0
VERTEX
  8
0
  10
7285.181969
  20
800.903514
  42
-0.000821
  0
VERTEX
  8
0
  10
7275.691840
  20
781.362184
  42
-0.012641
  0
VERTEX
  8
0
  10
7273.840565
  20
775.978386
  42
-0.010439
  0
VERTEX
  8
0
  10
7271.300339
  20
769.569282
  42
-0.008652
  0
VERTEX
  8
0
  10
7268.610416
  20
763.472645
  42
-0.007693
  0
VERTEX
  8
0
  10
7265.362941
  20
756.719083
  42
-0.013417
  0
VERTEX
  8
0
  10
7258.379401
  20
743.639749
  42
-0.012854
  0
VERTEX
  8
0
  10
7250.383439
  20
730.389783
  42
-0.006761
  0
VERTEX
  8
0
  10
7246.178694
  20
724.002630
  42
-0.007276
  0
VERTEX
  8
0
  10
7242.106641
  20
718.179784
  42
-0.008297
  0
VERTEX
  8
0
  10
7237.760341
  20
712.359338
  42
-0.009572
  0
VERTEX
  8
0
  10
7233.815341
  20
707.452285
  42
-0.011902
  0
VERTEX
  8
0
  10
7229.520965
  20
702.556547
  42
-0.014927
  0
VERTEX
  8
0
  10
7225.891941
  20
698.841685
  42
-0.020599
  0
VERTEX
  8
0
  10
7221.846576
  20
695.249966
  42
-0.028849
  0
VERTEX
  8
0
  10
7218.717842
  20
692.982184
  42
-0.047523
  0
VERTEX
  8
0
  10
7210.716320
  20
688.871988
  42
-0.050190
  0
VERTEX
  8
0
  10
7202.526641
  20
686.523585
  42
-0.044993
  0
VERTEX
  8
0
  10
7194.823446
  20
685.835802
  42
-0.042431
  0
VERTEX
  8
0
  10
7186.654643
  20
686.537484
  42
-0.034106
  0
VERTEX
  8
0
  10
7179.630068
  20
688.246856
  42
-0.031157
  0
VERTEX
  8
0
  10
7172.250893
  20
691.102022
  42
-0.026698
  0
VERTEX
  8
0
  10
7165.731008
  20
694.536719
  42
-0.025267
  0
VERTEX
  8
0
  10
7159.255942
  20
698.860583
  42
-0.038604
  0
VERTEX
  8
0
  10
7155.326999
  20
702.511224
  42
-0.037336
  0
VERTEX
  8
0
  10
7151.882530
  20
706.856294
  42
-0.032270
  0
VERTEX
  8
0
  10
7149.278461
  20
711.289157
  42
-0.029505
  0
VERTEX
  8
0
  10
7147.049743
  20
716.450460
  42
-0.024460
  0
VERTEX
  8
0
  10
7145.524258
  20
721.386759
  42
-0.022088
  0
VERTEX
  8
0
  10
7144.350480
  20
726.985837
  42
-0.018202
  0
VERTEX
  8
0
  10
7143.696246
  20
732.147523
  42
-0.016712
  0
VERTEX
  8
0
  10
7143.377641
  20
737.805182
  42
-0.010614
  0
VERTEX
  8
0
  10
7135.430185
  20
724.677485
  42
-0.013070
  0
VERTEX
  8
0
  10
7128.478404
  20
714.333872
  42
-0.008794
  0
VERTEX
  8
0
  10
7124.425695
  20
708.838875
  42
-0.010381
  0
VERTEX
  8
0
  10
7120.816344
  20
704.318645
  42
-0.013350
  0
VERTEX
  8
0
  10
7116.760167
  20
699.705849
  42
-0.016592
  0
VERTEX
  8
0
  10
7113.279844
  20
696.195884
  42
-0.012175
  0
VERTEX
  8
0
  10
7111.073550
  20
694.193404
  42
-0.013810
  0
VERTEX
  8
0
  10
7109.039343
  20
692.531383
  42
-0.011348
  0
VERTEX
  8
0
  10
7107.680747
  20
691.530907
  42
-0.011550
  0
VERTEX
  8
0
  10
7106.302345
  20
690.610085
  42
-0.036908
  0
VERTEX
  8
0
  10
7101.879738
  20
688.197705
  42
-0.037341
  0
VERTEX
  8
0
  10
7097.203691
  20
686.485912
  42
-0.034205
  0
VERTEX
  8
0
  10
7092.618845
  20
685.518781
  42
-0.032376
  0
VERTEX
  8
0
  10
7087.682768
  20
685.148973
  42
-0.028095
  0
VERTEX
  8
0
  10
7083.044315
  20
685.363072
  42
-0.025761
  0
VERTEX
  8
0
  10
7078.040684
  20
686.138815
  42
-0.021962
  0
VERTEX
  8
0
  10
7073.454225
  20
687.306212
  42
-0.020142
  0
VERTEX
  8
0
  10
7068.578544
  20
688.994984
  42
-0.021635
  0
VERTEX
  8
0
  10
7063.067230
  20
691.419116
  42
-0.020113
  0
VERTEX
  8
0
  10
7057.377370
  20
694.511722
  42
-0.018071
  0
VERTEX
  8
0
  10
7052.242763
  20
697.833506
  42
-0.017789
  0
VERTEX
  8
0
  10
7047.281844
  20
701.573085
  42
-0.041785
  0
VERTEX
  8
0
  10
7045.177161
  20
703.429500
  42
-0.035436
  0
VERTEX
  8
0
  10
7043.062463
  20
705.972869
  42
-0.026790
  0
VERTEX
  8
0
  10
7041.455357
  20
708.484482
  42
-0.022840
  0
VERTEX
  8
0
  10
7039.871819
  20
711.602034
  42
-0.031157
  0
VERTEX
  8
0
  10
7037.801256
  20
717.069508
  42
-0.026701
  0
VERTEX
  8
0
  10
7036.138145
  20
723.683883
  42
-0.025870
  0
VERTEX
  8
0
  10
7035.102002
  20
730.972343
  42
-0.025611
  0
VERTEX
  8
0
  10
7034.817443
  20
738.403084
  42
-0.027871
  0
VERTEX
  8
0
  10
7035.327469
  20
745.818651
  42
-0.033001
  0
VERTEX
  8
0
  10
7036.515744
  20
751.984785
  42
-0.012949
  0
VERTEX
  8
0
  10
7032.596794
  20
744.514868
  42
-0.010064
  0
VERTEX
  8
0
  10
7027.118344
  20
735.147083
  42
-0.010794
  0
VERTEX
  8
0
  10
7020.493296
  20
724.831214
  42
-0.011418
  0
VERTEX
  8
0
  10
7013.803244
  20
715.366583
  42
-0.006697
  0
VERTEX
  8
0
  10
7009.973307
  20
710.344714
  42
-0.007668
  0
VERTEX
  8
0
  10
7006.503495
  20
706.056359
  42
-0.009782
  0
VERTEX
  8
0
  10
7002.406213
  20
701.339104
  42
-0.010951
  0
VERTEX
  8
0
  10
6998.574646
  20
697.280584
  42
-0.013736
  0
VERTEX
  8
0
  10
6994.443749
  20
693.316497
  42
-0.016604
  0
VERTEX
  8
0
  10
6990.833347
  20
690.249984
  42
-0.021961
  0
VERTEX
  8
0
  10
6986.753554
  20
687.294181
  42
-0.027864
  0
VERTEX
  8
0
  10
6983.321347
  20
685.295386
  42
-0.059447
  0
VERTEX
  8
0
  10
6980.786518
  20
684.428021
  42
-0.044695
  0
VERTEX
  8
0
  10
6977.254846
  20
683.996422
  42
-0.027152
  0
VERTEX
  8
0
  10
6974.424070
  20
684.058756
  42
-0.022365
  0
VERTEX
  8
0
  10
6971.012546
  20
684.473685
  42
-0.020776
  0
VERTEX
  8
0
  10
6967.214985
  20
685.272426
  42
-0.018463
  0
VERTEX
  8
0
  10
6963.025585
  20
686.503347
  42
-0.015229
  0
VERTEX
  8
0
  10
6959.291724
  20
687.879666
  42
-0.014188
  0
VERTEX
  8
0
  10
6955.377848
  20
689.589986
  42
-0.030534
  0
VERTEX
  8
0
  10
6947.351210
  20
693.989449
  42
-0.034469
  0
VERTEX
  8
0
  10
6940.804246
  20
698.776485
  42
-0.020224
  0
VERTEX
  8
0
  10
6937.879173
  20
701.451077
  42
-0.023540
  0
VERTEX
  8
0
  10
6935.576259
  20
703.960122
  42
-0.033969
  0
VERTEX
  8
0
  10
6933.198474
  20
707.237780
  42
-0.041672
  0
VERTEX
  8
0
  10
6931.683945
  20
710.172685
  42
-0.035418
  0
VERTEX
  8
0
  10
6930.121676
  20
714.397323
  42
-0.028864
  0
VERTEX
  8
0
  10
6928.885398
  20
719.781909
  42
-0.020081
  0
VERTEX
  8
0
  10
6928.294113
  20
724.382793
  42
-0.017226
  0
VERTEX
  8
0
  10
6928.006548
  20
729.782183
  42
-0.017287
  0
VERTEX
  8
0
  10
6928.104992
  20
736.005197
  42
-0.015681
  0
VERTEX
  8
0
  10
6928.665248
  20
742.843383
  42
-0.013085
  0
VERTEX
  8
0
  10
6929.536521
  20
749.058620
  42
-0.012055
  0
VERTEX
  8
0
  10
6930.820046
  20
755.748585
  42
-0.025688
  0
VERTEX
  8
0
  10
6934.869846
  20
770.669662
  42
-0.024903
  0
VERTEX
  8
0
  10
6940.580072
  20
785.559919
  42
-0.025267
  0
VERTEX
  8
0
  10
6947.799966
  20
799.896933
  42
-0.026426
  0
VERTEX
  8
0
  10
6956.081347
  20
812.820581
  42
-0.018652
  0
VERTEX
  8
0
  10
6965.038919
  20
824.362085
  42
-0.021223
  0
VERTEX
  8
0
  10
6973.695070
  20
833.846982
  42
-0.026808
  0
VERTEX
  8
0
  10
6984.381345
  20
843.507124
  42
-0.029652
  0
VERTEX
  8
0
  10
6994.966545
  20
851.097883
  42
-0.024310
  0
VERTEX
  8
0
  10
7003.796221
  20
856.085886
  42
-0.024289
  0
VERTEX
  8
0
  10
7013.076145
  20
860.197182
  42
-0.018601
  0
VERTEX
  8
0
  10
7020.772192
  20
862.844246
  42
-0.016136
  0
VERTEX
  8
0
  10
7029.833445
  20
865.272282
  42
-0.037153
  0
VERTEX
  8
0
  10
7034.551964
  20
865.880447
  42
-0.030385
  0
VERTEX
  8
0
  10
7040.366331
  20
865.840668
  42
-0.021375
  0
VERTEX
  8
0
  10
7045.255218
  20
865.299042
  42
-0.018529
  0
VERTEX
  8
0
  10
7050.826545
  20
864.226782
  42
-0.016917
  0
VERTEX
  8
0
  10
7056.439854
  20
862.727486
  42
-0.015968
  0
VERTEX
  8
0
  10
7062.269494
  20
860.751719
  42
-0.014957
  0
VERTEX
  8
0
  10
7067.791118
  20
858.490981
  42
-0.014866
  0
VERTEX
  8
0
  10
7073.200945
  20
855.889381
  42
-0.015813
  0
VERTEX
  8
0
  10
7078.401309
  20
852.983084
  42
-0.017475
  0
VERTEX
  8
0
  10
7082.922044
  20
850.045783
  42
-0.020742
  0
VERTEX
  8
0
  10
7087.292622
  20
846.705304
  42
-0.025317
  0
VERTEX
  8
0
  10
7090.607244
  20
843.650081
  42
-0.029521
  0
VERTEX
  8
0
  10
7093.317669
  20
840.537412
  42
-0.038035
  0
VERTEX
  8
0
  10
7095.077931
  20
837.858706
  42
-0.029750
  0
VERTEX
  8
0
  10
7095.941148
  20
836.052643
  42
-0.035138
  0
VERTEX
  8
0
  10
7096.468227
  20
834.441253
  42
-0.045928
  0
VERTEX
  8
0
  10
7096.758117
  20
832.574851
  42
-0.051279
  0
VERTEX
  8
0
  10
7096.690145
  20
830.883681
  42
-0.047450
  0
VERTEX
  8
0
  10
7094.947510
  20
826.634905
  42
-0.039397
  0
VERTEX
  8
0
  10
7091.998470
  20
821.960319
  42
-0.029233
  0
VERTEX
  8
0
  10
7088.873749
  20
818.250593
  42
-0.026687
  0
VERTEX
  8
0
  10
7085.019445
  20
814.594781
  42
-0.024791
  0
VERTEX
  8
0
  10
7081.037338
  20
811.529364
  42
-0.027174
  0
VERTEX
  8
0
  10
7077.133543
  20
809.124383
  42
-0.032967
  0
VERTEX
  8
0
  10
7073.102863
  20
807.266699
  42
-0.048382
  0
VERTEX
  8
0
  10
7070.184043
  20
806.461183
  42
-0.011896
  0
VERTEX
  8
0
  10
7072.958642
  20
804.149185
  42
-0.014321
  0
VERTEX
  8
0
  10
7075.159794
  20
802.110357
  42
-0.021468
  0
VERTEX
  8
0
  10
7077.668892
  20
799.428317
  42
-0.026976
  0
VERTEX
  8
0
  10
7079.450344
  20
797.110184
  42
-0.034797
  0
VERTEX
  8
0
  10
7080.821609
  20
794.779249
  42
-0.047196
  0
VERTEX
  8
0
  10
7081.539419
  20
792.916858
  42
-0.037191
  0
VERTEX
  8
0
  10
7081.786201
  20
791.694482
  42
-0.043330
  0
VERTEX
  8
0
  10
7081.827160
  20
790.624389
  42
-0.054020
  0
VERTEX
  8
0
  10
7081.642255
  20
789.450905
  42
-0.055812
  0
VERTEX
  8
0
  10
7081.220244
  20
788.381082
  42
0.015153
  0
VERTEX
  8
0
  10
7079.378853
  20
784.893998
  42
0.016344
  0
VERTEX
  8
0
  10
7077.878542
  20
781.559983
  42
0.013523
  0
VERTEX
  8
0
  10
7076.696974
  20
778.450123
  42
0.009932
  0
VERTEX
  8
0
  10
7075.288543
  20
774.145183
  42
0.004370
  0
VERTEX
  8
0
  10
7074.498857
  20
771.475020
  42
0.001645
  0
VERTEX
  8
0
  10
7072.486045
  20
764.355283
  42
-0.001429
  0
VERTEX
  8
0
  10
7070.168017
  20
756.142560
  42
-0.002044
  0
VERTEX
  8
0
  10
7068.507445
  20
750.411784
  42
0.024568
  0
VERTEX
  8
0
  10
7066.760268
  20
740.477304
  42
0.027263
  0
VERTEX
  8
0
  10
7066.120343
  20
731.409085
  42
0.014407
  0
VERTEX
  8
0
  10
7066.175664
  20
727.115288
  42
0.016159
  0
VERTEX
  8
0
  10
7066.458781
  20
723.296971
  42
0.020813
  0
VERTEX
  8
0
  10
7067.097719
  20
719.009822
  42
0.023847
  0
VERTEX
  8
0
  10
7067.986943
  20
715.332384
  42
0.025609
  0
VERTEX
  8
0
  10
7069.103536
  20
712.136653
  42
0.029743
  0
VERTEX
  8
0
  10
7070.363224
  20
709.507561
  42
0.037778
  0
VERTEX
  8
0
  10
7072.087919
  20
706.885450
  42
0.043912
  0
VERTEX
  8
0
  10
7073.919582
  20
704.899847
  42
0.053177
  0
VERTEX
  8
0
  10
7076.255458
  20
703.190697
  42
0.055760
  0
VERTEX
  8
0
  10
7078.783245
  20
702.079927
  42
0.057434
  0
VERTEX
  8
0
  10
7081.698217
  20
701.525733
  42
0.050314
  0
VERTEX
  8
0
  10
7085.081442
  20
701.618484
  42
0.045512
  0
VERTEX
  8
0
  10
7087.164630
  20
701.977830
  42
0.036332
  0
VERTEX
  8
0
  10
7089.664158
  20
702.846319
  42
0.026794
  0
VERTEX
  8
0
  10
7091.878947
  20
703.945337
  42
0.021517
  0
VERTEX
  8
0
  10
7094.491331
  20
705.573067
  42
0.028572
  0
VERTEX
  8
0
  10
7098.774760
  20
708.879478
  42
0.020645
  0
VERTEX
  8
0
  10
7104.222369
  20
714.013672
  42
0.012729
  0
VERTEX
  8
0
  10
7108.282904
  20
718.387530
  42
0.010483
  0
VERTEX
  8
0
  10
7112.961194
  20
723.921033
  42
0.006175
  0
VERTEX
  8
0
  10
7115.976424
  20
727.738437
  42
0.005288
  0
VERTEX
  8
0
  10
7119.394443
  20
732.275884
  42
0.011857
  0
VERTEX
  8
0
  10
7127.674867
  20
744.090053
  42
0.010002
  0
VERTEX
  8
0
  10
7136.869342
  20
758.510584
  42
0.008064
  0
VERTEX
  8
0
  10
7144.348684
  20
771.233049
  42
0.009081
  0
VERTEX
  8
0
  10
7150.599044
  20
782.751483
  42
-0.008917
  0
VERTEX
  8
0
  10
7153.767876
  20
792.865554
  42
-0.007965
  0
VERTEX
  8
0
  10
7157.695744
  20
804.062481
  42
-0.002303
  0
VERTEX
  8
0
  10
7158.941182
  20
807.392209
  42
-0.001526
  0
VERTEX
  8
0
  10
7160.859004
  20
812.402296
  0
VERTEX
  8
0
  10
7164.071842
  20
820.722383
  42
0.003255
  0
VERTEX
  8
0
  10
7165.607902
  20
824.818589
  42
0.004924
  0
VERTEX
  8
0
  10
7166.578942
  20
827.542780
  42
0.008247
  0
VERTEX
  8
0
  10
7167.686219
  20
830.928922
  42
0.011069
  0
VERTEX
  8
0
  10
7168.413242
  20
833.482083
  42
0.014399
  0
VERTEX
  8
0
  10
7169.027427
  20
836.147375
  42
0.018510
  0
VERTEX
  8
0
  10
7169.367880
  20
838.248032
  42
0.028834
  0
VERTEX
  8
0
  10
7169.544502
  20
840.920016
  42
0.035495
  0
VERTEX
  8
0
  10
7169.408343
  20
843.091983
  0
VERTEX
  8
0
  10
7169.407440
  20
843.099080
  0
VERTEX
  8
0
  10
7169.410344
  20
843.105681
  42
-0.063756
  0
VERTEX
  8
0
  10
7169.871493
  20
843.867824
  42
-0.059636
  0
VERTEX
  8
0
  10
7170.548053
  20
844.537370
  42
-0.045249
  0
VERTEX
  8
0
  10
7171.264072
  20
844.996943
  42
-0.037477
  0
VERTEX
  8
0
  10
7172.207518
  20
845.401694
  42
-0.045258
  0
VERTEX
  8
0
  10
7173.778431
  20
845.785942
  42
-0.034051
  0
VERTEX
  8
0
  10
7175.918942
  20
845.960482
  42
-0.030003
  0
VERTEX
  8
0
  10
7178.466710
  20
845.841389
  42
-0.024794
  0
VERTEX
  8
0
  10
7181.514704
  20
845.361144
  42
-0.018786
  0
VERTEX
  8
0
  10
7184.148155
  20
844.707135
  42
-0.017401
  0
VERTEX
  8
0
  10
7186.932643
  20
843.797383
  42
-0.018475
  0
VERTEX
  8
0
  10
7189.816363
  20
842.620340
  42
-0.019563
  0
VERTEX
  8
0
  10
7192.447442
  20
841.304970
  42
-0.023878
  0
VERTEX
  8
0
  10
7195.198931
  20
839.616255
  42
-0.027315
  0
VERTEX
  8
0
  10
7197.441141
  20
837.901683
  42
-0.032488
  0
VERTEX
  8
0
  10
7199.407997
  20
835.985198
  42
-0.039485
  0
VERTEX
  8
0
  10
7200.784178
  20
834.191681
  42
-0.059333
  0
VERTEX
  8
0
  10
7201.973542
  20
831.773075
  42
-0.070105
  0
VERTEX
  8
0
  10
7202.424042
  20
829.533682
  42
-0.023493
  0
VERTEX
  8
0
  10
7202.342130
  20
827.747966
  42
-0.021037
  0
VERTEX
  8
0
  10
7202.073705
  20
825.770019
  42
-0.015620
  0
VERTEX
  8
0
  10
7201.720598
  20
824.098518
  42
-0.012851
  0
VERTEX
  8
0
  10
7201.176542
  20
822.094780
  42
-0.009500
  0
VERTEX
  8
0
  10
7200.521130
  20
820.047097
  42
-0.007350
  0
VERTEX
  8
0
  10
7199.585255
  20
817.430332
  42
-0.003279
  0
VERTEX
  8
0
  10
7199.091567
  20
816.137314
  42
-0.001279
  0
VERTEX
  8
0
  10
7197.796042
  20
812.834882
  42
0.002470
  0
VERTEX
  8
0
  10
7194.495107
  20
804.361168
  42
0.004761
  0
VERTEX
  8
0
  10
7192.846740
  20
799.941783
  42
0.008367
  0
VERTEX
  8
0
  10
7189.773400
  20
790.990876
  42
0.008064
  0
VERTEX
  8
0
  10
7186.891742
  20
781.604881
  42
0.005992
  0
VERTEX
  8
0
  10
7184.461297
  20
772.815170
  42
0.006701
  0
VERTEX
  8
0
  10
7182.488429
  20
764.903721
  42
0.008213
  0
VERTEX
  8
0
  10
7180.563130
  20
756.068467
  42
0.009024
  0
VERTEX
  8
0
  10
7179.089140
  20
747.972082
  42
0.009940
  0
VERTEX
  8
0
  10
7178.002342
  20
740.377517
  42
0.011626
  0
VERTEX
  8
0
  10
7177.353943
  20
733.849883
  42
0.013982
  0
VERTEX
  8
0
  10
7177.039097
  20
727.271739
  42
0.017158
  0
VERTEX
  8
0
  10
7177.116643
  20
721.905185
  42
0.015719
  0
VERTEX
  8
0
  10
7177.434201
  20
717.954048
  42
0.018779
  0
VERTEX
  8
0
  10
7177.927417
  20
714.672612
  42
0.030343
  0
VERTEX
  8
0
  10
7178.967602
  20
710.554423
  42
0.039920
  0
VERTEX
  8
0
  10
7180.189505
  20
707.563735
  42
0.028402
  0
VERTEX
  8
0
  10
7181.119916
  20
705.955403
  42
0.032844
  0
VERTEX
  8
0
  10
7182.088606
  20
704.672949
  42
0.040288
  0
VERTEX
  8
0
  10
7183.320963
  20
703.459448
  42
0.044036
  0
VERTEX
  8
0
  10
7184.619112
  20
702.553807
  42
0.048723
  0
VERTEX
  8
0
  10
7186.161197
  20
701.858195
  42
0.046913
  0
VERTEX
  8
0
  10
7187.870549
  20
701.453217
  42
0.044890
  0
VERTEX
  8
0
  10
7189.743779
  20
701.361069
  42
0.038183
  0
VERTEX
  8
0
  10
7191.932442
  20
701.618085
  42
0.033945
  0
VERTEX
  8
0
  10
7194.152953
  20
702.211382
  42
0.028113
  0
VERTEX
  8
0
  10
7196.723944
  20
703.253697
  42
0.021755
  0
VERTEX
  8
0
  10
7199.022775
  20
704.464784
  42
0.018194
  0
VERTEX
  8
0
  10
7201.646913
  20
706.127459
  42
0.025575
  0
VERTEX
  8
0
  10
7206.028762
  20
709.474396
  42
0.019387
  0
VERTEX
  8
0
  10
7211.387990
  20
714.389447
  42
0.012599
  0
VERTEX
  8
0
  10
7215.491888
  20
718.667383
  42
0.010537
  0
VERTEX
  8
0
  10
7220.157144
  20
724.004080
  42
0.006623
  0
VERTEX
  8
0
  10
7223.375722
  20
727.951410
  42
0.005771
  0
VERTEX
  8
0
  10
7226.955842
  20
732.571385
  42
0.012117
  0
VERTEX
  8
0
  10
7235.137726
  20
743.947906
  42
0.010208
  0
VERTEX
  8
0
  10
7244.236841
  20
757.871284
  42
0.007988
  0
VERTEX
  8
0
  10
7251.577555
  20
770.049994
  42
0.008449
  0
VERTEX
  8
0
  10
7258.135639
  20
781.786283
  0
VERTEX
  8
0
  10
7265.172065
  20
796.952470
  42
0.001264
  0
VERTEX
  8
0
  10
7269.259560
  20
805.842246
  42
0.001783
  0
VERTEX
  8
0
  10
7272.118339
  20
812.160883
  42
0.003155
  0
VERTEX
  8
0
  10
7276.001536
  20
820.974593
  42
0.004337
  0
VERTEX
  8
0
  10
7278.729539
  20
827.426681
  42
0.002598
  0
VERTEX
  8
0
  10
7280.203128
  20
831.051224
  42
0.003676
  0
VERTEX
  8
0
  10
7281.212602
  20
833.626344
  42
0.005897
  0
VERTEX
  8
0
  10
7282.476446
  20
837.041355
  42
0.007073
  0
VERTEX
  8
0
  10
7283.456038
  20
839.915180
  42
-0.040125
  0
VERTEX
  8
0
  10
7281.198034
  20
840.938688
  42
-0.045654
  0
VERTEX
  8
0
  10
7279.395176
  20
842.164245
  42
-0.054187
  0
VERTEX
  8
0
  10
7277.753772
  20
843.842649
  42
-0.055349
  0
VERTEX
  8
0
  10
7276.541738
  20
845.795781
  42
-0.053207
  0
VERTEX
  8
0
  10
7275.169631
  20
848.700756
  42
-0.039621
  0
VERTEX
  8
0
  10
7274.079577
  20
852.869543
  42
-0.024019
  0
VERTEX
  8
0
  10
7273.642741
  20
856.249670
  42
-0.019730
  0
VERTEX
  8
0
  10
7273.472540
  20
860.394582
  42
-0.032318
  0
VERTEX
  8
0
  10
7274.017567
  20
869.031478
  42
-0.027314
  0
VERTEX
  8
0
  10
7275.872840
  20
879.098482
  42
-0.013098
  0
VERTEX
  8
0
  10
7277.132682
  20
883.777065
  42
-0.013956
  0
VERTEX
  8
0
  10
7278.550839
  20
888.097779
  42
-0.015914
  0
VERTEX
  8
0
  10
7280.243658
  20
892.375146
  42
-0.018989
  0
VERTEX
  8
0
  10
7281.909139
  20
895.852682
  42
-0.020923
  0
VERTEX
  8
0
  10
7283.612503
  20
898.783436
  42
-0.026903
  0
VERTEX
  8
0
  10
7285.149327
  20
900.926517
  42
-0.022730
  0
VERTEX
  8
0
  10
7286.293611
  20
902.227612
  42
-0.028189
  0
VERTEX
  8
0
  10
7287.318408
  20
903.177765
  42
-0.040813
  0
VERTEX
  8
0
  10
7288.617481
  20
904.085087
  42
-0.051557
  0
VERTEX
  8
0
  10
7289.761341
  20
904.602879
  42
-0.059983
  0
VERTEX
  8
0
  10
7291.156342
  20
904.888918
  42
-0.043941
  0
VERTEX
  8
0
  10
7293.096989
  20
904.878430
  42
-0.026129
  0
VERTEX
  8
0
  10
7294.611742
  20
904.656503
  42
-0.021596
  0
VERTEX
  8
0
  10
7296.410140
  20
904.214679
  42
-0.037575
  0
VERTEX
  8
0
  10
7300.258722
  20
902.769423
  42
-0.032188
  0
VERTEX
  8
0
  10
7304.471637
  20
900.474980
  42
-0.031307
  0
VERTEX
  8
0
  10
7308.111605
  20
897.845304
  42
-0.035719
  0
VERTEX
  8
0
  10
7310.966289
  20
895.134067
  42
-0.027361
  0
VERTEX
  8
0
  10
7312.463210
  20
893.301953
  42
-0.033085
  0
VERTEX
  8
0
  10
7313.509832
  20
891.648018
  42
-0.045681
  0
VERTEX
  8
0
  10
7314.374862
  20
889.639925
  42
-0.054791
  0
VERTEX
  8
0
  10
7314.748040
  20
887.853880
  42
-0.021049
  0
VERTEX
  8
0
  10
7314.802658
  20
886.356405
  42
-0.013700
  0
VERTEX
  8
0
  10
7314.726640
  20
884.055980
  42
-0.009421
  0
VERTEX
  8
0
  10
7314.552083
  20
881.856286
  42
-0.007298
  0
VERTEX
  8
0
  10
7314.231940
  20
879.025782
  42
-0.010801
  0
VERTEX
  8
0
  10
7313.402735
  20
873.495001
  42
-0.008821
  0
VERTEX
  8
0
  10
7312.122537
  20
866.768081
  42
-0.008581
  0
VERTEX
  8
0
  10
7310.594984
  20
860.027593
  42
-0.009649
  0
VERTEX
  8
0
  10
7309.018939
  20
854.086782
  42
-0.006087
  0
VERTEX
  8
0
  10
7308.110017
  20
851.049226
  42
-0.007270
  0
VERTEX
  8
0
  10
7307.281340
  20
848.527180
  42
-0.009495
  0
VERTEX
  8
0
  10
7306.333771
  20
845.938902
  42
-0.012621
  0
VERTEX
  8
0
  10
7305.535439
  20
844.024981
  42
0.003454
  0
VERTEX
  8
0
  10
7307.522591
  20
844.039125
  42
0.001044
  0
VERTEX
  8
0
  10
7314.098438
  20
844.145081
  42
-0.000998
  0
VERTEX
  8
0
  10
7321.420798
  20
844.263676
  42
-0.001774
  0
VERTEX
  8
0
  10
7325.542838
  20
844.307581
  42
-0.003769
  0
VERTEX
  8
0
  10
7332.368180
  20
844.304541
  42
-0.005489
  0
VERTEX
  8
0
  10
7337.053938
  20
844.215682
  42
-0.004422
  0
VERTEX
  8
0
  10
7339.832766
  20
844.107966
  42
-0.005750
  0
VERTEX
  8
0
  10
7341.967536
  20
843.981681
  42
-0.008533
  0
VERTEX
  8
0
  10
7344.283799
  20
843.777999
  42
-0.012493
  0
VERTEX
  8
0
  10
7345.858739
  20
843.572480
  42
-0.004685
  0
VERTEX
  8
0
  10
7348.880740
  20
842.886026
  42
-0.006229
  0
VERTEX
  8
0
  10
7351.141958
  20
842.320212
  42
-0.010150
  0
VERTEX
  8
0
  10
7354.229263
  20
841.439297
  42
-0.012187
  0
VERTEX
  8
0
  10
7356.765499
  20
840.591431
  42
-0.017508
  0
VERTEX
  8
0
  10
7359.733085
  20
839.399235
  42
-0.021331
  0
VERTEX
  8
0
  10
7362.085835
  20
838.234525
  42
-0.029967
  0
VERTEX
  8
0
  10
7364.609410
  20
836.644468
  42
-0.037086
  0
VERTEX
  8
0
  10
7366.459436
  20
835.097883
  42
-0.055140
  0
VERTEX
  8
0
  10
7368.341001
  20
832.819033
  42
-0.060914
  0
VERTEX
  8
0
  10
7369.525445
  20
830.418426
  42
-0.054824
  0
VERTEX
  8
0
  10
7370.075424
  20
828.038813
  42
-0.049389
  0
VERTEX
  8
0
  10
7370.126626
  20
825.329732
  42
-0.037389
  0
VERTEX
  8
0
  10
7369.752175
  20
822.926097
  42
-0.030969
  0
VERTEX
  8
0
  10
7368.909337
  20
820.114063
  42
-0.022009
  0
VERTEX
  8
0
  10
7367.928546
  20
817.775605
  42
-0.018207
  0
VERTEX
  8
0
  10
7366.519938
  20
815.053682
  42
0.017210
  0
VERTEX
  8
0
  10
7363.577506
  20
809.395552
  42
0.013146
  0
VERTEX
  8
0
  10
7360.182338
  20
801.769083
  42
0.010810
  0
VERTEX
  8
0
  10
7357.181488
  20
794.052788
  42
0.009628
  0
VERTEX
  8
0
  10
7354.169139
  20
785.258981
  42
0.009312
  0
VERTEX
  8
0
  10
7351.438722
  20
776.180457
  42
0.009313
  0
VERTEX
  8
0
  10
7349.048739
  20
767.008285
  42
0.010266
  0
VERTEX
  8
0
  10
7346.929369
  20
757.337878
  42
0.011332
  0
VERTEX
  8
0
  10
7345.389340
  20
748.501785
  42
0.013953
  0
VERTEX
  8
0
  10
7344.231183
  20
739.055210
  42
0.016929
  0
VERTEX
  8
0
  10
7343.758938
  20
731.224286
  42
0.009766
  0
VERTEX
  8
0
  10
7343.731972
  20
727.280313
  42
0.011435
  0
VERTEX
  8
0
  10
7343.851737
  20
723.914059
  42
0.015354
  0
VERTEX
  8
0
  10
7344.200216
  20
720.015047
  42
0.017708
  0
VERTEX
  8
0
  10
7344.725137
  20
716.661284
  42
0.017693
  0
VERTEX
  8
0
  10
7345.355798
  20
713.918932
  42
0.020663
  0
VERTEX
  8
0
  10
7346.074250
  20
711.618744
  42
0.028459
  0
VERTEX
  8
0
  10
7347.166211
  20
709.042955
  42
0.033838
  0
VERTEX
  8
0
  10
7348.346988
  20
707.006835
  42
0.044895
  0
VERTEX
  8
0
  10
7350.011941
  20
704.960108
  42
0.050746
  0
VERTEX
  8
0
  10
7351.803076
  20
703.461350
  42
0.058942
  0
VERTEX
  8
0
  10
7354.084525
  20
702.280537
  42
0.056057
  0
VERTEX
  8
0
  10
7356.702238
  20
701.618085
  42
0.052623
  0
VERTEX
  8
0
  10
7357.627621
  20
701.498172
  42
0.044376
  0
VERTEX
  8
0
  10
7358.730948
  20
701.569965
  42
0.033544
  0
VERTEX
  8
0
  10
7359.739762
  20
701.796333
  42
0.027151
  0
VERTEX
  8
0
  10
7360.942637
  20
702.224660
  42
0.035833
  0
VERTEX
  8
0
  10
7362.939816
  20
703.234164
  42
0.025522
  0
VERTEX
  8
0
  10
7365.547676
  20
704.982835
  42
0.023988
  0
VERTEX
  8
0
  10
7368.678863
  20
707.565424
  42
0.016491
  0
VERTEX
  8
0
  10
7372.913439
  20
711.676686
  42
0.014215
  0
VERTEX
  8
0
  10
7377.576589
  20
716.796557
  42
0.010576
  0
VERTEX
  8
0
  10
7383.494539
  20
723.979084
  42
0.007631
  0
VERTEX
  8
0
  10
7388.671365
  20
730.750328
  42
0.006338
  0
VERTEX
  8
0
  10
7394.674338
  20
739.074184
  42
0.009175
  0
VERTEX
  8
0
  10
7404.930668
  20
754.268097
  42
0.008288
  0
VERTEX
  8
0
  10
7415.690435
  20
771.474384
  42
0.003925
  0
VERTEX
  8
0
  10
7420.185738
  20
779.069440
  42
0.004543
  0
VERTEX
  8
0
  10
7423.957637
  20
785.695784
  42
0.005641
  0
VERTEX
  8
0
  10
7427.470027
  20
792.169353
  42
0.008472
  0
VERTEX
  8
0
  10
7429.686336
  20
796.544381
  42
-0.094548
  0
VERTEX
  8
0
  10
7430.926952
  20
797.572689
  42
-0.070618
  0
VERTEX
  8
0
  10
7432.936211
  20
798.334857
  42
-0.049755
  0
VERTEX
  8
0
  10
7434.863928
  20
798.571466
  42
-0.052133
  0
VERTEX
  8
0
  10
7436.711834
  20
798.420584
  42
-0.074036
  0
VERTEX
  8
0
  10
7438.915099
  20
797.657489
  42
-0.086751
  0
VERTEX
  8
0
  10
7440.497273
  20
796.443970
  42
-0.091797
  0
VERTEX
  8
0
  10
7441.578461
  20
794.720813
  42
-0.080524
  0
VERTEX
  8
0
  10
7442.075835
  20
792.460283
  42
-0.014335
  0
VERTEX
  8
0
  10
7441.552336
  20
790.144901
  42
-0.012123
  0
VERTEX
  8
0
  10
7440.789436
  20
787.443807
  42
-0.008375
  0
VERTEX
  8
0
  10
7440.072422
  20
785.252775
  42
-0.006715
  0
VERTEX
  8
0
  10
7439.096235
  20
782.548682
  42
-0.012046
  0
VERTEX
  8
0
  10
7436.902315
  20
777.118612
  42
-0.009593
  0
VERTEX
  8
0
  10
7433.855238
  20
770.426183
  0
VERTEX
  8
0
  10
7433.625837
  20
769.948384
  0
VERTEX
  8
0
  10
7433.594835
  20
769.883882
  0
VERTEX
  8
0
  10
7433.489636
  20
769.665982
  0
VERTEX
  8
0
  10
7433.468135
  20
769.621683
  42
-0.010313
  0
VERTEX
  8
0
  10
7428.921949
  20
760.663867
  42
-0.008865
  0
VERTEX
  8
0
  10
7423.237816
  20
750.453978
  42
-0.008198
  0
VERTEX
  8
0
  10
7417.214032
  20
740.452939
  42
-0.008131
  0
VERTEX
  8
0
  10
7410.814536
  20
730.573071
  42
-0.008891
  0
VERTEX
  8
0
  10
7403.877584
  20
720.622847
  42
-0.010043
  0
VERTEX
  8
0
  10
7397.407555
  20
712.053170
  42
-0.012849
  0
VERTEX
  8
0
  10
7390.174768
  20
703.333679
  42
-0.016710
  0
VERTEX
  8
0
  10
7384.226136
  20
696.968485
  42
-0.007190
  0
VERTEX
  8
0
  10
7382.064776
  20
694.848437
  42
-0.007923
  0
VERTEX
  8
0
  10
7380.046136
  20
692.984685
  42
-0.023160
  0
VERTEX
  8
0
  10
7378.607249
  20
691.813024
  42
-0.022212
  0
VERTEX
  8
0
  10
7377.002539
  20
690.732386
  42
-0.043651
  0
VERTEX
  8
0
  10
7373.365207
  20
688.895299
  42
-0.038209
  0
VERTEX
  8
0
  10
7368.925489
  20
687.502145
  42
-0.032264
  0
VERTEX
  8
0
  10
7364.473620
  20
686.769190
  42
-0.028646
  0
VERTEX
  8
0
  10
7359.397500
  20
686.558946
  42
-0.025552
  0
VERTEX
  8
0
  10
7354.404271
  20
686.893864
  42
-0.023812
  0
VERTEX
  8
0
  10
7349.108206
  20
687.779441
  42
-0.022907
  0
VERTEX
  8
0
  10
7343.894173
  20
689.161480
  42
-0.022551
  0
VERTEX
  8
0
  10
7338.747240
  20
691.040283
  42
-0.001205
  0
VERTEX
  8
0
  10
7338.513977
  20
691.137734
  42
-0.001079
  0
VERTEX
  8
0
  10
7338.254138
  20
691.247685
  42
-0.000606
  0
VERTEX
  8
0
  10
7337.911436
  20
691.394711
  42
-0.001531
  0
VERTEX
  8
0
  10
7337.776039
  20
691.453485
  0
SEQEND
  0
POLYLINE
  8
0
  66
1
  70
1
  62
7
  0
VERTEX
  8
0
  10
7026.209144
  20
837.164981
  0
VERTEX
  8
0
  10
7069.970743
  20
836.151881
  0
VERTEX
  8
0
  10
7069.970743
  20
836.154283
  42
0.032251
  0
VERTEX
  8
0
  10
7069.681342
  20
839.314904
  42
0.040538
  0
VERTEX
  8
0
  10
7069.088569
  20
841.770969
  42
0.054764
  0
VERTEX
  8
0
  10
7067.933786
  20
844.307147
  42
0.061378
  0
VERTEX
  8
0
  10
7066.409543
  20
846.273982
  0
VERTEX
  8
0
  10
7066.392842
  20
846.290580
  42
0.007395
  0
VERTEX
  8
0
  10
7066.217997
  20
846.460761
  42
0.006796
  0
VERTEX
  8
0
  10
7066.022546
  20
846.640482
  42
0.003992
  0
VERTEX
  8
0
  10
7065.906848
  20
846.742830
  42
0.003810
  0
VERTEX
  8
0
  10
7065.783944
  20
846.848180
  0
VERTEX
  8
0
  10
7065.708044
  20
846.911582
  42
0.035192
  0
VERTEX
  8
0
  10
7064.515597
  20
847.764321
  42
0.032805
  0
VERTEX
  8
0
  10
7063.124445
  20
848.497180
  42
0.038287
  0
VERTEX
  8
0
  10
7061.563912
  20
849.054052
  42
0.033270
  0
VERTEX
  8
0
  10
7059.695745
  20
849.432182
  42
0.003424
  0
VERTEX
  8
0
  10
7059.367170
  20
849.472432
  42
0.004395
  0
VERTEX
  8
0
  10
7059.110744
  20
849.499782
  0
VERTEX
  8
0
  10
7058.948745
  20
849.514581
  42
0.037404
  0
VERTEX
  8
0
  10
7056.028967
  20
849.541135
  42
0.029549
  0
VERTEX
  8
0
  10
7052.363493
  20
849.081444
  42
0.023320
  0
VERTEX
  8
0
  10
7048.834370
  20
848.253363
  42
0.019363
  0
VERTEX
  8
0
  10
7044.685256
  20
846.897581
  42
0.016359
  0
VERTEX
  8
0
  10
7040.682788
  20
845.265132
  42
0.014374
  0
VERTEX
  8
0
  10
7036.250364
  20
843.130994
  42
0.012984
  0
VERTEX
  8
0
  10
7031.932538
  20
840.752855
  42
0.012000
  0
VERTEX
  8
0
  10
7027.395144
  20
837.949682
  0
VERTEX
  8
0
  10
7027.247146
  20
837.852880
  42
0.001597
  0
VERTEX
  8
0
  10
7026.818536
  20
837.570800
  42
0.001119
  0
VERTEX
  8
0
  10
7026.209144
  20
837.164981
  0
SEQEND
  0
POLYLINE
  8
0
  66
1
  70
1
  62
7
  0
VERTEX
  8
0
  10
7199.577740
  20
881.949279
  42
0.018643
  0
VERTEX
  8
0
  10
7204.172729
  20
881.637534
  42
0.018679
  0
VERTEX
  8
0
  10
7208.769341
  20
881.669229
  42
0.019960
  0
VERTEX
  8
0
  10
7213.495032
  20
882.067901
  42
0.021232
  0
VERTEX
  8
0
  10
7217.891940
  20
882.806981
  42
0.021380
  0
VERTEX
  8
0
  10
7221.723748
  20
883.792507
  42
0.024752
  0
VERTEX
  8
0
  10
7224.941653
  20
884.945255
  42
0.037702
  0
VERTEX
  8
0
  10
7228.637420
  20
886.817231
  42
0.048749
  0
VERTEX
  8
0
  10
7231.206641
  20
888.736681
  42
0.047023
  0
VERTEX
  8
0
  10
7233.242228
  20
890.751764
  42
0.047869
  0
VERTEX
  8
0
  10
7234.832966
  20
893.072855
  42
0.054849
  0
VERTEX
  8
0
  10
7235.974926
  20
895.807593
  42
0.060152
  0
VERTEX
  8
0
  10
7236.421240
  20
898.474480
  42
0.068865
  0
VERTEX
  8
0
  10
7236.165452
  20
901.250890
  42
0.070999
  0
VERTEX
  8
0
  10
7235.184341
  20
903.771879
  42
0.072825
  0
VERTEX
  8
0
  10
7233.373783
  20
906.112965
  42
0.061435
  0
VERTEX
  8
0
  10
7230.573341
  20
908.217179
  42
0.044833
  0
VERTEX
  8
0
  10
7226.047683
  20
910.615382
  42
0.041161
  0
VERTEX
  8
0
  10
7220.745841
  20
912.345379
  42
0.035783
  0
VERTEX
  8
0
  10
7215.563743
  20
913.190154
  42
0.034373
  0
VERTEX
  8
0
  10
7210.099640
  20
913.306782
  42
0.032643
  0
VERTEX
  8
0
  10
7204.948372
  20
912.724071
  42
0.033992
  0
VERTEX
  8
0
  10
7200.119191
  20
911.512244
  42
0.041174
  0
VERTEX
  8
0
  10
7195.134914
  20
909.427686
  42
0.046909
  0
VERTEX
  8
0
  10
7191.146143
  20
906.858780
  42
0.070809
  0
VERTEX
  8
0
  10
7188.453510
  20
903.686789
  42
0.072759
  0
VERTEX
  8
0
  10
7186.812304
  20
899.983844
  42
0.073623
  0
VERTEX
  8
0
  10
7186.305695
  20
895.950641
  42
0.072239
  0
VERTEX
  8
0
  10
7186.991140
  20
891.865781
  42
0.074596
  0
VERTEX
  8
0
  10
7188.883396
  20
888.040723
  42
0.076086
  0
VERTEX
  8
0
  10
7191.767003
  20
885.007969
  42
0.071491
  0
VERTEX
  8
0
  10
7195.336126
  20
882.983417
  42
0.067152
  0
VERTEX
  8
0
  10
7199.577740
  20
881.949279
  0
SEQEND
  0
POLYLINE
  8
0
  66
1
  70
1
  62
7
  0
VERTEX
  8
0
  10
6707.381553
  20
771.168783
  42
-0.008904
  0
VERTEX
  8
0
  10
6699.713823
  20
753.063837
  42
-0.009152
  0
VERTEX
  8
0
  10
6691.622451
  20
735.729582
  42
-0.005475
  0
VERTEX
  8
0
  10
6686.975059
  20
726.488872
  42
-0.005995
  0
VERTEX
  8
0
  10
6682.538554
  20
718.149685
  42
-0.007170
  0
VERTEX
  8
0
  10
6677.576074
  20
709.386178
  42
-0.008231
  0
VERTEX
  8
0
  10
6673.020352
  20
701.889283
  42
-0.010340
  0
VERTEX
  8
0
  10
6667.876023
  20
694.091381
  42
-0.012525
  0
VERTEX
  8
0
  10
6663.339153
  20
687.854485
  42
-0.016650
  0
VERTEX
  8
0
  10
6658.144188
  20
681.524438
  42
-0.021542
  0
VERTEX
  8
0
  10
6653.766553
  20
676.951683
  42
-0.026115
  0
VERTEX
  8
0
  10
6649.346962
  20
673.138413
  42
-0.034788
  0
VERTEX
  8
0
  10
6645.704054
  20
670.698660
  42
-0.028011
  0
VERTEX
  8
0
  10
6643.189244
  20
669.438373
  42
-0.033380
  0
VERTEX
  8
0
  10
6640.964616
  20
668.646879
  42
-0.044373
  0
VERTEX
  8
0
  10
6638.367781
  20
668.157149
  42
-0.050432
  0
VERTEX
  8
0
  10
6636.041354
  20
668.164285
  42
-0.059899
  0
VERTEX
  8
0
  10
6633.154253
  20
668.753847
  42
-0.061516
  0
VERTEX
  8
0
  10
6630.562704
  20
669.986485
  42
-0.054067
  0
VERTEX
  8
0
  10
6628.439420
  20
671.685579
  42
-0.047295
  0
VERTEX
  8
0
  10
6626.453853
  20
674.074887
  42
-0.039391
  0
VERTEX
  8
0
  10
6624.915606
  20
676.760739
  42
-0.033402
  0
VERTEX
  8
0
  10
6623.580590
  20
680.156298
  42
-0.024960
  0
VERTEX
  8
0
  10
6622.767715
  20
683.237868
  42
-0.022290
  0
VERTEX
  8
0
  10
6622.187154
  20
686.758584
  42
-0.040732
  0
VERTEX
  8
0
  10
6621.910376
  20
694.146381
  42
-0.039743
  0
VERTEX
  8
0
  10
6622.843056
  20
701.665184
  42
-0.020609
  0
VERTEX
  8
0
  10
6623.711404
  20
705.151900
  42
-0.022745
  0
VERTEX
  8
0
  10
6624.768892
  20
708.231472
  42
-0.029810
  0
VERTEX
  8
0
  10
6626.328486
  20
711.580202
  42
-0.035016
  0
VERTEX
  8
0
  10
6628.014055
  20
714.236385
  42
-0.022919
  0
VERTEX
  8
0
  10
6635.608576
  20
723.602814
  42
-0.021826
  0
VERTEX
  8
0
  10
6644.429873
  20
732.685853
  42
-0.019472
  0
VERTEX
  8
0
  10
6653.451765
  20
740.557770
  42
-0.018293
  0
VERTEX
  8
0
  10
6663.659204
  20
748.188009
  42
-0.016140
  0
VERTEX
  8
0
  10
6673.744179
  20
754.695658
  42
-0.015139
  0
VERTEX
  8
0
  10
6684.907835
  20
760.947453
  42
-0.013344
  0
VERTEX
  8
0
  10
6695.693825
  20
766.204793
  42
-0.012609
  0
VERTEX
  8
0
  10
6707.381553
  20
771.168783
  0
SEQEND
  0
POLYLINE
  8
0
  66
1
  70
1
  62
7
  0
VERTEX
  8
0
  10
7069.979746
  20
835.292782
  0
VERTEX
  8
0
  10
7026.209144
  20
837.164981
  0
VERTEX
  8
0
  10
7025.980445
  20
837.011381
  42
0.000886
  0
VERTEX
  8
0
  10
7025.714066
  20
836.831203
  42
0.000677
  0
VERTEX
  8
0
  10
7025.366146
  20
836.594282
  0
VERTEX
  8
0
  10
7025.207745
  20
836.486081
  42
0.027818
  0
VERTEX
  8
0
  10
7014.140780
  20
827.962450
  42
0.027856
  0
VERTEX
  8
0
  10
7004.102895
  20
818.275369
  42
0.015540
  0
VERTEX
  8
0
  10
6999.324353
  20
812.787401
  42
0.016521
  0
VERTEX
  8
0
  10
6995.169628
  20
807.348033
  42
0.018707
  0
VERTEX
  8
0
  10
6991.230347
  20
801.359482
  42
0.020447
  0
VERTEX
  8
0
  10
6988.065647
  20
795.614981
  42
0.016635
  0
VERTEX
  8
0
  10
6978.845909
  20
776.592240
  42
0.018857
  0
VERTEX
  8
0
  10
6971.922445
  20
759.274782
  42
0.009808
  0
VERTEX
  8
0
  10
6969.209896
  20
751.170952
  42
0.010852
  0
VERTEX
  8
0
  10
6967.062846
  20
743.751385
  42
0.011635
  0
VERTEX
  8
0
  10
6965.339515
  20
736.607322
  42
0.013435
  0
VERTEX
  8
0
  10
6964.158945
  20
730.352984
  42
0.015294
  0
VERTEX
  8
0
  10
6963.373251
  20
724.300659
  42
0.018822
  0
VERTEX
  8
0
  10
6963.071547
  20
719.350086
  42
0.023454
  0
VERTEX
  8
0
  10
6963.185337
  20
714.544996
  42
0.031657
  0
VERTEX
  8
0
  10
6963.660848
  20
711.014183
  42
0.036510
  0
VERTEX
  8
0
  10
6964.445960
  20
708.179204
  42
0.050296
  0
VERTEX
  8
0
  10
6965.363659
  20
706.248273
  42
0.042473
  0
VERTEX
  8
0
  10
6966.166355
  20
705.145188
  42
0.051234
  0
VERTEX
  8
0
  10
6966.991084
  20
704.369978
  42
0.065963
  0
VERTEX
  8
0
  10
6968.089133
  20
703.740776
  42
0.066987
  0
VERTEX
  8
0
  10
6969.295245
  20
703.426586
  42
0.041715
  0
VERTEX
  8
0
  10
6970.458462
  20
703.310805
  42
0.036493
  0
VERTEX
  8
0
  10
6971.791986
  20
703.387065
  42
0.029073
  0
VERTEX
  8
0
  10
6973.021341
  20
703.621211
  42
0.024636
  0
VERTEX
  8
0
  10
6974.433792
  20
704.051335
  42
0.034632
  0
VERTEX
  8
0
  10
6976.825552
  20
705.102548
  42
0.025977
  0
VERTEX
  8
0
  10
6979.819821
  20
706.878235
  42
0.026540
  0
VERTEX
  8
0
  10
6983.663068
  20
709.741422
  42
0.018897
  0
VERTEX
  8
0
  10
6988.672047
  20
714.234385
  42
0.016181
  0
VERTEX
  8
0
  10
6994.054448
  20
719.790656
  42
0.012356
  0
VERTEX
  8
0
  10
7000.676045
  20
727.456584
  42
0.009292
  0
VERTEX
  8
0
  10
7006.537409
  20
734.868245
  42
0.007897
  0
VERTEX
  8
0
  10
7013.130444
  20
743.821182
  42
0.006597
  0
VERTEX
  8
0
  10
7019.080364
  20
752.411653
  42
0.006157
  0
VERTEX
  8
0
  10
7025.218544
  20
761.775482
  42
0.005754
  0
VERTEX
  8
0
  10
7030.867040
  20
770.856756
  42
0.005949
  0
VERTEX
  8
0
  10
7036.123945
  20
779.766884
  42
0.006393
  0
VERTEX
  8
0
  10
7041.054312
  20
788.615192
  42
0.007529
  0
VERTEX
  8
0
  10
7045.030346
  20
796.242781
  42
0.009762
  0
VERTEX
  8
0
  10
7048.771041
  20
804.067615
  42
0.013978
  0
VERTEX
  8
0
  10
7051.121446
  20
809.650781
  42
-0.037959
  0
VERTEX
  8
0
  10
7051.582368
  20
810.529792
  42
-0.044016
  0
VERTEX
  8
0
  10
7052.098450
  20
811.213184
  42
-0.046628
  0
VERTEX
  8
0
  10
7052.706681
  20
811.771713
  42
-0.047593
  0
VERTEX
  8
0
  10
7053.394533
  20
812.197731
  42
-0.081303
  0
VERTEX
  8
0
  10
7054.823986
  20
812.635466
  42
-0.060985
  0
VERTEX
  8
0
  10
7056.811144
  20
812.661482
  42
-0.040784
  0
VERTEX
  8
0
  10
7058.784017
  20
812.281530
  42
-0.028396
  0
VERTEX
  8
0
  10
7061.512957
  20
811.351196
  42
-0.014889
  0
VERTEX
  8
0
  10
7063.371084
  20
810.532280
  42
-0.010450
  0
VERTEX
  8
0
  10
7065.955645
  20
809.233081
  42
-0.036296
  0
VERTEX
  8
0
  10
7065.955201
  20
810.611502
  42
-0.021108
  0
VERTEX
  8
0
  10
7066.225643
  20
812.964182
  42
-0.009954
  0
VERTEX
  8
0
  10
7066.535842
  20
814.703610
  42
-0.005388
  0
VERTEX
  8
0
  10
7067.207244
  20
817.898083
  42
0.000397
  0
VERTEX
  8
0
  10
7068.326661
  20
822.971532
  42
0.002711
  0
VERTEX
  8
0
  10
7068.485756
  20
823.714506
  42
0.007344
  0
VERTEX
  8
0
  10
7069.127105
  20
827.034317
  42
0.009648
  0
VERTEX
  8
0
  10
7069.529143
  20
829.576382
  42
0.013771
  0
VERTEX
  8
0
  10
7069.861514
  20
832.584838
  42
0.017286
  0
VERTEX
  8
0
  10
7069.977043
  20
834.993683
  42
0.000743
  0
VERTEX
  8
0
  10
7069.978849
  20
835.165294
  42
0.001000
  0
VERTEX
  8
0
  10
7069.979746
  20
835.292782
  0
VERTEX
  8
0
  10
7069.979643
  20
835.537183
  42
-0.000815
  0
VERTEX
  8
0
  10
7069.979922
  20
835.401077
  42
-0.001024
  0
VERTEX
  8
0
  10
7069.979746
  20
835.292782
  0
SEQEND
  0
POLYLINE
  8
0
  66
1
  70
1
  62
7
  0
VERTEX
  8
0
  10
7851.348827
  20
770.814884
  42
-0.022271
  0
VERTEX
  8
0
  10
7856.457687
  20
785.096689
  42
-0.020781
  0
VERTEX
  8
0
  10
7863.228427
  20
799.874582
  42
-0.020288
  0
VERTEX
  8
0
  10
7870.853915
  20
813.450943
  42
-0.023173
  0
VERTEX
  8
0
  10
7878.537628
  20
824.714282
  42
-0.013815
  0
VERTEX
  8
0
  10
7882.720819
  20
829.965666
  42
-0.016318
  0
VERTEX
  8
0
  10
7886.524125
  20
834.190683
  42
-0.020488
  0
VERTEX
  8
0
  10
7890.699787
  20
838.193577
  42
-0.026337
  0
VERTEX
  8
0
  10
7894.225927
  20
840.990881
  42
-0.031138
  0
VERTEX
  8
0
  10
7897.639863
  20
843.111029
  42
-0.041409
  0
VERTEX
  8
0
  10
7900.412514
  20
844.318457
  42
-0.033213
  0
VERTEX
  8
0
  10
7902.260467
  20
844.813100
  42
-0.039414
  0
VERTEX
  8
0
  10
7903.862352
  20
845.000326
  42
-0.051275
  0
VERTEX
  8
0
  10
7905.657733
  20
844.883650
  42
-0.055799
  0
VERTEX
  8
0
  10
7907.247925
  20
844.428382
  42
-0.034340
  0
VERTEX
  8
0
  10
7909.249979
  20
843.328515
  42
-0.040239
  0
VERTEX
  8
0
  10
7910.800871
  20
842.145976
  42
-0.045082
  0
VERTEX
  8
0
  10
7912.115043
  20
840.731945
  42
-0.048025
  0
VERTEX
  8
0
  10
7913.082089
  20
839.198807
  42
-0.047585
  0
VERTEX
  8
0
  10
7913.737611
  20
837.517003
  42
-0.044315
  0
VERTEX
  8
0
  10
7914.099725
  20
835.613501
  42
-0.039024
  0
VERTEX
  8
0
  10
7914.141262
  20
833.673513
  42
-0.033285
  0
VERTEX
  8
0
  10
7913.861926
  20
831.416682
  42
-0.030014
  0
VERTEX
  8
0
  10
7913.242676
  20
828.988577
  42
-0.024874
  0
VERTEX
  8
0
  10
7912.179386
  20
826.159059
  42
-0.018631
  0
VERTEX
  8
0
  10
7911.009457
  20
823.715038
  42
-0.015859
  0
VERTEX
  8
0
  10
7909.440602
  20
820.945694
  42
-0.020923
  0
VERTEX
  8
0
  10
7906.606195
  20
816.703115
  42
-0.016769
  0
VERTEX
  8
0
  10
7902.681827
  20
811.691882
  42
-0.015334
  0
VERTEX
  8
0
  10
7898.061637
  20
806.514375
  42
-0.013101
  0
VERTEX
  8
0
  10
7892.318327
  20
800.771583
  42
-0.011389
  0
VERTEX
  8
0
  10
7886.425358
  20
795.429864
  42
-0.010506
  0
VERTEX
  8
0
  10
7879.790225
  20
789.924781
  42
-0.019993
  0
VERTEX
  8
0
  10
7865.627307
  20
779.563648
  42
-0.020952
  0
VERTEX
  8
0
  10
7851.348827
  20
770.814884
  0
SEQEND
  0
POLYLINE
  8
0
  66
1
  70
1
  62
7
  0
VERTEX
  8
0
  10
8094.001322
  20
835.292782
  0
VERTEX
  8
0
  10
8050.223421
  20
837.160183
  0
VERTEX
  8
0
  10
8050.002021
  20
837.011381
  42
0.000907
  0
VERTEX
  8
0
  10
8049.762587
  20
836.849465
  42
0.000592
  0
VERTEX
  8
0
  10
8049.396623
  20
836.600381
  0
VERTEX
  8
0
  10
8049.224023
  20
836.482381
  42
0.027813
  0
VERTEX
  8
0
  10
8038.158322
  20
827.958847
  42
0.027853
  0
VERTEX
  8
0
  10
8028.122173
  20
818.272807
  42
0.015538
  0
VERTEX
  8
0
  10
8023.344341
  20
812.785391
  42
0.016520
  0
VERTEX
  8
0
  10
8019.190264
  20
807.346653
  42
0.018706
  0
VERTEX
  8
0
  10
8015.251574
  20
801.358806
  42
0.020446
  0
VERTEX
  8
0
  10
8012.087322
  20
795.614981
  42
0.016635
  0
VERTEX
  8
0
  10
8002.867675
  20
776.592482
  42
0.018856
  0
VERTEX
  8
0
  10
7995.944024
  20
759.274782
  42
0.009808
  0
VERTEX
  8
0
  10
7993.231479
  20
751.170974
  42
0.010852
  0
VERTEX
  8
0
  10
7991.084422
  20
743.751385
  42
0.011637
  0
VERTEX
  8
0
  10
7989.361332
  20
736.608196
  42
0.013434
  0
VERTEX
  8
0
  10
7988.180624
  20
730.352984
  42
0.015299
  0
VERTEX
  8
0
  10
7987.394880
  20
724.301145
  42
0.018825
  0
VERTEX
  8
0
  10
7987.093123
  20
719.350086
  42
0.023457
  0
VERTEX
  8
0
  10
7987.206945
  20
714.544871
  42
0.031662
  0
VERTEX
  8
0
  10
7987.682523
  20
711.014183
  42
0.036516
  0
VERTEX
  8
0
  10
7988.467546
  20
708.179318
  42
0.050300
  0
VERTEX
  8
0
  10
7989.385298
  20
706.248273
  42
0.042473
  0
VERTEX
  8
0
  10
7990.188004
  20
705.145192
  42
0.051234
  0
VERTEX
  8
0
  10
7991.012748
  20
704.369978
  42
0.065962
  0
VERTEX
  8
0
  10
7992.110808
  20
703.740775
  42
0.066987
  0
VERTEX
  8
0
  10
7993.316923
  20
703.426586
  42
0.041715
  0
VERTEX
  8
0
  10
7994.480121
  20
703.310805
  42
0.036493
  0
VERTEX
  8
0
  10
7995.813631
  20
703.387065
  42
0.029074
  0
VERTEX
  8
0
  10
7997.042972
  20
703.621210
  42
0.024636
  0
VERTEX
  8
0
  10
7998.455414
  20
704.051335
  42
0.034632
  0
VERTEX
  8
0
  10
8000.847154
  20
705.102544
  42
0.025977
  0
VERTEX
  8
0
  10
8003.841423
  20
706.878235
  42
0.026539
  0
VERTEX
  8
0
  10
8007.684559
  20
709.741327
  42
0.018895
  0
VERTEX
  8
0
  10
8012.693722
  20
714.234385
  42
0.016180
  0
VERTEX
  8
0
  10
8018.076157
  20
719.790775
  42
0.012355
  0
VERTEX
  8
0
  10
8024.697624
  20
727.456584
  42
0.009292
  0
VERTEX
  8
0
  10
8030.559021
  20
734.868289
  42
0.007897
  0
VERTEX
  8
0
  10
8037.152024
  20
743.821182
  42
0.006597
  0
VERTEX
  8
0
  10
8043.101989
  20
752.411721
  42
0.006157
  0
VERTEX
  8
0
  10
8049.240123
  20
761.775482
  42
0.005754
  0
VERTEX
  8
0
  10
8054.888633
  20
770.856784
  42
0.005949
  0
VERTEX
  8
0
  10
8060.145521
  20
779.766884
  42
0.006393
  0
VERTEX
  8
0
  10
8065.075926
  20
788.615260
  42
0.007529
  0
VERTEX
  8
0
  10
8069.051922
  20
796.242781
  42
0.009762
  0
VERTEX
  8
0
  10
8072.792617
  20
804.067615
  42
0.013978
  0
VERTEX
  8
0
  10
8075.143022
  20
809.650781
  42
-0.037959
  0
VERTEX
  8
0
  10
8075.603944
  20
810.529792
  42
-0.044016
  0
VERTEX
  8
0
  10
8076.120026
  20
811.213184
  42
-0.046628
  0
VERTEX
  8
0
  10
8076.728257
  20
811.771713
  42
-0.047593
  0
VERTEX
  8
0
  10
8077.416109
  20
812.197731
  42
-0.081303
  0
VERTEX
  8
0
  10
8078.845562
  20
812.635466
  42
-0.060985
  0
VERTEX
  8
0
  10
8080.832720
  20
812.661482
  42
-0.040784
  0
VERTEX
  8
0
  10
8082.805594
  20
812.281530
  42
-0.028396
  0
VERTEX
  8
0
  10
8085.534533
  20
811.351196
  42
-0.014889
  0
VERTEX
  8
0
  10
8087.392660
  20
810.532280
  42
-0.010450
  0
VERTEX
  8
0
  10
8089.977221
  20
809.233081
  42
-0.036296
  0
VERTEX
  8
0
  10
8089.976778
  20
810.611487
  42
-0.021108
  0
VERTEX
  8
0
  10
8090.247223
  20
812.964182
  42
-0.009944
  0
VERTEX
  8
0
  10
8090.557508
  20
814.703702
  42
-0.005383
  0
VERTEX
  8
0
  10
8091.228922
  20
817.898083
  42
0.000392
  0
VERTEX
  8
0
  10
8092.349609
  20
822.977678
  42
0.002709
  0
VERTEX
  8
0
  10
8092.507385
  20
823.714506
  42
0.007346
  0
VERTEX
  8
0
  10
8093.148760
  20
827.034527
  42
0.009652
  0
VERTEX
  8
0
  10
8093.550722
  20
829.576382
  42
0.013771
  0
VERTEX
  8
0
  10
8093.883092
  20
832.584850
  42
0.017285
  0
VERTEX
  8
0
  10
8093.998623
  20
834.993683
  42
0.000746
  0
VERTEX
  8
0
  10
8094.000422
  20
835.164788
  42
0.000997
  0
VERTEX
  8
0
  10
8094.001322
  20
835.292782
  0
VERTEX
  8
0
  10
8094.001223
  20
835.537183
  42
-0.000820
  0
VERTEX
  8
0
  10
8094.001500
  20
835.401642
  42
-0.001021
  0
VERTEX
  8
0
  10
8094.001322
  20
835.292782
  0
SEQEND
  0
POLYLINE
  8
0
  66
1
  70
1
  62
7
  0
VERTEX
  8
0
  10
8581.531112
  20
662.659587
  42
-0.018839
  0
VERTEX
  8
0
  10
8574.998440
  20
648.808471
  42
-0.018998
  0
VERTEX
  8
0
  10
8567.500812
  20
635.602485
  42
-0.018570
  0
VERTEX
  8
0
  10
8560.142235
  20
625.211384
  42
-0.022639
  0
VERTEX
  8
0
  10
8553.423899
  20
617.212224
  42
-0.015549
  0
VERTEX
  8
0
  10
8549.095974
  20
612.792953
  42
-0.017380
  0
VERTEX
  8
0
  10
8544.971998
  20
609.102422
  42
-0.021237
  0
VERTEX
  8
0
  10
8540.177878
  20
605.436965
  42
-0.023712
  0
VERTEX
  8
0
  10
8535.606213
  20
602.552386
  42
-0.032057
  0
VERTEX
  8
0
  10
8529.762238
  20
599.719511
  42
-0.033849
  0
VERTEX
  8
0
  10
8523.922411
  20
597.786785
  42
-0.011318
  0
VERTEX
  8
0
  10
8521.839209
  20
597.300568
  42
-0.009809
  0
VERTEX
  8
0
  10
8519.414013
  20
596.841588
  42
-0.002522
  0
VERTEX
  8
0
  10
8518.834088
  20
596.746546
  42
-0.001242
  0
VERTEX
  8
0
  10
8517.654688
  20
596.562362
  42
0.001321
  0
VERTEX
  8
0
  10
8516.487511
  20
596.379898
  42
0.002603
  0
VERTEX
  8
0
  10
8515.896113
  20
596.282686
  42
-0.046057
  0
VERTEX
  8
0
  10
8514.134771
  20
596.180483
  42
-0.028372
  0
VERTEX
  8
0
  10
8511.286313
  20
596.439887
  42
-0.025052
  0
VERTEX
  8
0
  10
8508.273600
  20
597.043300
  42
-0.024479
  0
VERTEX
  8
0
  10
8505.266513
  20
597.962688
  42
-0.029787
  0
VERTEX
  8
0
  10
8502.142764
  20
599.302658
  42
-0.035661
  0
VERTEX
  8
0
  10
8499.700913
  20
600.753363
  42
-0.025390
  0
VERTEX
  8
0
  10
8498.372382
  20
601.780468
  42
-0.029094
  0
VERTEX
  8
0
  10
8497.317123
  20
602.797741
  42
-0.036690
  0
VERTEX
  8
0
  10
8496.313888
  20
604.058325
  42
-0.041073
  0
VERTEX
  8
0
  10
8495.602614
  20
605.309987
  42
-0.059597
  0
VERTEX
  8
0
  10
8495.012569
  20
607.117207
  42
-0.059870
  0
VERTEX
  8
0
  10
8494.867118
  20
609.004124
  42
-0.048738
  0
VERTEX
  8
0
  10
8495.105175
  20
610.692616
  42
-0.041792
  0
VERTEX
  8
0
  10
8495.732225
  20
612.578487
  42
-0.052148
  0
VERTEX
  8
0
  10
8497.279068
  20
615.352096
  42
-0.037648
  0
VERTEX
  8
0
  10
8500.069412
  20
618.745387
  42
-0.020887
  0
VERTEX
  8
0
  10
8502.496796
  20
621.078239
  42
-0.017330
  0
VERTEX
  8
0
  10
8505.628100
  20
623.657987
  42
-0.011847
  0
VERTEX
  8
0
  10
8508.316953
  20
625.621649
  42
-0.009624
  0
VERTEX
  8
0
  10
8511.727314
  20
627.894386
  42
-0.010680
  0
VERTEX
  8
0
  10
8516.280130
  20
630.668392
  42
-0.009317
  0
VERTEX
  8
0
  10
8521.622037
  20
633.637061
  42
-0.006826
  0
VERTEX
  8
0
  10
8526.236942
  20
636.010082
  42
-0.005663
  0
VERTEX
  8
0
  10
8531.869411
  20
638.730685
  42
-0.003451
  0
VERTEX
  8
0
  10
8536.747253
  20
641.147511
  42
-0.002588
  0
VERTEX
  8
0
  10
8543.289611
  20
644.291222
  42
-0.000650
  0
VERTEX
  8
0
  10
8545.595848
  20
645.381077
  42
-0.000436
  0
VERTEX
  8
0
  10
8549.037502
  20
646.998352
  0
VERTEX
  8
0
  10
8554.786610
  20
649.693586
  42
0.001065
  0
VERTEX
  8
0
  10
8562.701571
  20
653.432742
  42
0.001527
  0
VERTEX
  8
0
  10
8568.210499
  20
656.070274
  42
0.002449
  0
VERTEX
  8
0
  10
8575.460011
  20
659.612296
  42
0.002909
  0
VERTEX
  8
0
  10
8581.531112
  20
662.659587
  0
SEQEND
  0
POLYLINE
  8
0
  66
1
  70
1
  62
7
  0
VERTEX
  8
0
  10
5810.948057
  20
703.429542
  0
VERTEX
  8
0
  10
5810.948057
  20
803.634180
  0
VERTEX
  8
0
  10
5822.134960
  20
803.634180
  0
VERTEX
  8
0
  10
5822.134960
  20
794.220811
  42
-0.024045
  0
VERTEX
  8
0
  10
5824.235735
  20
796.875194
  42
-0.026877
  0
VERTEX
  8
0
  10
5826.347102
  20
799.046868
  42
-0.029512
  0
VERTEX
  8
0
  10
5828.685997
  20
800.964416
  42
-0.031625
  0
VERTEX
  8
0
  10
5831.070840
  20
802.474562
  42
-0.036989
  0
VERTEX
  8
0
  10
5833.637010
  20
803.675758
  42
-0.034070
  0
VERTEX
  8
0
  10
5836.579026
  20
804.572107
  42
-0.030392
  0
VERTEX
  8
0
  10
5839.618841
  20
805.084087
  42
-0.026530
  0
VERTEX
  8
0
  10
5843.144510
  20
805.271288
  42
-0.033982
  0
VERTEX
  8
0
  10
5847.738328
  20
804.958711
  42
-0.036996
  0
VERTEX
  8
0
  10
5851.875752
  20
804.077564
  42
-0.038655
  0
VERTEX
  8
0
  10
5855.828491
  20
802.584932
  42
-0.038542
  0
VERTEX
  8
0
  10
5859.515588
  20
800.496390
  42
-0.038665
  0
VERTEX
  8
0
  10
5862.837824
  20
797.865855
  42
-0.038362
  0
VERTEX
  8
0
  10
5865.740008
  20
794.732407
  42
-0.036356
  0
VERTEX
  8
0
  10
5868.147021
  20
791.196932
  42
-0.033134
  0
VERTEX
  8
0
  10
5870.225001
  20
786.990251
  42
-0.026367
  0
VERTEX
  8
0
  10
5871.795431
  20
782.587553
  42
-0.025550
  0
VERTEX
  8
0
  10
5872.936461
  20
777.900892
  42
-0.024272
  0
VERTEX
  8
0
  10
5873.606121
  20
773.121004
  42
-0.022669
  0
VERTEX
  8
0
  10
5873.840281
  20
767.958873
  42
-0.023723
  0
VERTEX
  8
0
  10
5873.577599
  20
762.425626
  42
-0.025799
  0
VERTEX
  8
0
  10
5872.834142
  20
757.385886
  42
-0.027545
  0
VERTEX
  8
0
  10
5871.559536
  20
752.458421
  42
-0.028750
  0
VERTEX
  8
0
  10
5869.815724
  20
747.904303
  42
-0.034163
  0
VERTEX
  8
0
  10
5867.556411
  20
743.647544
  42
-0.037078
  0
VERTEX
  8
0
  10
5864.938507
  20
740.059828
  42
-0.038604
  0
VERTEX
  8
0
  10
5861.813213
  20
736.911110
  42
-0.038359
  0
VERTEX
  8
0
  10
5858.219544
  20
734.261738
  42
-0.032520
  0
VERTEX
  8
0
  10
5854.314964
  20
732.173315
  42
-0.034861
  0
VERTEX
  8
0
  10
5850.443282
  20
730.731725
  42
-0.036009
  0
VERTEX
  8
0
  10
5846.409968
  20
729.851969
  42
-0.035708
  0
VERTEX
  8
0
  10
5842.257743
  20
729.555053
  42
-0.027671
  0
VERTEX
  8
0
  10
5839.207713
  20
729.723980
  42
-0.029945
  0
VERTEX
  8
0
  10
5836.425547
  20
730.203075
  42
-0.031565
  0
VERTEX
  8
0
  10
5833.725768
  20
731.019059
  42
-0.032262
  0
VERTEX
  8
0
  10
5831.207266
  20
732.147141
  42
-0.048966
  0
VERTEX
  8
0
  10
5826.710139
  20
735.153473
  42
-0.053338
  0
VERTEX
  8
0
  10
5823.226365
  20
738.695572
  0
VERTEX
  8
0
  10
5823.226365
  20
703.429542
  0
VERTEX
  8
0
  10
5810.948057
  20
703.429542
  0
SEQEND
  0
POLYLINE
  8
0
  66
1
  70
1
  62
7
  0
VERTEX
  8
0
  10
5822.066747
  20
767.003894
  42
0.028980
  0
VERTEX
  8
0
  10
5822.469195
  20
760.066203
  42
0.037888
  0
VERTEX
  8
0
  10
5823.482164
  20
754.844958
  42
0.022978
  0
VERTEX
  8
0
  10
5824.304957
  20
752.305388
  42
0.025901
  0
VERTEX
  8
0
  10
5825.251434
  20
750.134010
  42
0.028755
  0
VERTEX
  8
0
  10
5826.427286
  20
748.081957
  42
0.031230
  0
VERTEX
  8
0
  10
5827.728412
  20
746.335408
  42
0.048207
  0
VERTEX
  8
0
  10
5830.819449
  20
743.327652
  42
0.055496
  0
VERTEX
  8
0
  10
5833.986938
  20
741.321766
  42
0.058326
  0
VERTEX
  8
0
  10
5837.514942
  20
740.085173
  42
0.055208
  0
VERTEX
  8
0
  10
5841.439190
  20
739.650551
  42
0.055854
  0
VERTEX
  8
0
  10
5845.427830
  20
740.097511
  42
0.058715
  0
VERTEX
  8
0
  10
5849.027866
  20
741.372925
  42
0.055513
  0
VERTEX
  8
0
  10
5852.256548
  20
743.436439
  42
0.047939
  0
VERTEX
  8
0
  10
5855.422818
  20
746.540047
  42
0.031145
  0
VERTEX
  8
0
  10
5856.770842
  20
748.357300
  42
0.028664
  0
VERTEX
  8
0
  10
5857.989326
  20
750.492127
  42
0.025813
  0
VERTEX
  8
0
  10
5858.970000
  20
752.750205
  42
0.022900
  0
VERTEX
  8
0
  10
5859.822546
  20
755.390660
  42
0.037762
  0
VERTEX
  8
0
  10
5860.872198
  20
760.818311
  42
0.028894
  0
VERTEX
  8
0
  10
5861.289121
  20
768.027086
  42
0.029449
  0
VERTEX
  8
0
  10
5860.884216
  20
774.895776
  42
0.037975
  0
VERTEX
  8
0
  10
5859.856652
  20
780.134862
  42
0.022742
  0
VERTEX
  8
0
  10
5859.026108
  20
782.683161
  42
0.025387
  0
VERTEX
  8
0
  10
5858.066065
  20
784.884180
  42
0.027908
  0
VERTEX
  8
0
  10
5856.878930
  20
786.967854
  42
0.030033
  0
VERTEX
  8
0
  10
5855.559244
  20
788.763785
  42
0.047552
  0
VERTEX
  8
0
  10
5852.461946
  20
791.876504
  42
0.055855
  0
VERTEX
  8
0
  10
5849.334824
  20
793.930906
  42
0.059940
  0
VERTEX
  8
0
  10
5845.834759
  20
795.208222
  42
0.057610
  0
VERTEX
  8
0
  10
5841.984892
  20
795.653280
  42
0.061049
  0
VERTEX
  8
0
  10
5838.178520
  20
795.186789
  42
0.060826
  0
VERTEX
  8
0
  10
5834.583801
  20
793.811534
  42
0.054185
  0
VERTEX
  8
0
  10
5831.374856
  20
791.638882
  42
0.044559
  0
VERTEX
  8
0
  10
5828.069476
  20
788.286295
  42
0.028738
  0
VERTEX
  8
0
  10
5826.682693
  20
786.387512
  42
0.027052
  0
VERTEX
  8
0
  10
5825.443282
  20
784.219105
  42
0.024941
  0
VERTEX
  8
0
  10
5824.434504
  20
781.931327
  42
0.022633
  0
VERTEX
  8
0
  10
5823.567430
  20
779.316308
  42
0.038425
  0
VERTEX
  8
0
  10
5822.487735
  20
773.937474
  42
0.030331
  0
VERTEX
  8
0
  10
5822.066747
  20
767.003894
  0
SEQEND
  0
POLYLINE
  8
0
  66
1
  70
1
  62
7
  0
VERTEX
  8
0
  10
5908.765247
  20
731.192161
  0
VERTEX
  8
0
  10
5881.207266
  20
803.634180
  0
VERTEX
  8
0
  10
5894.167702
  20
803.634180
  0
VERTEX
  8
0
  10
5909.720226
  20
760.250824
  42
-0.009300
  0
VERTEX
  8
0
  10
5912.111787
  20
753.182723
  42
-0.008832
  0
VERTEX
  8
0
  10
5914.358698
  20
745.653280
  42
-0.010492
  0
VERTEX
  8
0
  10
5916.114739
  20
751.344551
  42
-0.007297
  0
VERTEX
  8
0
  10
5918.928958
  20
759.432270
  0
VERTEX
  8
0
  10
5935.027184
  20
803.634180
  0
VERTEX
  8
0
  10
5947.646556
  20
803.634180
  0
VERTEX
  8
0
  10
5920.225001
  20
731.192161
  0
VERTEX
  8
0
  10
5908.765247
  20
731.192161
  0
SEQEND
  0
POLYLINE
  8
0
  66
1
  70
1
  62
7
  0
VERTEX
  8
0
  10
6005.797989
  20
757.726950
  0
VERTEX
  8
0
  10
6017.871659
  20
756.158055
  42
-0.037471
  0
VERTEX
  8
0
  10
6016.431698
  20
750.065002
  42
-0.042997
  0
VERTEX
  8
0
  10
6014.341645
  20
745.022311
  42
-0.046834
  0
VERTEX
  8
0
  10
6011.394181
  20
740.448657
  42
-0.047698
  0
VERTEX
  8
0
  10
6007.707948
  20
736.580974
  42
-0.046641
  0
VERTEX
  8
0
  10
6003.397413
  20
733.502113
  42
-0.047280
  0
VERTEX
  8
0
  10
5998.652696
  20
731.311534
  42
-0.044709
  0
VERTEX
  8
0
  10
5993.576346
  20
730.022445
  42
-0.039852
  0
VERTEX
  8
0
  10
5987.721591
  20
729.555053
  42
-0.021350
  0
VERTEX
  8
0
  10
5984.018150
  20
729.713260
  42
-0.023286
  0
VERTEX
  8
0
  10
5980.648773
  20
730.160442
  42
-0.025041
  0
VERTEX
  8
0
  10
5977.341021
  20
730.929988
  42
-0.026450
  0
VERTEX
  8
0
  10
5974.300717
  20
731.976609
  42
-0.055018
  0
VERTEX
  8
0
  10
5968.718051
  20
734.985636
  42
-0.053510
  0
VERTEX
  8
0
  10
5963.778889
  20
739.241274
  42
-0.028836
  0
VERTEX
  8
0
  10
5961.682446
  20
741.792983
  42
-0.028058
  0
VERTEX
  8
0
  10
5959.839599
  20
744.642877
  42
-0.026649
  0
VERTEX
  8
0
  10
5958.317744
  20
747.679200
  42
-0.024793
  0
VERTEX
  8
0
  10
5957.025820
  20
751.093253
  42
-0.022691
  0
VERTEX
  8
0
  10
5956.062444
  20
754.617874
  42
-0.020520
  0
VERTEX
  8
0
  10
5955.337552
  20
758.592400
  42
-0.018409
  0
VERTEX
  8
0
  10
5954.923613
  20
762.614554
  42
-0.016437
  0
VERTEX
  8
0
  10
5954.774797
  20
767.140319
  42
-0.022039
  0
VERTEX
  8
0
  10
5955.032435
  20
772.982443
  42
-0.024757
  0
VERTEX
  8
0
  10
5955.746829
  20
778.139637
  42
-0.027435
  0
VERTEX
  8
0
  10
5956.992854
  20
783.187413
  42
-0.029809
  0
VERTEX
  8
0
  10
5958.662928
  20
787.672379
  42
-0.037684
  0
VERTEX
  8
0
  10
5960.912125
  20
791.875044
  42
-0.041043
  0
VERTEX
  8
0
  10
5963.557198
  20
795.363375
  42
-0.042471
  0
VERTEX
  8
0
  10
5966.741541
  20
798.360367
  42
-0.041534
  0
VERTEX
  8
0
  10
5970.463746
  20
800.837454
  42
-0.031747
  0
VERTEX
  8
0
  10
5974.561504
  20
802.784780
  42
-0.032417
  0
VERTEX
  8
0
  10
5978.785711
  20
804.162830
  42
-0.032021
  0
VERTEX
  8
0
  10
5983.153029
  20
804.986954
  42
-0.030632
  0
VERTEX
  8
0
  10
5987.789803
  20
805.271288
  42
-0.034765
  0
VERTEX
  8
0
  10
5993.628477
  20
804.864839
  42
-0.040641
  0
VERTEX
  8
0
  10
5998.516270
  20
803.770606
  42
-0.045495
  0
VERTEX
  8
0
  10
6003.126128
  20
801.862739
  42
-0.047889
  0
VERTEX
  8
0
  10
6007.094033
  20
799.268560
  42
-0.048531
  0
VERTEX
  8
0
  10
6010.492657
  20
795.998250
  42
-0.047706
  0
VERTEX
  8
0
  10
6013.250240
  20
792.072107
  42
-0.043737
  0
VERTEX
  8
0
  10
6015.255121
  20
787.695408
  42
-0.037997
  0
VERTEX
  8
0
  10
6016.712041
  20
782.351779
  0
VERTEX
  8
0
  10
6004.774797
  20
780.510033
  42
0.031370
  0
VERTEX
  8
0
  10
6003.702284
  20
784.074840
  42
0.037523
  0
VERTEX
  8
0
  10
6002.404401
  20
786.904985
  42
0.043483
  0
VERTEX
  8
0
  10
6000.675246
  20
789.476958
  42
0.047820
  0
VERTEX
  8
0
  10
5998.703855
  20
791.492298
  42
0.045672
  0
VERTEX
  8
0
  10
5996.425524
  20
793.109709
  42
0.046727
  0
VERTEX
  8
0
  10
5993.946011
  20
794.254917
  42
0.044662
  0
VERTEX
  8
0
  10
5991.295091
  20
794.931886
  42
0.040212
  0
VERTEX
  8
0
  10
5988.267293
  20
795.175790
  42
0.049096
  0
VERTEX
  8
0
  10
5983.723535
  20
794.728554
  42
0.055346
  0
VERTEX
  8
0
  10
5979.860063
  20
793.504576
  42
0.056897
  0
VERTEX
  8
0
  10
5976.370948
  20
791.455292
  42
0.052947
  0
VERTEX
  8
0
  10
5973.192259
  20
788.490933
  42
0.032577
  0
VERTEX
  8
0
  10
5971.861513
  20
786.756420
  42
0.029833
  0
VERTEX
  8
0
  10
5970.655595
  20
784.696595
  42
0.026689
  0
VERTEX
  8
0
  10
5969.687977
  20
782.510109
  42
0.023504
  0
VERTEX
  8
0
  10
5968.843692
  20
779.930224
  42
0.038358
  0
VERTEX
  8
0
  10
5967.808474
  20
774.621717
  42
0.028987
  0
VERTEX
  8
0
  10
5967.394169
  20
767.481384
  42
0.027634
  0
VERTEX
  8
0
  10
5967.794995
  20
760.234566
  42
0.036839
  0
VERTEX
  8
0
  10
5968.792532
  20
754.879064
  42
0.022783
  0
VERTEX
  8
0
  10
5969.608955
  20
752.270826
  42
0.026102
  0
VERTEX
  8
0
  10
5970.540486
  20
750.074324
  42
0.029504
  0
VERTEX
  8
0
  10
5971.707802
  20
747.998608
  42
0.032640
  0
VERTEX
  8
0
  10
5972.987621
  20
746.267195
  42
0.053281
  0
VERTEX
  8
0
  10
5976.063787
  20
743.328538
  42
0.057691
  0
VERTEX
  8
0
  10
5979.433732
  20
741.304712
  42
0.056400
  0
VERTEX
  8
0
  10
5983.178742
  20
740.093136
  42
0.050094
  0
VERTEX
  8
0
  10
5987.585165
  20
739.650551
  42
0.041415
  0
VERTEX
  8
0
  10
5991.147883
  20
739.946159
  42
0.046628
  0
VERTEX
  8
0
  10
5994.218862
  20
740.759010
  42
0.049223
  0
VERTEX
  8
0
  10
5997.072365
  20
742.138498
  42
0.048195
  0
VERTEX
  8
0
  10
5999.658835
  20
744.084385
  42
0.054236
  0
VERTEX
  8
0
  10
6001.791378
  20
746.510334
  42
0.047511
  0
VERTEX
  8
0
  10
6003.615179
  20
749.711943
  42
0.039261
  0
VERTEX
  8
0
  10
6004.867712
  20
753.204157
  42
0.031528
  0
VERTEX
  8
0
  10
6005.797989
  20
757.726950
  0
SEQEND
  0
POLYLINE
  8
0
  66
1
  70
1
  62
7
  0
VERTEX
  8
0
  10
6109.993078
  20
731.192161
  0
VERTEX
  8
0
  10
6097.714769
  20
731.192161
  0
VERTEX
  8
0
  10
6097.714769
  20
809.432270
  42
-0.033607
  0
VERTEX
  8
0
  10
6093.033148
  20
805.532077
  42
-0.024544
  0
VERTEX
  8
0
  10
6086.050376
  20
800.973880
  42
-0.019030
  0
VERTEX
  8
0
  10
6078.752066
  20
797.030912
  42
-0.025940
  0
VERTEX
  8
0
  10
6073.158153
  20
794.630087
  0
VERTEX
  8
0
  10
6073.158153
  20
806.499119
  42
0.034493
  0
VERTEX
  8
0
  10
6083.024331
  20
811.998200
  42
0.038004
  0
VERTEX
  8
0
  10
6091.166338
  20
818.231725
  42
0.017832
  0
VERTEX
  8
0
  10
6094.887041
  20
821.803955
  42
0.021372
  0
VERTEX
  8
0
  10
6097.748876
  20
825.018901
  42
0.025660
  0
VERTEX
  8
0
  10
6100.290982
  20
828.481342
  42
0.030653
  0
VERTEX
  8
0
  10
6102.080390
  20
831.601438
  0
VERTEX
  8
0
  10
6109.993078
  20
831.601438
  0
VERTEX
  8
0
  10
6109.993078
  20
731.192161
  0
SEQEND
  0
POLYLINE
  8
0
  66
1
  70
1
  62
7
  0
VERTEX
  8
0
  10
6143.280936
  20
754.316308
  0
VERTEX
  8
0
  10
6155.081754
  20
755.407714
  42
0.029195
  0
VERTEX
  8
0
  10
6156.067593
  20
751.322364
  42
0.037003
  0
VERTEX
  8
0
  10
6157.264565
  20
748.228314
  42
0.046041
  0
VERTEX
  8
0
  10
6158.943986
  20
745.395353
  42
0.054559
  0
VERTEX
  8
0
  10
6160.811632
  20
743.334044
  42
0.049487
  0
VERTEX
  8
0
  10
6163.067828
  20
741.700231
  42
0.048745
  0
VERTEX
  8
0
  10
6165.637689
  20
740.520265
  42
0.044646
  0
VERTEX
  8
0
  10
6168.391653
  20
739.835232
  42
0.038660
  0
VERTEX
  8
0
  10
6171.657471
  20
739.582339
  42
0.030405
  0
VERTEX
  8
0
  10
6174.466273
  20
739.753302
  42
0.033693
  0
VERTEX
  8
0
  10
6176.961018
  20
740.230360
  42
0.036151
  0
VERTEX
  8
0
  10
6179.361129
  20
741.048641
  42
0.037269
  0
VERTEX
  8
0
  10
6181.548330
  20
742.174426
  42
0.058277
  0
VERTEX
  8
0
  10
6185.435583
  20
745.186191
  42
0.057438
  0
VERTEX
  8
0
  10
6188.574251
  20
749.063921
  42
0.025752
  0
VERTEX
  8
0
  10
6189.819986
  20
751.306197
  42
0.021044
  0
VERTEX
  8
0
  10
6191.081072
  20
754.179883
  42
0.017290
  0
VERTEX
  8
0
  10
6192.119901
  20
757.146060
  42
0.014331
  0
VERTEX
  8
0
  10
6193.144510
  20
760.796527
  42
0.030725
  0
VERTEX
  8
0
  10
6194.522689
  20
768.220580
  42
0.030539
  0
VERTEX
  8
0
  10
6194.986256
  20
775.803348
  42
0.006943
  0
VERTEX
  8
0
  10
6194.974893
  20
776.621665
  42
0.003468
  0
VERTEX
  8
0
  10
6194.918044
  20
778.259010
  42
-0.031620
  0
VERTEX
  8
0
  10
6192.906779
  20
775.464895
  42
-0.031522
  0
VERTEX
  8
0
  10
6190.552423
  20
772.938409
  42
-0.030457
  0
VERTEX
  8
0
  10
6187.902158
  20
770.720883
  42
-0.028609
  0
VERTEX
  8
0
  10
6184.822546
  20
768.709214
  42
-0.032278
  0
VERTEX
  8
0
  10
6181.561535
  20
767.120051
  42
-0.033094
  0
VERTEX
  8
0
  10
6178.205902
  20
765.997755
  42
-0.032778
  0
VERTEX
  8
0
  10
6174.731256
  20
765.325692
  42
-0.031392
  0
VERTEX
  8
0
  10
6171.043555
  20
765.093935
  42
-0.048528
  0
VERTEX
  8
0
  10
6164.957713
  20
765.685994
  42
-0.052782
  0
VERTEX
  8
0
  10
6159.583801
  20
767.344958
  42
-0.052702
  0
VERTEX
  8
0
  10
6154.675519
  20
770.091723
  42
-0.048324
  0
VERTEX
  8
0
  10
6150.034005
  20
774.098027
  42
-0.052261
  0
VERTEX
  8
0
  10
6146.290986
  20
778.943619
  42
-0.051523
  0
VERTEX
  8
0
  10
6143.587893
  20
784.534590
  42
-0.046842
  0
VERTEX
  8
0
  10
6142.022175
  20
790.571396
  42
-0.040060
  0
VERTEX
  8
0
  10
6141.439190
  20
797.836090
  42
-0.019263
  0
VERTEX
  8
0
  10
6141.585297
  20
801.627145
  42
-0.021072
  0
VERTEX
  8
0
  10
6141.997682
  20
805.070913
  42
-0.022808
  0
VERTEX
  8
0
  10
6142.709734
  20
808.462742
  42
-0.024343
  0
VERTEX
  8
0
  10
6143.673159
  20
811.563921
  42
-0.051832
  0
VERTEX
  8
0
  10
6146.481746
  20
817.327141
  42
-0.052459
  0
VERTEX
  8
0
  10
6150.375069
  20
822.324494
  42
-0.049657
  0
VERTEX
  8
0
  10
6155.238393
  20
826.429889
  42
-0.052786
  0
VERTEX
  8
0
  10
6160.504674
  20
829.282202
  42
-0.051478
  0
VERTEX
  8
0
  10
6166.254139
  20
830.985693
  42
-0.046329
  0
VERTEX
  8
0
  10
6172.885301
  20
831.601438
  42
-0.034976
  0
VERTEX
  8
0
  10
6177.713675
  20
831.263265
  42
-0.036775
  0
VERTEX
  8
0
  10
6182.213405
  20
830.288341
  42
-0.037068
  0
VERTEX
  8
0
  10
6186.519917
  20
828.662526
  42
-0.035784
  0
VERTEX
  8
0
  10
6190.688848
  20
826.349051
  42
-0.038918
  0
VERTEX
  8
0
  10
6194.496294
  20
823.441964
  42
-0.038811
  0
VERTEX
  8
0
  10
6197.817089
  20
819.971152
  42
-0.036926
  0
VERTEX
  8
0
  10
6200.580155
  20
816.033849
  42
-0.033735
  0
VERTEX
  8
0
  10
6202.967157
  20
811.342229
  42
-0.037651
  0
VERTEX
  8
0
  10
6204.699312
  20
806.388931
  42
-0.027951
  0
VERTEX
  8
0
  10
6206.139053
  20
799.473198
  42
-0.021086
  0
VERTEX
  8
0
  10
6206.897532
  20
792.424919
  42
-0.016260
  0
VERTEX
  8
0
  10
6207.196352
  20
783.238546
  42
-0.015082
  0
VERTEX
  8
0
  10
6206.907790
  20
773.674199
  42
-0.018754
  0
VERTEX
  8
0
  10
6206.156106
  20
766.014808
  42
-0.023642
  0
VERTEX
  8
0
  10
6204.761534
  20
758.462722
  42
-0.030093
  0
VERTEX
  8
0
  10
6203.035370
  20
752.679201
  42
-0.031785
  0
VERTEX
  8
0
  10
6200.615630
  20
747.197564
  42
-0.036105
  0
VERTEX
  8
0
  10
6197.851195
  20
742.703075
  42
-0.039587
  0
VERTEX
  8
0
  10
6194.449442
  20
738.686755
  42
-0.041412
  0
VERTEX
  8
0
  10
6190.620636
  20
735.421356
  42
-0.040938
  0
VERTEX
  8
0
  10
6186.342584
  20
732.825005
  42
-0.041123
  0
VERTEX
  8
0
  10
6181.718862
  20
730.970469
  42
-0.039184
  0
VERTEX
  8
0
  10
6176.851007
  20
729.877229
  42
-0.035663
  0
VERTEX
  8
0
  10
6171.384619
  20
729.486841
  42
-0.037729
  0
VERTEX
  8
0
  10
6165.590328
  20
729.924692
  42
-0.043820
  0
VERTEX
  8
0
  10
6160.726365
  20
731.106895
  42
-0.048266
  0
VERTEX
  8
0
  10
6156.178282
  20
733.151448
  42
-0.049527
  0
VERTEX
  8
0
  10
6152.216816
  20
735.967059
  42
-0.050225
  0
VERTEX
  8
0
  10
6148.895957
  20
739.543477
  42
-0.048742
  0
VERTEX
  8
0
  10
6146.265247
  20
743.828587
  42
-0.044018
  0
VERTEX
  8
0
  10
6144.462125
  20
748.544393
  42
-0.037702
  0
VERTEX
  8
0
  10
6143.280936
  20
754.316308
  0
SEQEND
  0
POLYLINE
  8
0
  66
1
  70
1
  62
7
  0
VERTEX
  8
0
  10
6193.553787
  20
798.450006
  42
0.037064
  0
VERTEX
  8
0
  10
6193.166100
  20
803.672859
  42
0.044334
  0
VERTEX
  8
0
  10
6192.138371
  20
807.931588
  42
0.050419
  0
VERTEX
  8
0
  10
6190.337097
  20
811.899335
  42
0.053186
  0
VERTEX
  8
0
  10
6187.892123
  20
815.230360
  42
0.047843
  0
VERTEX
  8
0
  10
6184.857724
  20
818.010853
  42
0.053888
  0
VERTEX
  8
0
  10
6181.718862
  20
819.885886
  42
0.055621
  0
VERTEX
  8
0
  10
6178.253762
  20
821.032945
  42
0.052185
  0
VERTEX
  8
0
  10
6174.385984
  20
821.437727
  42
0.053775
  0
VERTEX
  8
0
  10
6170.389266
  20
821.006634
  42
0.055950
  0
VERTEX
  8
0
  10
6166.729094
  20
819.766513
  42
0.052853
  0
VERTEX
  8
0
  10
6163.412483
  20
817.760060
  42
0.045986
  0
VERTEX
  8
0
  10
6160.129503
  20
814.752871
  42
0.050494
  0
VERTEX
  8
0
  10
6157.486718
  20
811.176565
  42
0.049660
  0
VERTEX
  8
0
  10
6155.576297
  20
807.078928
  42
0.045296
  0
VERTEX
  8
0
  10
6154.468869
  20
802.677610
  42
0.039011
  0
VERTEX
  8
0
  10
6154.058562
  20
797.426813
  42
0.040991
  0
VERTEX
  8
0
  10
6154.445015
  20
792.720840
  42
0.047315
  0
VERTEX
  8
0
  10
6155.491031
  20
788.763785
  42
0.051224
  0
VERTEX
  8
0
  10
6157.284657
  20
785.100859
  42
0.051154
  0
VERTEX
  8
0
  10
6159.788439
  20
781.874289
  42
0.048527
  0
VERTEX
  8
0
  10
6162.914101
  20
779.241324
  42
0.052202
  0
VERTEX
  8
0
  10
6166.251604
  20
777.423403
  42
0.051628
  0
VERTEX
  8
0
  10
6169.893974
  20
776.331369
  42
0.047065
  0
VERTEX
  8
0
  10
6174.044919
  20
775.939774
  42
0.047267
  0
VERTEX
  8
0
  10
6178.227609
  20
776.336068
  42
0.053156
  0
VERTEX
  8
0
  10
6181.804128
  20
777.423403
  42
0.054908
  0
VERTEX
  8
0
  10
6185.059084
  20
779.248627
  42
0.051676
  0
VERTEX
  8
0
  10
6188.028548
  20
781.874289
  42
0.054668
  0
VERTEX
  8
0
  10
6190.406148
  20
785.102734
  42
0.050994
  0
VERTEX
  8
0
  10
6192.172477
  20
789.019583
  42
0.044106
  0
VERTEX
  8
0
  10
6193.173175
  20
793.225277
  42
0.036376
  0
VERTEX
  8
0
  10
6193.553787
  20
798.450006
  0
SEQEND
  0
POLYLINE
  8
0
  66
1
  70
1
  62
7
  0
VERTEX
  8
0
  10
6261.391441
  20
731.192161
  0
VERTEX
  8
0
  10
6261.391441
  20
803.634180
  0
VERTEX
  8
0
  10
6272.373705
  20
803.634180
  0
VERTEX
  8
0
  10
6272.373705
  20
793.470469
  42
-0.030570
  0
VERTEX
  8
0
  10
6274.227782
  20
796.007189
  42
-0.031038
  0
VERTEX
  8
0
  10
6276.347102
  20
798.262420
  42
-0.030567
  0
VERTEX
  8
0
  10
6278.728113
  20
800.240738
  42
-0.029239
  0
VERTEX
  8
0
  10
6281.446011
  20
801.997072
  42
-0.034756
  0
VERTEX
  8
0
  10
6284.362628
  20
803.423400
  42
-0.034174
  0
VERTEX
  8
0
  10
6287.499899
  20
804.452734
  42
-0.032405
  0
VERTEX
  8
0
  10
6290.749706
  20
805.057277
  42
-0.029792
  0
VERTEX
  8
0
  10
6294.338235
  20
805.271288
  42
-0.028439
  0
VERTEX
  8
0
  10
6298.334365
  20
805.043810
  42
-0.033739
  0
VERTEX
  8
0
  10
6301.654060
  20
804.435681
  42
-0.039085
  0
VERTEX
  8
0
  10
6304.838388
  20
803.356476
  42
-0.043483
  0
VERTEX
  8
0
  10
6307.503310
  20
801.928860
  42
-0.041070
  0
VERTEX
  8
0
  10
6309.924206
  20
800.070235
  42
-0.042746
  0
VERTEX
  8
0
  10
6311.920090
  20
797.921356
  42
-0.042019
  0
VERTEX
  8
0
  10
6313.525978
  20
795.465283
  42
-0.039116
  0
VERTEX
  8
0
  10
6314.802082
  20
792.583703
  42
-0.024724
  0
VERTEX
  8
0
  10
6317.095803
  20
795.633436
  42
-0.027618
  0
VERTEX
  8
0
  10
6319.423501
  20
798.134521
  42
-0.030263
  0
VERTEX
  8
0
  10
6322.020548
  20
800.346787
  42
-0.032310
  0
VERTEX
  8
0
  10
6324.692941
  20
802.099392
  42
-0.033416
  0
VERTEX
  8
0
  10
6327.569923
  20
803.485765
  42
-0.033365
  0
VERTEX
  8
0
  10
6330.610404
  20
804.478314
  42
-0.032170
  0
VERTEX
  8
0
  10
6333.756869
  20
805.065562
  42
-0.030058
  0
VERTEX
  8
0
  10
6337.175888
  20
805.271288
  42
-0.039055
  0
VERTEX
  8
0
  10
6342.491721
  20
804.855429
  42
-0.047863
  0
VERTEX
  8
0
  10
6346.708630
  20
803.770606
  42
-0.055385
  0
VERTEX
  8
0
  10
6350.586013
  20
801.858699
  42
-0.058560
  0
VERTEX
  8
0
  10
6353.751604
  20
799.268560
  42
-0.032225
  0
VERTEX
  8
0
  10
6355.094457
  20
797.704170
  42
-0.030663
  0
VERTEX
  8
0
  10
6356.288269
  20
795.896288
  42
-0.028377
  0
VERTEX
  8
0
  10
6357.262131
  20
793.957847
  42
-0.025697
  0
VERTEX
  8
0
  10
6358.100172
  20
791.713989
  42
-0.043170
  0
VERTEX
  8
0
  10
6359.139024
  20
787.063337
  42
-0.033383
  0
VERTEX
  8
0
  10
6359.549694
  20
780.919310
  0
VERTEX
  8
0
  10
6359.549694
  20
731.192161
  0
VERTEX
  8
0
  10
6347.339599
  20
731.192161
  0
VERTEX
  8
0
  10
6347.339599
  20
776.826540
  42
0.012120
  0
VERTEX
  8
0
  10
6347.250419
  20
780.504872
  42
0.016784
  0
VERTEX
  8
0
  10
6347.032641
  20
783.153280
  42
0.024492
  0
VERTEX
  8
0
  10
6346.598801
  20
785.765385
  42
0.038065
  0
VERTEX
  8
0
  10
6346.111768
  20
787.399528
  42
0.042684
  0
VERTEX
  8
0
  10
6345.402525
  20
788.963716
  42
0.043706
  0
VERTEX
  8
0
  10
6344.457607
  20
790.349733
  42
0.042156
  0
VERTEX
  8
0
  10
6343.288414
  20
791.555517
  42
0.038530
  0
VERTEX
  8
0
  10
6341.814360
  20
792.651916
  42
0.038065
  0
VERTEX
  8
0
  10
6340.188798
  20
793.511477
  42
0.037012
  0
VERTEX
  8
0
  10
6338.403719
  20
794.135545
  42
0.034508
  0
VERTEX
  8
0
  10
6336.544746
  20
794.499510
  42
0.031099
  0
VERTEX
  8
0
  10
6334.447375
  20
794.630087
  42
0.045262
  0
VERTEX
  8
0
  10
6330.693525
  20
794.289573
  42
0.050633
  0
VERTEX
  8
0
  10
6327.455561
  20
793.351097
  42
0.052433
  0
VERTEX
  8
0
  10
6324.482957
  20
791.772969
  42
0.049863
  0
VERTEX
  8
0
  10
6321.759790
  20
789.514126
  42
0.033969
  0
VERTEX
  8
0
  10
6320.594191
  20
788.178393
  42
0.031921
  0
VERTEX
  8
0
  10
6319.551400
  20
786.606554
  42
0.029128
  0
VERTEX
  8
0
  10
6318.706351
  20
784.916642
  42
0.026007
  0
VERTEX
  8
0
  10
6317.973978
  20
782.931588
  42
0.042887
  0
VERTEX
  8
0
  10
6317.072577
  20
778.818168
  42
0.032513
  0
VERTEX
  8
0
  10
6316.712041
  20
773.279474
  0
VERTEX
  8
0
  10
6316.712041
  20
731.192161
  0
VERTEX
  8
0
  10
6304.433732
  20
731.192161
  0
VERTEX
  8
0
  10
6304.433732
  20
778.259010
  42
0.026101
  0
VERTEX
  8
0
  10
6304.221271
  20
782.326188
  42
0.033853
  0
VERTEX
  8
0
  10
6303.683391
  20
785.421356
  42
0.043719
  0
VERTEX
  8
0
  10
6302.681611
  20
788.373712
  42
0.054615
  0
VERTEX
  8
0
  10
6301.432368
  20
790.537318
  42
0.069662
  0
VERTEX
  8
0
  10
6299.712257
  20
792.304687
  42
0.066361
  0
VERTEX
  8
0
  10
6297.476024
  20
793.606895
  42
0.055585
  0
VERTEX
  8
0
  10
6294.962325
  20
794.339900
  42
0.043197
  0
VERTEX
  8
0
  10
6291.609722
  20
794.630087
  42
0.033933
  0
VERTEX
  8
0
  10
6289.041903
  20
794.455619
  42
0.035201
  0
VERTEX
  8
0
  10
6286.613132
  20
793.947959
  42
0.035122
  0
VERTEX
  8
0
  10
6284.279335
  20
793.104933
  42
0.033713
  0
VERTEX
  8
0
  10
6281.991713
  20
791.901575
  42
0.042387
  0
VERTEX
  8
0
  10
6279.954515
  20
790.374246
  42
0.042812
  0
VERTEX
  8
0
  10
6278.222955
  20
788.542093
  42
0.040837
  0
VERTEX
  8
0
  10
6276.818274
  20
786.444066
  42
0.037056
  0
VERTEX
  8
0
  10
6275.647921
  20
783.920674
  42
0.033215
  0
VERTEX
  8
0
  10
6274.839703
  20
781.249251
  42
0.024376
  0
VERTEX
  8
0
  10
6274.164292
  20
777.508669
  42
0.018331
  0
VERTEX
  8
0
  10
6273.809436
  20
773.713772
  42
0.014146
  0
VERTEX
  8
0
  10
6273.669749
  20
768.777427
  0
VERTEX
  8
0
  10
6273.669749
  20
731.192161
  0
VERTEX
  8
0
  10
6261.391441
  20
731.192161
  0
SEQEND
  0
POLYLINE
  8
0
  66
1
  70
1
  62
7
  0
VERTEX
  8
0
  10
6377.762518
  20
731.192161
  0
VERTEX
  8
0
  10
6377.762518
  20
803.634180
  0
VERTEX
  8
0
  10
6388.744783
  20
803.634180
  0
VERTEX
  8
0
  10
6388.744783
  20
793.470469
  42
-0.030570
  0
VERTEX
  8
0
  10
6390.598860
  20
796.007189
  42
-0.031038
  0
VERTEX
  8
0
  10
6392.718180
  20
798.262420
  42
-0.030567
  0
VERTEX
  8
0
  10
6395.099191
  20
800.240738
  42
-0.029239
  0
VERTEX
  8
0
  10
6397.817089
  20
801.997072
  42
-0.034756
  0
VERTEX
  8
0
  10
6400.733706
  20
803.423400
  42
-0.034174
  0
VERTEX
  8
0
  10
6403.870977
  20
804.452734
  42
-0.032405
  0
VERTEX
  8
0
  10
6407.120784
  20
805.057277
  42
-0.029792
  0
VERTEX
  8
0
  10
6410.709312
  20
805.271288
  42
-0.028439
  0
VERTEX
  8
0
  10
6414.705443
  20
805.043810
  42
-0.033739
  0
VERTEX
  8
0
  10
6418.025138
  20
804.435681
  42
-0.039085
  0
VERTEX
  8
0
  10
6421.209466
  20
803.356476
  42
-0.043483
  0
VERTEX
  8
0
  10
6423.874387
  20
801.928860
  42
-0.041070
  0
VERTEX
  8
0
  10
6426.295283
  20
800.070235
  42
-0.042746
  0
VERTEX
  8
0
  10
6428.291168
  20
797.921356
  42
-0.042019
  0
VERTEX
  8
0
  10
6429.897056
  20
795.465283
  42
-0.039116
  0
VERTEX
  8
0
  10
6431.173159
  20
792.583703
  42
-0.024724
  0
VERTEX
  8
0
  10
6433.466881
  20
795.633436
  42
-0.027618
  0
VERTEX
  8
0
  10
6435.794578
  20
798.134521
  42
-0.030263
  0
VERTEX
  8
0
  10
6438.391626
  20
800.346787
  42
-0.032310
  0
VERTEX
  8
0
  10
6441.064019
  20
802.099392
  42
-0.033416
  0
VERTEX
  8
0
  10
6443.941001
  20
803.485765
  42
-0.033365
  0
VERTEX
  8
0
  10
6446.981481
  20
804.478314
  42
-0.032170
  0
VERTEX
  8
0
  10
6450.127947
  20
805.065562
  42
-0.030058
  0
VERTEX
  8
0
  10
6453.546966
  20
805.271288
  42
-0.039055
  0
VERTEX
  8
0
  10
6458.862798
  20
804.855429
  42
-0.047863
  0
VERTEX
  8
0
  10
6463.079708
  20
803.770606
  42
-0.055385
  0
VERTEX
  8
0
  10
6466.957090
  20
801.858699
  42
-0.058560
  0
VERTEX
  8
0
  10
6470.122682
  20
799.268560
  42
-0.032225
  0
VERTEX
  8
0
  10
6471.465534
  20
797.704170
  42
-0.030663
  0
VERTEX
  8
0
  10
6472.659346
  20
795.896288
  42
-0.028377
  0
VERTEX
  8
0
  10
6473.633209
  20
793.957847
  42
-0.025697
  0
VERTEX
  8
0
  10
6474.471250
  20
791.713989
  42
-0.043170
  0
VERTEX
  8
0
  10
6475.510101
  20
787.063337
  42
-0.033383
  0
VERTEX
  8
0
  10
6475.920772
  20
780.919310
  0
VERTEX
  8
0
  10
6475.920772
  20
731.192161
  0
VERTEX
  8
0
  10
6463.710677
  20
731.192161
  0
VERTEX
  8
0
  10
6463.710677
  20
776.826540
  42
0.012120
  0
VERTEX
  8
0
  10
6463.621497
  20
780.504872
  42
0.016784
  0
VERTEX
  8
0
  10
6463.403719
  20
783.153280
  42
0.024492
  0
VERTEX
  8
0
  10
6462.969879
  20
785.765385
  42
0.038065
  0
VERTEX
  8
0
  10
6462.482846
  20
787.399528
  42
0.042684
  0
VERTEX
  8
0
  10
6461.773603
  20
788.963716
  42
0.043706
  0
VERTEX
  8
0
  10
6460.828685
  20
790.349733
  42
0.042156
  0
VERTEX
  8
0
  10
6459.659492
  20
791.555517
  42
0.038530
  0
VERTEX
  8
0
  10
6458.185438
  20
792.651916
  42
0.038065
  0
VERTEX
  8
0
  10
6456.559875
  20
793.511477
  42
0.037012
  0
VERTEX
  8
0
  10
6454.774797
  20
794.135545
  42
0.034508
  0
VERTEX
  8
0
  10
6452.915824
  20
794.499510
  42
0.031099
  0
VERTEX
  8
0
  10
6450.818453
  20
794.630087
  42
0.045262
  0
VERTEX
  8
0
  10
6447.064602
  20
794.289573
  42
0.050633
  0
VERTEX
  8
0
  10
6443.826638
  20
793.351097
  42
0.052433
  0
VERTEX
  8
0
  10
6440.854035
  20
791.772969
  42
0.049863
  0
VERTEX
  8
0
  10
6438.130868
  20
789.514126
  42
0.033969
  0
VERTEX
  8
0
  10
6436.965268
  20
788.178393
  42
0.031921
  0
VERTEX
  8
0
  10
6435.922477
  20
786.606554
  42
0.029128
  0
VERTEX
  8
0
  10
6435.077428
  20
784.916642
  42
0.026007
  0
VERTEX
  8
0
  10
6434.345056
  20
782.931588
  42
0.042887
  0
VERTEX
  8
0
  10
6433.443655
  20
778.818168
  42
0.032513
  0
VERTEX
  8
0
  10
6433.083119
  20
773.279474
  0
VERTEX
  8
0
  10
6433.083119
  20
731.192161
  0
VERTEX
  8
0
  10
6420.804810
  20
731.192161
  0
VERTEX
  8
0
  10
6420.804810
  20
778.259010
  42
0.026101
  0
VERTEX
  8
0
  10
6420.592349
  20
782.326188
  42
0.033853
  0
VERTEX
  8
0
  10
6420.054469
  20
785.421356
  42
0.043719
  0
VERTEX
  8
0
  10
6419.052689
  20
788.373712
  42
0.054615
  0
VERTEX
  8
0
  10
6417.803446
  20
790.537318
  42
0.069662
  0
VERTEX
  8
0
  10
6416.083334
  20
792.304687
  42
0.066361
  0
VERTEX
  8
0
  10
6413.847102
  20
793.606895
  42
0.055585
  0
VERTEX
  8
0
  10
6411.333403
  20
794.339900
  42
0.043197
  0
VERTEX
  8
0
  10
6407.980799
  20
794.630087
  42
0.033933
  0
VERTEX
  8
0
  10
6405.412981
  20
794.455619
  42
0.035201
  0
VERTEX
  8
0
  10
6402.984210
  20
793.947959
  42
0.035122
  0
VERTEX
  8
0
  10
6400.650413
  20
793.104933
  42
0.033713
  0
VERTEX
  8
0
  10
6398.362791
  20
791.901575
  42
0.042387
  0
VERTEX
  8
0
  10
6396.325593
  20
790.374246
  42
0.042812
  0
VERTEX
  8
0
  10
6394.594033
  20
788.542093
  42
0.040837
  0
VERTEX
  8
0
  10
6393.189352
  20
786.444066
  42
0.037056
  0
VERTEX
  8
0
  10
6392.018999
  20
783.920674
  42
0.033215
  0
VERTEX
  8
0
  10
6391.210781
  20
781.249251
  42
0.024376
  0
VERTEX
  8
0
  10
6390.535370
  20
777.508669
  42
0.018331
  0
VERTEX
  8
0
  10
6390.180513
  20
773.713772
  42
0.014146
  0
VERTEX
  8
0
  10
6390.040827
  20
768.777427
  0
VERTEX
  8
0
  10
6390.040827
  20
731.192161
  0
VERTEX
  8
0
  10
6377.762518
  20
731.192161
  0
SEQEND
  0
ENDSEC
  0
EOF
