<svg xmlns="http://www.w3.org/2000/svg"><line x1="1364.77836" y1="-1333.062683" x2="1387.844114" y2="-1333.062683" /><line x1="1387.844114" y1="-1333.062683" x2="1391.504416" y2="-1332.891644" /><line x1="1391.504416" y1="-1332.891644" x2="1394.398771" y2="-1332.448768" /><line x1="1394.398771" y1="-1332.448768" x2="1397.196785" y2="-1331.634414" /><line x1="1397.196785" y1="-1331.634414" x2="1399.349334" y2="-1330.607021" /><line x1="1399.349334" y1="-1330.607021" x2="1401.277221" y2="-1329.169174" /><line x1="1401.277221" y1="-1329.169174" x2="1403.000029" y2="-1327.332806" /><line x1="1403.000029" y1="-1327.332806" x2="1404.404283" y2="-1325.232881" /><line x1="1404.404283" y1="-1325.232881" x2="1405.65508" y2="-1322.603383" /><line x1="1405.65508" y1="-1322.603383" x2="1407.246218" y2="-1316.949222" /><line x1="1407.246218" y1="-1316.949222" x2="1407.812309" y2="-1310.597926" /><line x1="1407.812309" y1="-1310.597926" x2="1407.527283" y2="-1305.906346" /><line x1="1407.527283" y1="-1305.906346" x2="1406.761351" y2="-1301.980373" /><line x1="1406.761351" y1="-1301.980373" x2="1405.412251" y2="-1298.230401" /><line x1="1405.412251" y1="-1298.230401" x2="1403.608478" y2="-1295.045402" /><line x1="1403.608478" y1="-1295.045402" x2="1401.213324" y2="-1292.377004" /><line x1="1401.213324" y1="-1292.377004" x2="1398.243063" y2="-1290.475143" /><line x1="1398.243063" y1="-1290.475143" x2="1396.562302" y2="-1289.822068" /><line x1="1396.562302" y1="-1289.822068" x2="1394.647682" y2="-1289.332578" /><line x1="1394.647682" y1="-1289.332578" x2="1392.688063" y2="-1289.053175" /><line x1="1392.688063" y1="-1289.053175" x2="1390.443851" y2="-1288.951723" /><line x1="1390.443851" y1="-1288.951723" x2="1364.77836" y2="-1288.951723" /><line x1="1364.77836" y1="-1288.951723" x2="1364.77836" y2="-1333.062683" /><line x1="1544.547426" y1="-1352.798927" x2="1572.038265" y2="-1352.798927" /><line x1="1572.038265" y1="-1352.798927" x2="1563.57529" y2="-1315.873051" /><line x1="1563.57529" y1="-1315.873051" x2="1559.881486" y2="-1299.011274" /><line x1="1559.881486" y1="-1299.011274" x2="1557.82268" y2="-1288.22412" /><line x1="1557.82268" y1="-1288.22412" x2="1555.957165" y2="-1300.993804" /><line x1="1555.957165" y1="-1300.993804" x2="1553.452909" y2="-1313.690241" /><line x1="1553.452909" y1="-1313.690241" x2="1544.547426" y2="-1352.798927" /><line x1="1292.81542" y1="-1352.798927" x2="1320.306259" y2="-1352.798927" /><line x1="1320.306259" y1="-1352.798927" x2="1311.843285" y2="-1315.873051" /><line x1="1311.843285" y1="-1315.873051" x2="1308.14948" y2="-1299.011274" /><line x1="1308.14948" y1="-1299.011274" x2="1306.090674" y2="-1288.22412" /><line x1="1306.090674" y1="-1288.22412" x2="1304.22516" y2="-1300.993804" /><line x1="1304.22516" y1="-1300.993804" x2="1301.720903" y2="-1313.690241" /><line x1="1301.720903" y1="-1313.690241" x2="1292.81542" y2="-1352.798927" /><line x1="1244.417785" y1="-1440.88442" x2="1244.417785" y2="-1240.88442" /><line x1="1244.417785" y1="-1240.88442" x2="1694.417785" y2="-1240.88442" /><line x1="1694.417785" y1="-1240.88442" x2="1694.417785" y2="-1440.88442" /><line x1="1694.417785" y1="-1440.88442" x2="1244.417785" y2="-1440.88442" /><line x1="1354.04753" y1="-1407.551087" x2="1354.04753" y2="-1274.217753" /><line x1="1354.04753" y1="-1274.217753" x2="1390.001343" y2="-1274.217753" /><line x1="1390.001343" y1="-1274.217753" x2="1395.394109" y2="-1274.474192" /><line x1="1395.394109" y1="-1274.474192" x2="1399.542932" y2="-1275.127258" /><line x1="1399.542932" y1="-1275.127258" x2="1403.535601" y2="-1276.344264" /><line x1="1403.535601" y1="-1276.344264" x2="1406.484784" y2="-1277.855771" /><line x1="1406.484784" y1="-1277.855771" x2="1409.065077" y2="-1279.884453" /><line x1="1409.065077" y1="-1279.884453" x2="1411.559803" y2="-1282.789832" /><line x1="1411.559803" y1="-1282.789832" x2="1413.561737" y2="-1286.083976" /><line x1="1413.561737" y1="-1286.083976" x2="1415.500894" y2="-1290.497881" /><line x1="1415.500894" y1="-1290.497881" x2="1416.960987" y2="-1295.105971" /><line x1="1416.960987" y1="-1295.105971" x2="1418.031489" y2="-1300.070414" /><line x1="1418.031489" y1="-1300.070414" x2="1418.655657" y2="-1305.113709" /><line x1="1418.655657" y1="-1305.113709" x2="1418.875021" y2="-1310.597926" /><line x1="1418.875021" y1="-1310.597926" x2="1418.499478" y2="-1317.648787" /><line x1="1418.499478" y1="-1317.648787" x2="1417.478353" y2="-1323.672051" /><line x1="1417.478353" y1="-1323.672051" x2="1415.683139" y2="-1329.49503" /><line x1="1415.683139" y1="-1329.49503" x2="1413.288351" y2="-1334.51789" /><line x1="1413.288351" y1="-1334.51789" x2="1410.060571" y2="-1338.99099" /><line x1="1410.060571" y1="-1338.99099" x2="1406.180559" y2="-1342.476053" /><line x1="1406.180559" y1="-1342.476053" x2="1401.635127" y2="-1345.054004" /><line x1="1401.635127" y1="-1345.054004" x2="1396.030521" y2="-1346.887149" /><line x1="1396.030521" y1="-1346.887149" x2="1400.031196" y2="-1350.492231" /><line x1="1400.031196" y1="-1350.492231" x2="1402.502207" y2="-1353.52653" /><line x1="1402.502207" y1="-1353.52653" x2="1404.734154" y2="-1357.142505" /><line x1="1404.734154" y1="-1357.142505" x2="1407.079404" y2="-1361.507431" /><line x1="1407.079404" y1="-1361.507431" x2="1409.19769" y2="-1365.989635" /><line x1="1409.19769" y1="-1365.989635" x2="1411.40769" y2="-1371.261864" /><line x1="1411.40769" y1="-1371.261864" x2="1425.512648" y2="-1407.551087" /><line x1="1425.512648" y1="-1407.551087" x2="1412.016139" y2="-1407.551087" /><line x1="1412.016139" y1="-1407.551087" x2="1401.285309" y2="-1379.811205" /><line x1="1401.285309" y1="-1379.811205" x2="1396.431993" y2="-1367.871579" /><line x1="1396.431993" y1="-1367.871579" x2="1393.541411" y2="-1361.439218" /><line x1="1393.541411" y1="-1361.439218" x2="1391.950912" y2="-1358.293704" /><line x1="1391.950912" y1="-1358.293704" x2="1390.651277" y2="-1356.027667" /><line x1="1390.651277" y1="-1356.027667" x2="1389.193917" y2="-1353.867504" /><line x1="1389.193917" y1="-1353.867504" x2="1388.065368" y2="-1352.526075" /><line x1="1388.065368" y1="-1352.526075" x2="1385.498789" y2="-1350.253904" /><line x1="1385.498789" y1="-1350.253904" x2="1383.197775" y2="-1348.979009" /><line x1="1383.197775" y1="-1348.979009" x2="1382.270308" y2="-1348.726567" /><line x1="1382.270308" y1="-1348.726567" x2="1380.791635" y2="-1348.501519" /><line x1="1380.791635" y1="-1348.501519" x2="1379.295715" y2="-1348.388546" /><line x1="1379.295715" y1="-1348.388546" x2="1377.223911" y2="-1348.342356" /><line x1="1377.223911" y1="-1348.342356" x2="1364.77836" y2="-1348.342356" /><line x1="1364.77836" y1="-1348.342356" x2="1364.77836" y2="-1407.551087" /><line x1="1364.77836" y1="-1407.551087" x2="1354.04753" y2="-1407.551087" /><line x1="1435.386118" y1="-1407.551087" x2="1435.386118" y2="-1274.217753" /><line x1="1435.386118" y1="-1274.217753" x2="1451.537677" y2="-1274.217753" /><line x1="1451.537677" y1="-1274.217753" x2="1470.731482" y2="-1368.624302" /><line x1="1470.731482" y1="-1368.624302" x2="1473.353871" y2="-1381.818437" /><line x1="1473.353871" y1="-1381.818437" x2="1474.603431" y2="-1388.360546" /><line x1="1474.603431" y1="-1388.360546" x2="1476.027568" y2="-1381.092729" /><line x1="1476.027568" y1="-1381.092729" x2="1478.917889" y2="-1366.987194" /><line x1="1478.917889" y1="-1366.987194" x2="1498.332948" y2="-1274.217753" /><line x1="1498.332948" y1="-1274.217753" x2="1512.769787" y2="-1274.217753" /><line x1="1512.769787" y1="-1274.217753" x2="1512.769787" y2="-1407.551087" /><line x1="1512.769787" y1="-1407.551087" x2="1502.426151" y2="-1407.551087" /><line x1="1502.426151" y1="-1407.551087" x2="1502.426151" y2="-1295.954907" /><line x1="1502.426151" y1="-1295.954907" x2="1478.862575" y2="-1407.551087" /><line x1="1478.862575" y1="-1407.551087" x2="1469.182702" y2="-1407.551087" /><line x1="1469.182702" y1="-1407.551087" x2="1445.729753" y2="-1294.044948" /><line x1="1445.729753" y1="-1294.044948" x2="1445.729753" y2="-1407.551087" /><line x1="1445.729753" y1="-1407.551087" x2="1435.386118" y2="-1407.551087" /><line x1="1521.149791" y1="-1407.551087" x2="1552.291324" y2="-1274.217753" /><line x1="1552.291324" y1="-1274.217753" x2="1563.851858" y2="-1274.217753" /><line x1="1563.851858" y1="-1274.217753" x2="1597.039993" y2="-1407.551087" /><line x1="1597.039993" y1="-1407.551087" x2="1584.815697" y2="-1407.551087" /><line x1="1584.815697" y1="-1407.551087" x2="1575.357078" y2="-1367.169095" /><line x1="1575.357078" y1="-1367.169095" x2="1541.449867" y2="-1367.169095" /><line x1="1541.449867" y1="-1367.169095" x2="1532.544384" y2="-1407.551087" /><line x1="1532.544384" y1="-1407.551087" x2="1521.149791" y2="-1407.551087" /><line x1="1269.417785" y1="-1407.551087" x2="1300.559319" y2="-1274.217753" /><line x1="1300.559319" y1="-1274.217753" x2="1312.119852" y2="-1274.217753" /><line x1="1312.119852" y1="-1274.217753" x2="1345.307988" y2="-1407.551087" /><line x1="1345.307988" y1="-1407.551087" x2="1333.083691" y2="-1407.551087" /><line x1="1333.083691" y1="-1407.551087" x2="1323.625073" y2="-1367.169095" /><line x1="1323.625073" y1="-1367.169095" x2="1289.717861" y2="-1367.169095" /><line x1="1289.717861" y1="-1367.169095" x2="1280.812378" y2="-1407.551087" /><line x1="1280.812378" y1="-1407.551087" x2="1269.417785" y2="-1407.551087" /><line x1="1605.530625" y1="-1407.551087" x2="1605.530625" y2="-1274.217753" /><line x1="1605.530625" y1="-1274.217753" x2="1616.538023" y2="-1274.217753" /><line x1="1616.538023" y1="-1274.217753" x2="1659.129463" y2="-1378.901701" /><line x1="1659.129463" y1="-1378.901701" x2="1659.129463" y2="-1274.217753" /><line x1="1659.129463" y1="-1274.217753" x2="1669.417785" y2="-1274.217753" /><line x1="1669.417785" y1="-1274.217753" x2="1669.417785" y2="-1407.551087" /><line x1="1669.417785" y1="-1407.551087" x2="1658.410387" y2="-1407.551087" /><line x1="1658.410387" y1="-1407.551087" x2="1615.818947" y2="-1302.776189" /><line x1="1615.818947" y1="-1302.776189" x2="1615.818947" y2="-1407.551087" /><line x1="1615.818947" y1="-1407.551087" x2="1605.530625" y2="-1407.551087" /></svg>