  0
SECTION
  2
ENTITIES
  0
POLYLINE
  8
0
  66
1
  70
1
  62
7
  0
VERTEX
  8
0
  10
1364.778360
  20
-1333.062683
  0
VERTEX
  8
0
  10
1387.844114
  20
-1333.062683
  42
0.023351
  0
VERTEX
  8
0
  10
1391.504416
  20
-1332.891644
  42
0.029232
  0
VERTEX
  8
0
  10
1394.398771
  20
-1332.448768
  42
0.036486
  0
VERTEX
  8
0
  10
1397.196785
  20
-1331.634414
  42
0.044606
  0
VERTEX
  8
0
  10
1399.349334
  20
-1330.607021
  42
0.045165
  0
VERTEX
  8
0
  10
1401.277221
  20
-1329.169174
  42
0.043131
  0
VERTEX
  8
0
  10
1403.000029
  20
-1327.332806
  42
0.038957
  0
VERTEX
  8
0
  10
1404.404283
  20
-1325.232881
  42
0.033785
  0
VERTEX
  8
0
  10
1405.655080
  20
-1322.603383
  42
0.048300
  0
VERTEX
  8
0
  10
1407.246218
  20
-1316.949222
  42
0.044477
  0
VERTEX
  8
0
  10
1407.812309
  20
-1310.597926
  42
0.030348
  0
VERTEX
  8
0
  10
1407.527283
  20
-1305.906346
  42
0.035674
  0
VERTEX
  8
0
  10
1406.761351
  20
-1301.980373
  42
0.040700
  0
VERTEX
  8
0
  10
1405.412251
  20
-1298.230401
  42
0.044327
  0
VERTEX
  8
0
  10
1403.608478
  20
-1295.045402
  42
0.066985
  0
VERTEX
  8
0
  10
1401.213324
  20
-1292.377004
  42
0.068111
  0
VERTEX
  8
0
  10
1398.243063
  20
-1290.475143
  42
0.031466
  0
VERTEX
  8
0
  10
1396.562302
  20
-1289.822068
  42
0.028706
  0
VERTEX
  8
0
  10
1394.647682
  20
-1289.332578
  42
0.025643
  0
VERTEX
  8
0
  10
1392.688063
  20
-1289.053175
  42
0.022591
  0
VERTEX
  8
0
  10
1390.443851
  20
-1288.951723
  0
VERTEX
  8
0
  10
1364.778360
  20
-1288.951723
  0
VERTEX
  8
0
  10
1364.778360
  20
-1333.062683
  0
SEQEND
  0
POLYLINE
  8
0
  66
1
  70
1
  62
7
  0
VERTEX
  8
0
  10
1544.547426
  20
-1352.798927
  0
VERTEX
  8
0
  10
1572.038265
  20
-1352.798927
  0
VERTEX
  8
0
  10
1563.575290
  20
-1315.873051
  42
-0.005262
  0
VERTEX
  8
0
  10
1559.881486
  20
-1299.011274
  42
-0.008272
  0
VERTEX
  8
0
  10
1557.822680
  20
-1288.224120
  42
-0.012437
  0
VERTEX
  8
0
  10
1555.957165
  20
-1300.993804
  42
-0.012403
  0
VERTEX
  8
0
  10
1553.452909
  20
-1313.690241
  0
VERTEX
  8
0
  10
1544.547426
  20
-1352.798927
  0
SEQEND
  0
POLYLINE
  8
0
  66
1
  70
1
  62
7
  0
VERTEX
  8
0
  10
1292.815420
  20
-1352.798927
  0
VERTEX
  8
0
  10
1320.306259
  20
-1352.798927
  0
VERTEX
  8
0
  10
1311.843285
  20
-1315.873051
  42
-0.005262
  0
VERTEX
  8
0
  10
1308.149480
  20
-1299.011274
  42
-0.008272
  0
VERTEX
  8
0
  10
1306.090674
  20
-1288.224120
  42
-0.012437
  0
VERTEX
  8
0
  10
1304.225160
  20
-1300.993804
  42
-0.012403
  0
VERTEX
  8
0
  10
1301.720903
  20
-1313.690241
  0
VERTEX
  8
0
  10
1292.815420
  20
-1352.798927
  0
SEQEND
  0
POLYLINE
  8
0
  66
1
  70
1
  62
7
  0
VERTEX
  8
0
  10
1244.417785
  20
-1440.884420
  0
VERTEX
  8
0
  10
1244.417785
  20
-1240.884420
  0
VERTEX
  8
0
  10
1694.417785
  20
-1240.884420
  0
VERTEX
  8
0
  10
1694.417785
  20
-1440.884420
  0
VERTEX
  8
0
  10
1244.417785
  20
-1440.884420
  0
SEQEND
  0
POLYLINE
  8
0
  66
1
  70
1
  62
7
  0
VERTEX
  8
0
  10
1354.047530
  20
-1407.551087
  0
VERTEX
  8
0
  10
1354.047530
  20
-1274.217753
  0
VERTEX
  8
0
  10
1390.001343
  20
-1274.217753
  42
-0.023763
  0
VERTEX
  8
0
  10
1395.394109
  20
-1274.474192
  42
-0.030558
  0
VERTEX
  8
0
  10
1399.542932
  20
-1275.127258
  42
-0.039340
  0
VERTEX
  8
0
  10
1403.535601
  20
-1276.344264
  42
-0.049595
  0
VERTEX
  8
0
  10
1406.484784
  20
-1277.855771
  42
-0.052565
  0
VERTEX
  8
0
  10
1409.065077
  20
-1279.884453
  42
-0.045021
  0
VERTEX
  8
0
  10
1411.559803
  20
-1282.789832
  42
-0.036735
  0
VERTEX
  8
0
  10
1413.561737
  20
-1286.083976
  42
-0.029358
  0
VERTEX
  8
0
  10
1415.500894
  20
-1290.497881
  42
-0.024204
  0
VERTEX
  8
0
  10
1416.960987
  20
-1295.105971
  42
-0.023037
  0
VERTEX
  8
0
  10
1418.031489
  20
-1300.070414
  42
-0.021593
  0
VERTEX
  8
0
  10
1418.655657
  20
-1305.113709
  42
-0.019992
  0
VERTEX
  8
0
  10
1418.875021
  20
-1310.597926
  42
-0.026612
  0
VERTEX
  8
0
  10
1418.499478
  20
-1317.648787
  42
-0.030765
  0
VERTEX
  8
0
  10
1417.478353
  20
-1323.672051
  42
-0.034818
  0
VERTEX
  8
0
  10
1415.683139
  20
-1329.495030
  42
-0.038137
  0
VERTEX
  8
0
  10
1413.288351
  20
-1334.517890
  42
-0.052017
  0
VERTEX
  8
0
  10
1410.060571
  20
-1338.990990
  42
-0.055034
  0
VERTEX
  8
0
  10
1406.180559
  20
-1342.476053
  42
-0.053026
  0
VERTEX
  8
0
  10
1401.635127
  20
-1345.054004
  42
-0.046962
  0
VERTEX
  8
0
  10
1396.030521
  20
-1346.887149
  42
-0.032389
  0
VERTEX
  8
0
  10
1400.031196
  20
-1350.492231
  42
-0.044616
  0
VERTEX
  8
0
  10
1402.502207
  20
-1353.526530
  42
-0.016143
  0
VERTEX
  8
0
  10
1404.734154
  20
-1357.142505
  42
-0.013843
  0
VERTEX
  8
0
  10
1407.079404
  20
-1361.507431
  42
-0.011933
  0
VERTEX
  8
0
  10
1409.197690
  20
-1365.989635
  42
-0.010348
  0
VERTEX
  8
0
  10
1411.407690
  20
-1371.261864
  0
VERTEX
  8
0
  10
1425.512648
  20
-1407.551087
  0
VERTEX
  8
0
  10
1412.016139
  20
-1407.551087
  0
VERTEX
  8
0
  10
1401.285309
  20
-1379.811205
  42
0.006410
  0
VERTEX
  8
0
  10
1396.431993
  20
-1367.871579
  42
0.011716
  0
VERTEX
  8
0
  10
1393.541411
  20
-1361.439218
  42
0.011190
  0
VERTEX
  8
0
  10
1391.950912
  20
-1358.293704
  42
0.015100
  0
VERTEX
  8
0
  10
1390.651277
  20
-1356.027667
  42
0.021296
  0
VERTEX
  8
0
  10
1389.193917
  20
-1353.867504
  42
0.031674
  0
VERTEX
  8
0
  10
1388.065368
  20
-1352.526075
  42
0.047482
  0
VERTEX
  8
0
  10
1385.498789
  20
-1350.253904
  42
0.061970
  0
VERTEX
  8
0
  10
1383.197775
  20
-1348.979009
  42
0.034937
  0
VERTEX
  8
0
  10
1382.270308
  20
-1348.726567
  42
0.022436
  0
VERTEX
  8
0
  10
1380.791635
  20
-1348.501519
  42
0.015399
  0
VERTEX
  8
0
  10
1379.295715
  20
-1348.388546
  42
0.011146
  0
VERTEX
  8
0
  10
1377.223911
  20
-1348.342356
  0
VERTEX
  8
0
  10
1364.778360
  20
-1348.342356
  0
VERTEX
  8
0
  10
1364.778360
  20
-1407.551087
  0
VERTEX
  8
0
  10
1354.047530
  20
-1407.551087
  0
SEQEND
  0
POLYLINE
  8
0
  66
1
  70
1
  62
7
  0
VERTEX
  8
0
  10
1435.386118
  20
-1407.551087
  0
VERTEX
  8
0
  10
1435.386118
  20
-1274.217753
  0
VERTEX
  8
0
  10
1451.537677
  20
-1274.217753
  0
VERTEX
  8
0
  10
1470.731482
  20
-1368.624302
  42
-0.001237
  0
VERTEX
  8
0
  10
1473.353871
  20
-1381.818437
  42
-0.002497
  0
VERTEX
  8
0
  10
1474.603431
  20
-1388.360546
  42
-0.002843
  0
VERTEX
  8
0
  10
1476.027568
  20
-1381.092729
  42
-0.001462
  0
VERTEX
  8
0
  10
1478.917889
  20
-1366.987194
  0
VERTEX
  8
0
  10
1498.332948
  20
-1274.217753
  0
VERTEX
  8
0
  10
1512.769787
  20
-1274.217753
  0
VERTEX
  8
0
  10
1512.769787
  20
-1407.551087
  0
VERTEX
  8
0
  10
1502.426151
  20
-1407.551087
  0
VERTEX
  8
0
  10
1502.426151
  20
-1295.954907
  0
VERTEX
  8
0
  10
1478.862575
  20
-1407.551087
  0
VERTEX
  8
0
  10
1469.182702
  20
-1407.551087
  0
VERTEX
  8
0
  10
1445.729753
  20
-1294.044948
  0
VERTEX
  8
0
  10
1445.729753
  20
-1407.551087
  0
VERTEX
  8
0
  10
1435.386118
  20
-1407.551087
  0
SEQEND
  0
POLYLINE
  8
0
  66
1
  70
1
  62
7
  0
VERTEX
  8
0
  10
1521.149791
  20
-1407.551087
  0
VERTEX
  8
0
  10
1552.291324
  20
-1274.217753
  0
VERTEX
  8
0
  10
1563.851858
  20
-1274.217753
  0
VERTEX
  8
0
  10
1597.039993
  20
-1407.551087
  0
VERTEX
  8
0
  10
1584.815697
  20
-1407.551087
  0
VERTEX
  8
0
  10
1575.357078
  20
-1367.169095
  0
VERTEX
  8
0
  10
1541.449867
  20
-1367.169095
  0
VERTEX
  8
0
  10
1532.544384
  20
-1407.551087
  0
VERTEX
  8
0
  10
1521.149791
  20
-1407.551087
  0
SEQEND
  0
POLYLINE
  8
0
  66
1
  70
1
  62
7
  0
VERTEX
  8
0
  10
1269.417785
  20
-1407.551087
  0
VERTEX
  8
0
  10
1300.559319
  20
-1274.217753
  0
VERTEX
  8
0
  10
1312.119852
  20
-1274.217753
  0
VERTEX
  8
0
  10
1345.307988
  20
-1407.551087
  0
VERTEX
  8
0
  10
1333.083691
  20
-1407.551087
  0
VERTEX
  8
0
  10
1323.625073
  20
-1367.169095
  0
VERTEX
  8
0
  10
1289.717861
  20
-1367.169095
  0
VERTEX
  8
0
  10
1280.812378
  20
-1407.551087
  0
VERTEX
  8
0
  10
1269.417785
  20
-1407.551087
  0
SEQEND
  0
POLYLINE
  8
0
  66
1
  70
1
  62
7
  0
VERTEX
  8
0
  10
1605.530625
  20
-1407.551087
  0
VERTEX
  8
0
  10
1605.530625
  20
-1274.217753
  0
VERTEX
  8
0
  10
1616.538023
  20
-1274.217753
  0
VERTEX
  8
0
  10
1659.129463
  20
-1378.901701
  0
VERTEX
  8
0
  10
1659.129463
  20
-1274.217753
  0
VERTEX
  8
0
  10
1669.417785
  20
-1274.217753
  0
VERTEX
  8
0
  10
1669.417785
  20
-1407.551087
  0
VERTEX
  8
0
  10
1658.410387
  20
-1407.551087
  0
VERTEX
  8
0
  10
1615.818947
  20
-1302.776189
  0
VERTEX
  8
0
  10
1615.818947
  20
-1407.551087
  0
VERTEX
  8
0
  10
1605.530625
  20
-1407.551087
  0
SEQEND
  0
ENDSEC
  0
EOF
