  0
SECTION
  2
ENTITIES
  0
POLYLINE
  8
0
  66
1
  70
0
  62
7
  0
VERTEX
  8
0
  10
1454.598244
  20
-2059.497608
  42
-0.414214
  0
VERTEX
  8
0
  10
1453.098939
  20
-2060.996914
  42
-0.414214
  0
VERTEX
  8
0
  10
1451.599633
  20
-2059.497608
  42
-0.414214
  0
VERTEX
  8
0
  10
1453.098939
  20
-2057.998303
  42
-0.414214
  0
VERTEX
  8
0
  10
1454.598244
  20
-2059.497608
  0
SEQEND
  0
POLYLINE
  8
0
  66
1
  70
0
  62
7
  0
VERTEX
  8
0
  10
1454.598244
  20
-1963.549110
  42
-0.414211
  0
VERTEX
  8
0
  10
1453.098939
  20
-1965.051943
  42
-0.414211
  0
VERTEX
  8
0
  10
1451.599633
  20
-1963.549110
  42
-0.414214
  0
VERTEX
  8
0
  10
1453.098939
  20
-1962.049805
  42
-0.414214
  0
VERTEX
  8
0
  10
1454.598244
  20
-1963.549110
  0
SEQEND
  0
POLYLINE
  8
0
  66
1
  70
0
  62
7
  0
VERTEX
  8
0
  10
1454.598244
  20
-1897.283334
  42
-0.414214
  0
VERTEX
  8
0
  10
1453.098939
  20
-1898.782639
  42
-0.414214
  0
VERTEX
  8
0
  10
1451.599633
  20
-1897.283334
  42
-0.414214
  0
VERTEX
  8
0
  10
1453.098939
  20
-1895.784028
  42
-0.414214
  0
VERTEX
  8
0
  10
1454.598244
  20
-1897.283334
  0
SEQEND
  0
POLYLINE
  8
0
  66
1
  70
0
  62
7
  0
VERTEX
  8
0
  10
1454.598244
  20
-1801.334836
  42
-0.414211
  0
VERTEX
  8
0
  10
1453.098939
  20
-1802.837669
  42
-0.414211
  0
VERTEX
  8
0
  10
1451.599633
  20
-1801.334836
  42
-0.414214
  0
VERTEX
  8
0
  10
1453.098939
  20
-1799.835530
  42
-0.414214
  0
VERTEX
  8
0
  10
1454.598244
  20
-1801.334836
  0
SEQEND
  0
POLYLINE
  8
0
  66
1
  70
0
  62
7
  0
VERTEX
  8
0
  10
1454.598244
  20
-1757.152948
  42
-0.414213
  0
VERTEX
  8
0
  10
1453.098939
  20
-1758.652959
  42
-0.414213
  0
VERTEX
  8
0
  10
1451.599633
  20
-1757.152948
  42
-0.414213
  0
VERTEX
  8
0
  10
1453.098939
  20
-1755.652937
  42
-0.414213
  0
VERTEX
  8
0
  10
1454.598244
  20
-1757.152948
  0
SEQEND
  0
POLYLINE
  8
0
  66
1
  70
0
  62
7
  0
VERTEX
  8
0
  10
956.339508
  20
-2100.462163
  42
-0.414213
  0
VERTEX
  8
0
  10
954.839497
  20
-2101.961468
  42
-0.414213
  0
VERTEX
  8
0
  10
953.339486
  20
-2100.462163
  42
-0.414212
  0
VERTEX
  8
0
  10
954.839497
  20
-2098.959329
  42
-0.414212
  0
VERTEX
  8
0
  10
956.339508
  20
-2100.462163
  0
SEQEND
  0
POLYLINE
  8
0
  66
1
  70
0
  62
7
  0
VERTEX
  8
0
  10
1474.202105
  20
-2100.462163
  42
-0.414214
  0
VERTEX
  8
0
  10
1472.702800
  20
-2101.961468
  42
-0.414214
  0
VERTEX
  8
0
  10
1471.203494
  20
-2100.462163
  42
-0.414211
  0
VERTEX
  8
0
  10
1472.702800
  20
-2098.959329
  42
-0.414211
  0
VERTEX
  8
0
  10
1474.202105
  20
-2100.462163
  0
SEQEND
  0
POLYLINE
  8
0
  66
1
  70
0
  62
7
  0
VERTEX
  8
0
  10
956.339508
  20
-1484.450087
  42
-0.414214
  0
VERTEX
  8
0
  10
954.839497
  20
-1485.950099
  42
-0.414214
  0
VERTEX
  8
0
  10
953.339486
  20
-1484.450087
  42
-0.414214
  0
VERTEX
  8
0
  10
954.839497
  20
-1482.950076
  42
-0.414214
  0
VERTEX
  8
0
  10
956.339508
  20
-1484.450087
  0
SEQEND
  0
POLYLINE
  8
0
  66
1
  70
0
  62
7
  0
VERTEX
  8
0
  10
1474.202105
  20
-1484.450087
  42
-0.414213
  0
VERTEX
  8
0
  10
1472.702800
  20
-1485.950099
  42
-0.414213
  0
VERTEX
  8
0
  10
1471.203494
  20
-1484.450087
  42
-0.414213
  0
VERTEX
  8
0
  10
1472.702800
  20
-1482.950076
  42
-0.414213
  0
VERTEX
  8
0
  10
1474.202105
  20
-1484.450087
  0
SEQEND
  0
POLYLINE
  8
0
  66
1
  70
0
  62
7
  0
VERTEX
  8
0
  10
1454.598244
  20
-1661.206920
  42
-0.414213
  0
VERTEX
  8
0
  10
1453.098939
  20
-1662.706931
  42
-0.414213
  0
VERTEX
  8
0
  10
1451.599633
  20
-1661.206920
  42
-0.414213
  0
VERTEX
  8
0
  10
1453.098939
  20
-1659.706909
  42
-0.414213
  0
VERTEX
  8
0
  10
1454.598244
  20
-1661.206920
  0
SEQEND
  0
POLYLINE
  8
0
  66
1
  70
0
  62
7
  0
VERTEX
  8
0
  10
1244.722988
  20
-2059.497608
  42
-0.414213
  0
VERTEX
  8
0
  10
1243.222977
  20
-2060.996914
  42
-0.414213
  0
VERTEX
  8
0
  10
1241.722966
  20
-2059.497608
  42
-0.414213
  0
VERTEX
  8
0
  10
1243.222977
  20
-2057.998303
  42
-0.414213
  0
VERTEX
  8
0
  10
1244.722988
  20
-2059.497608
  0
SEQEND
  0
POLYLINE
  8
0
  66
1
  70
0
  62
7
  0
VERTEX
  8
0
  10
1244.722988
  20
-1963.549110
  42
-0.414212
  0
VERTEX
  8
0
  10
1243.222977
  20
-1965.051943
  42
-0.414212
  0
VERTEX
  8
0
  10
1241.722966
  20
-1963.549110
  42
-0.414213
  0
VERTEX
  8
0
  10
1243.222977
  20
-1962.049805
  42
-0.414213
  0
VERTEX
  8
0
  10
1244.722988
  20
-1963.549110
  0
SEQEND
  0
POLYLINE
  8
0
  66
1
  70
0
  62
7
  0
VERTEX
  8
0
  10
1244.722988
  20
-1897.283334
  42
-0.414213
  0
VERTEX
  8
0
  10
1243.222977
  20
-1898.782639
  42
-0.414213
  0
VERTEX
  8
0
  10
1241.722966
  20
-1897.283334
  42
-0.414213
  0
VERTEX
  8
0
  10
1243.222977
  20
-1895.784028
  42
-0.414213
  0
VERTEX
  8
0
  10
1244.722988
  20
-1897.283334
  0
SEQEND
  0
POLYLINE
  8
0
  66
1
  70
0
  62
7
  0
VERTEX
  8
0
  10
1244.722988
  20
-1801.334836
  42
-0.414212
  0
VERTEX
  8
0
  10
1243.222977
  20
-1802.837669
  42
-0.414212
  0
VERTEX
  8
0
  10
1241.722966
  20
-1801.334836
  42
-0.414213
  0
VERTEX
  8
0
  10
1243.222977
  20
-1799.835530
  42
-0.414213
  0
VERTEX
  8
0
  10
1244.722988
  20
-1801.334836
  0
SEQEND
  0
POLYLINE
  8
0
  66
1
  70
0
  62
7
  0
VERTEX
  8
0
  10
1244.722988
  20
-1757.152948
  42
-0.414214
  0
VERTEX
  8
0
  10
1243.222977
  20
-1758.652959
  42
-0.414214
  0
VERTEX
  8
0
  10
1241.722966
  20
-1757.152948
  42
-0.414214
  0
VERTEX
  8
0
  10
1243.222977
  20
-1755.652937
  42
-0.414214
  0
VERTEX
  8
0
  10
1244.722988
  20
-1757.152948
  0
SEQEND
  0
POLYLINE
  8
0
  66
1
  70
0
  62
7
  0
VERTEX
  8
0
  10
1244.722988
  20
-1661.206920
  42
-0.414214
  0
VERTEX
  8
0
  10
1243.222977
  20
-1662.706931
  42
-0.414214
  0
VERTEX
  8
0
  10
1241.722966
  20
-1661.206920
  42
-0.414214
  0
VERTEX
  8
0
  10
1243.222977
  20
-1659.706909
  42
-0.414214
  0
VERTEX
  8
0
  10
1244.722988
  20
-1661.206920
  0
SEQEND
  0
POLYLINE
  8
0
  66
1
  70
0
  62
7
  0
VERTEX
  8
0
  10
1185.967498
  20
-2059.497608
  42
-0.414213
  0
VERTEX
  8
0
  10
1184.467486
  20
-2060.996914
  42
-0.414213
  0
VERTEX
  8
0
  10
1182.967475
  20
-2059.497608
  42
-0.414213
  0
VERTEX
  8
0
  10
1184.467486
  20
-2057.998303
  42
-0.414213
  0
VERTEX
  8
0
  10
1185.967498
  20
-2059.497608
  0
SEQEND
  0
POLYLINE
  8
0
  66
1
  70
0
  62
7
  0
VERTEX
  8
0
  10
1185.967498
  20
-1963.549110
  42
-0.414212
  0
VERTEX
  8
0
  10
1184.467486
  20
-1965.051943
  42
-0.414212
  0
VERTEX
  8
0
  10
1182.967475
  20
-1963.549110
  42
-0.414213
  0
VERTEX
  8
0
  10
1184.467486
  20
-1962.049805
  42
-0.414213
  0
VERTEX
  8
0
  10
1185.967498
  20
-1963.549110
  0
SEQEND
  0
POLYLINE
  8
0
  66
1
  70
0
  62
7
  0
VERTEX
  8
0
  10
1185.967498
  20
-1897.283334
  42
-0.414213
  0
VERTEX
  8
0
  10
1184.467486
  20
-1898.782639
  42
-0.414213
  0
VERTEX
  8
0
  10
1182.967475
  20
-1897.283334
  42
-0.414213
  0
VERTEX
  8
0
  10
1184.467486
  20
-1895.784028
  42
-0.414213
  0
VERTEX
  8
0
  10
1185.967498
  20
-1897.283334
  0
SEQEND
  0
POLYLINE
  8
0
  66
1
  70
0
  62
7
  0
VERTEX
  8
0
  10
1185.967498
  20
-1801.334836
  42
-0.414212
  0
VERTEX
  8
0
  10
1184.467486
  20
-1802.837669
  42
-0.414212
  0
VERTEX
  8
0
  10
1182.967475
  20
-1801.334836
  42
-0.414213
  0
VERTEX
  8
0
  10
1184.467486
  20
-1799.835530
  42
-0.414213
  0
VERTEX
  8
0
  10
1185.967498
  20
-1801.334836
  0
SEQEND
  0
POLYLINE
  8
0
  66
1
  70
0
  62
7
  0
VERTEX
  8
0
  10
1185.967498
  20
-1757.152948
  42
-0.414214
  0
VERTEX
  8
0
  10
1184.467486
  20
-1758.652959
  42
-0.414214
  0
VERTEX
  8
0
  10
1182.967475
  20
-1757.152948
  42
-0.414214
  0
VERTEX
  8
0
  10
1184.467486
  20
-1755.652937
  42
-0.414214
  0
VERTEX
  8
0
  10
1185.967498
  20
-1757.152948
  0
SEQEND
  0
POLYLINE
  8
0
  66
1
  70
0
  62
7
  0
VERTEX
  8
0
  10
1185.967498
  20
-1661.206920
  42
-0.414214
  0
VERTEX
  8
0
  10
1184.467486
  20
-1662.706931
  42
-0.414214
  0
VERTEX
  8
0
  10
1182.967475
  20
-1661.206920
  42
-0.414214
  0
VERTEX
  8
0
  10
1184.467486
  20
-1659.706909
  42
-0.414214
  0
VERTEX
  8
0
  10
1185.967498
  20
-1661.206920
  0
SEQEND
  0
POLYLINE
  8
0
  66
1
  70
0
  62
7
  0
VERTEX
  8
0
  10
976.090830
  20
-2059.497608
  42
-0.414214
  0
VERTEX
  8
0
  10
974.591172
  20
-2060.996914
  42
-0.414213
  0
VERTEX
  8
0
  10
973.091161
  20
-2059.497608
  42
-0.414213
  0
VERTEX
  8
0
  10
974.591172
  20
-2057.998303
  42
-0.414214
  0
VERTEX
  8
0
  10
976.090830
  20
-2059.497608
  0
SEQEND
  0
POLYLINE
  8
0
  66
1
  70
0
  62
7
  0
VERTEX
  8
0
  10
976.090830
  20
-1963.549110
  42
-0.414212
  0
VERTEX
  8
0
  10
974.591172
  20
-1965.051943
  42
-0.414212
  0
VERTEX
  8
0
  10
973.091161
  20
-1963.549110
  42
-0.414213
  0
VERTEX
  8
0
  10
974.591172
  20
-1962.049805
  42
-0.414214
  0
VERTEX
  8
0
  10
976.090830
  20
-1963.549110
  0
SEQEND
  0
POLYLINE
  8
0
  66
1
  70
0
  62
7
  0
VERTEX
  8
0
  10
976.090830
  20
-1897.283334
  42
-0.414214
  0
VERTEX
  8
0
  10
974.591172
  20
-1898.782639
  42
-0.414213
  0
VERTEX
  8
0
  10
973.091161
  20
-1897.283334
  42
-0.414213
  0
VERTEX
  8
0
  10
974.591172
  20
-1895.784028
  42
-0.414214
  0
VERTEX
  8
0
  10
976.090830
  20
-1897.283334
  0
SEQEND
  0
POLYLINE
  8
0
  66
1
  70
0
  62
7
  0
VERTEX
  8
0
  10
976.090830
  20
-1801.334836
  42
-0.414212
  0
VERTEX
  8
0
  10
974.591172
  20
-1802.837669
  42
-0.414212
  0
VERTEX
  8
0
  10
973.091161
  20
-1801.334836
  42
-0.414213
  0
VERTEX
  8
0
  10
974.591172
  20
-1799.835530
  42
-0.414214
  0
VERTEX
  8
0
  10
976.090830
  20
-1801.334836
  0
SEQEND
  0
POLYLINE
  8
0
  66
1
  70
0
  62
7
  0
VERTEX
  8
0
  10
976.090830
  20
-1757.152948
  42
-0.414214
  0
VERTEX
  8
0
  10
974.591172
  20
-1758.652959
  42
-0.414214
  0
VERTEX
  8
0
  10
973.091161
  20
-1757.152948
  42
-0.414214
  0
VERTEX
  8
0
  10
974.591172
  20
-1755.652937
  42
-0.414214
  0
VERTEX
  8
0
  10
976.090830
  20
-1757.152948
  0
SEQEND
  0
POLYLINE
  8
0
  66
1
  70
0
  62
7
  0
VERTEX
  8
0
  10
976.090830
  20
-1661.206920
  42
-0.414214
  0
VERTEX
  8
0
  10
974.591172
  20
-1662.706931
  42
-0.414214
  0
VERTEX
  8
0
  10
973.091161
  20
-1661.206920
  42
-0.414214
  0
VERTEX
  8
0
  10
974.591172
  20
-1659.706909
  42
-0.414214
  0
VERTEX
  8
0
  10
976.090830
  20
-1661.206920
  0
SEQEND
  0
POLYLINE
  8
0
  66
1
  70
0
  62
7
  0
VERTEX
  8
0
  10
1513.773188
  20
-2076.776663
  42
-0.049849
  0
VERTEX
  8
0
  10
1512.464247
  20
-2089.873153
  42
-0.050279
  0
VERTEX
  8
0
  10
1508.611498
  20
-2102.341145
  42
-0.048306
  0
VERTEX
  8
0
  10
1502.598190
  20
-2113.434939
  42
-0.048083
  0
VERTEX
  8
0
  10
1494.535334
  20
-2123.217211
  42
-0.048081
  0
VERTEX
  8
0
  10
1484.752591
  20
-2131.279297
  42
-0.048302
  0
VERTEX
  8
0
  10
1473.658056
  20
-2137.292162
  42
-0.050272
  0
VERTEX
  8
0
  10
1461.189702
  20
-2141.144506
  42
-0.049843
  0
VERTEX
  8
0
  10
1448.093022
  20
-2142.453301
  0
VERTEX
  8
0
  10
979.447158
  20
-2142.453301
  42
-0.049844
  0
VERTEX
  8
0
  10
966.350542
  20
-2141.144484
  42
-0.050275
  0
VERTEX
  8
0
  10
953.882690
  20
-2137.292162
  42
-0.048305
  0
VERTEX
  8
0
  10
942.788766
  20
-2131.279326
  42
-0.048084
  0
VERTEX
  8
0
  10
933.006623
  20
-2123.217211
  42
-0.048084
  0
VERTEX
  8
0
  10
924.944503
  20
-2113.435069
  42
-0.048305
  0
VERTEX
  8
0
  10
918.931664
  20
-2102.341145
  42
-0.050275
  0
VERTEX
  8
0
  10
915.079338
  20
-2089.873289
  42
-0.049844
  0
VERTEX
  8
0
  10
913.770520
  20
-2076.776663
  0
VERTEX
  8
0
  10
913.770520
  20
-1508.132412
  42
-0.049844
  0
VERTEX
  8
0
  10
915.079338
  20
-1495.035786
  42
-0.050275
  0
VERTEX
  8
0
  10
918.931664
  20
-1482.567930
  42
-0.048305
  0
VERTEX
  8
0
  10
924.944503
  20
-1471.474006
  42
-0.048084
  0
VERTEX
  8
0
  10
933.006623
  20
-1461.691864
  42
-0.048084
  0
VERTEX
  8
0
  10
942.788766
  20
-1453.629749
  42
-0.048305
  0
VERTEX
  8
0
  10
953.882690
  20
-1447.616913
  42
-0.050275
  0
VERTEX
  8
0
  10
966.350542
  20
-1443.764591
  42
-0.049844
  0
VERTEX
  8
0
  10
979.447158
  20
-1442.455774
  0
VERTEX
  8
0
  10
1448.093022
  20
-1442.455774
  42
-0.049843
  0
VERTEX
  8
0
  10
1461.189702
  20
-1443.764569
  42
-0.050272
  0
VERTEX
  8
0
  10
1473.658056
  20
-1447.616913
  42
-0.048302
  0
VERTEX
  8
0
  10
1484.752591
  20
-1453.629778
  42
-0.048081
  0
VERTEX
  8
0
  10
1494.535334
  20
-1461.691864
  42
-0.048083
  0
VERTEX
  8
0
  10
1502.598190
  20
-1471.474136
  42
-0.048306
  0
VERTEX
  8
0
  10
1508.611498
  20
-1482.567930
  42
-0.050279
  0
VERTEX
  8
0
  10
1512.464247
  20
-1495.035923
  42
-0.049849
  0
VERTEX
  8
0
  10
1513.773188
  20
-1508.132412
  0
VERTEX
  8
0
  10
1513.773188
  20
-2076.776663
  0
SEQEND
  0
POLYLINE
  8
0
  66
1
  70
0
  62
7
  0
VERTEX
  8
0
  10
1319.840345
  20
-1595.367846
  42
-0.414214
  0
VERTEX
  8
0
  10
1318.340334
  20
-1596.867858
  42
-0.414214
  0
VERTEX
  8
0
  10
1316.840323
  20
-1595.367846
  42
-0.414214
  0
VERTEX
  8
0
  10
1318.340334
  20
-1593.867835
  42
-0.414214
  0
VERTEX
  8
0
  10
1319.840345
  20
-1595.367846
  0
SEQEND
  0
POLYLINE
  8
0
  66
1
  70
0
  62
7
  0
VERTEX
  8
0
  10
1319.840345
  20
-1499.421642
  42
-0.414214
  0
VERTEX
  8
0
  10
1318.340334
  20
-1500.921653
  42
-0.414214
  0
VERTEX
  8
0
  10
1316.840323
  20
-1499.421642
  42
-0.414214
  0
VERTEX
  8
0
  10
1318.340334
  20
-1497.921666
  42
-0.414214
  0
VERTEX
  8
0
  10
1319.840345
  20
-1499.421642
  0
SEQEND
  0
POLYLINE
  8
0
  66
1
  70
0
  62
7
  0
VERTEX
  8
0
  10
1109.963854
  20
-1595.367846
  42
-0.414214
  0
VERTEX
  8
0
  10
1108.463878
  20
-1596.867858
  42
-0.414214
  0
VERTEX
  8
0
  10
1106.963867
  20
-1595.367846
  42
-0.414214
  0
VERTEX
  8
0
  10
1108.463878
  20
-1593.867835
  42
-0.414214
  0
VERTEX
  8
0
  10
1109.963854
  20
-1595.367846
  0
SEQEND
  0
POLYLINE
  8
0
  66
1
  70
0
  62
7
  0
VERTEX
  8
0
  10
1109.963854
  20
-1499.421642
  42
-0.414214
  0
VERTEX
  8
0
  10
1108.463878
  20
-1500.921653
  42
-0.414214
  0
VERTEX
  8
0
  10
1106.963867
  20
-1499.421642
  42
-0.414214
  0
VERTEX
  8
0
  10
1108.463878
  20
-1497.921666
  42
-0.414214
  0
VERTEX
  8
0
  10
1109.963854
  20
-1499.421642
  0
SEQEND
  0
POLYLINE
  8
0
  66
1
  70
1
  62
7
  0
VERTEX
  8
0
  10
1161.481768
  20
-1554.889547
  0
VERTEX
  8
0
  10
1161.481768
  20
-1544.889547
  0
VERTEX
  8
0
  10
1171.481768
  20
-1544.889547
  0
VERTEX
  8
0
  10
1171.481768
  20
-1554.889547
  0
VERTEX
  8
0
  10
1161.481768
  20
-1554.889547
  0
SEQEND
  0
POLYLINE
  8
0
  66
1
  70
1
  62
7
  0
VERTEX
  8
0
  10
1228.112391
  20
-1552.249933
  0
VERTEX
  8
0
  10
1224.219726
  20
-1549.789257
  0
VERTEX
  8
0
  10
1224.565473
  20
-1544.749933
  0
VERTEX
  8
0
  10
1220.740319
  20
-1547.343237
  0
VERTEX
  8
0
  10
1217.065473
  20
-1544.483958
  0
VERTEX
  8
0
  10
1217.132984
  20
-1549.537938
  0
VERTEX
  8
0
  10
1213.112391
  20
-1551.717983
  0
VERTEX
  8
0
  10
1217.005056
  20
-1554.178659
  0
VERTEX
  8
0
  10
1216.659309
  20
-1559.217983
  0
VERTEX
  8
0
  10
1220.484463
  20
-1556.624679
  0
VERTEX
  8
0
  10
1224.159309
  20
-1559.483958
  0
VERTEX
  8
0
  10
1224.091798
  20
-1554.429978
  0
VERTEX
  8
0
  10
1228.112391
  20
-1552.249933
  0
SEQEND
  0
POLYLINE
  8
0
  66
1
  70
1
  62
7
  0
VERTEX
  8
0
  10
1267.834991
  20
-1544.605924
  0
VERTEX
  8
0
  10
1260.049660
  20
-1539.684572
  0
VERTEX
  8
0
  10
1260.741155
  20
-1529.605924
  0
VERTEX
  8
0
  10
1253.090847
  20
-1534.792532
  0
VERTEX
  8
0
  10
1245.741155
  20
-1529.073974
  0
VERTEX
  8
0
  10
1245.876177
  20
-1539.181934
  0
VERTEX
  8
0
  10
1237.834991
  20
-1543.542024
  0
VERTEX
  8
0
  10
1245.620321
  20
-1548.463376
  0
VERTEX
  8
0
  10
1244.928827
  20
-1558.542024
  0
VERTEX
  8
0
  10
1252.579135
  20
-1553.355417
  0
VERTEX
  8
0
  10
1259.928827
  20
-1559.073974
  0
VERTEX
  8
0
  10
1259.793804
  20
-1548.966015
  0
VERTEX
  8
0
  10
1267.834991
  20
-1544.605924
  0
SEQEND
  0
ENDSEC
  0
EOF
