  0
SECTION
  2
ENTITIES
  0
POLYLINE
  8
0
  66
1
  70
1
  62
7
  0
VERTEX
  8
0
  10
1784.842529
  20
-2116.935585
  0
VERTEX
  8
0
  10
1784.842529
  20
-1916.935585
  0
VERTEX
  8
0
  10
2084.842529
  20
-1916.935585
  0
VERTEX
  8
0
  10
2084.842529
  20
-2116.935585
  0
VERTEX
  8
0
  10
1784.842529
  20
-2116.935585
  0
SEQEND
  0
POLYLINE
  8
0
  66
1
  70
1
  62
7
  0
VERTEX
  8
0
  10
1887.177553
  20
-2070.539340
  0
VERTEX
  8
0
  10
1887.177553
  20
-1970.539340
  0
VERTEX
  8
0
  10
1987.177553
  20
-1970.539340
  0
VERTEX
  8
0
  10
1987.177553
  20
-2070.539340
  0
VERTEX
  8
0
  10
1887.177553
  20
-2070.539340
  0
SEQEND
  0
POLYLINE
  8
0
  66
1
  70
1
  62
7
  0
VERTEX
  8
0
  10
1359.498760
  20
-2072.953220
  0
VERTEX
  8
0
  10
1359.498760
  20
-1939.619887
  0
VERTEX
  8
0
  10
1395.452573
  20
-1939.619887
  42
-0.023763
  0
VERTEX
  8
0
  10
1400.845340
  20
-1939.876325
  42
-0.030558
  0
VERTEX
  8
0
  10
1404.994162
  20
-1940.529391
  42
-0.039340
  0
VERTEX
  8
0
  10
1408.986831
  20
-1941.746397
  42
-0.049595
  0
VERTEX
  8
0
  10
1411.936014
  20
-1943.257904
  42
-0.052565
  0
VERTEX
  8
0
  10
1414.516307
  20
-1945.286586
  42
-0.045021
  0
VERTEX
  8
0
  10
1417.011033
  20
-1948.191965
  42
-0.036735
  0
VERTEX
  8
0
  10
1419.012967
  20
-1951.486110
  42
-0.029358
  0
VERTEX
  8
0
  10
1420.952124
  20
-1955.900014
  42
-0.024204
  0
VERTEX
  8
0
  10
1422.412218
  20
-1960.508105
  42
-0.023037
  0
VERTEX
  8
0
  10
1423.482719
  20
-1965.472547
  42
-0.021593
  0
VERTEX
  8
0
  10
1424.106887
  20
-1970.515843
  42
-0.019992
  0
VERTEX
  8
0
  10
1424.326251
  20
-1976.000060
  42
-0.026612
  0
VERTEX
  8
0
  10
1423.950709
  20
-1983.050921
  42
-0.030765
  0
VERTEX
  8
0
  10
1422.929584
  20
-1989.074184
  42
-0.034818
  0
VERTEX
  8
0
  10
1421.134369
  20
-1994.897163
  42
-0.038137
  0
VERTEX
  8
0
  10
1418.739581
  20
-1999.920023
  42
-0.052017
  0
VERTEX
  8
0
  10
1415.511801
  20
-2004.393124
  42
-0.055034
  0
VERTEX
  8
0
  10
1411.631789
  20
-2007.878186
  42
-0.053026
  0
VERTEX
  8
0
  10
1407.086358
  20
-2010.456137
  42
-0.046962
  0
VERTEX
  8
0
  10
1401.481751
  20
-2012.289282
  42
-0.032389
  0
VERTEX
  8
0
  10
1405.482427
  20
-2015.894364
  42
-0.044616
  0
VERTEX
  8
0
  10
1407.953438
  20
-2018.928664
  42
-0.016143
  0
VERTEX
  8
0
  10
1410.185384
  20
-2022.544639
  42
-0.013843
  0
VERTEX
  8
0
  10
1412.530635
  20
-2026.909564
  42
-0.011933
  0
VERTEX
  8
0
  10
1414.648920
  20
-2031.391768
  42
-0.010348
  0
VERTEX
  8
0
  10
1416.858920
  20
-2036.663998
  0
VERTEX
  8
0
  10
1430.963878
  20
-2072.953220
  0
VERTEX
  8
0
  10
1417.467370
  20
-2072.953220
  0
VERTEX
  8
0
  10
1406.736539
  20
-2045.213339
  42
0.006410
  0
VERTEX
  8
0
  10
1401.883223
  20
-2033.273713
  42
0.011716
  0
VERTEX
  8
0
  10
1398.992641
  20
-2026.841351
  42
0.011190
  0
VERTEX
  8
0
  10
1397.402142
  20
-2023.695838
  42
0.015100
  0
VERTEX
  8
0
  10
1396.102508
  20
-2021.429801
  42
0.021296
  0
VERTEX
  8
0
  10
1394.645147
  20
-2019.269637
  42
0.031674
  0
VERTEX
  8
0
  10
1393.516599
  20
-2017.928209
  42
0.047482
  0
VERTEX
  8
0
  10
1390.950019
  20
-2015.656038
  42
0.061970
  0
VERTEX
  8
0
  10
1388.649006
  20
-2014.381142
  42
0.034937
  0
VERTEX
  8
0
  10
1387.721538
  20
-2014.128700
  42
0.022436
  0
VERTEX
  8
0
  10
1386.242866
  20
-2013.903652
  42
0.015399
  0
VERTEX
  8
0
  10
1384.746945
  20
-2013.790680
  42
0.011146
  0
VERTEX
  8
0
  10
1382.675141
  20
-2013.744489
  0
VERTEX
  8
0
  10
1370.229590
  20
-2013.744489
  0
VERTEX
  8
0
  10
1370.229590
  20
-2072.953220
  0
VERTEX
  8
0
  10
1359.498760
  20
-2072.953220
  0
SEQEND
  0
POLYLINE
  8
0
  66
1
  70
1
  62
7
  0
VERTEX
  8
0
  10
1370.229590
  20
-1998.464816
  0
VERTEX
  8
0
  10
1393.295344
  20
-1998.464816
  42
0.023351
  0
VERTEX
  8
0
  10
1396.955646
  20
-1998.293777
  42
0.029232
  0
VERTEX
  8
0
  10
1399.850001
  20
-1997.850901
  42
0.036486
  0
VERTEX
  8
0
  10
1402.648015
  20
-1997.036548
  42
0.044606
  0
VERTEX
  8
0
  10
1404.800565
  20
-1996.009155
  42
0.045165
  0
VERTEX
  8
0
  10
1406.728452
  20
-1994.571308
  42
0.043131
  0
VERTEX
  8
0
  10
1408.451260
  20
-1992.734939
  42
0.038957
  0
VERTEX
  8
0
  10
1409.855513
  20
-1990.635015
  42
0.033785
  0
VERTEX
  8
0
  10
1411.106310
  20
-1988.005517
  42
0.048300
  0
VERTEX
  8
0
  10
1412.697448
  20
-1982.351356
  42
0.044477
  0
VERTEX
  8
0
  10
1413.263539
  20
-1976.000060
  42
0.030348
  0
VERTEX
  8
0
  10
1412.978513
  20
-1971.308479
  42
0.035674
  0
VERTEX
  8
0
  10
1412.212582
  20
-1967.382506
  42
0.040700
  0
VERTEX
  8
0
  10
1410.863481
  20
-1963.632535
  42
0.044327
  0
VERTEX
  8
0
  10
1409.059709
  20
-1960.447536
  42
0.066985
  0
VERTEX
  8
0
  10
1406.664554
  20
-1957.779138
  42
0.068111
  0
VERTEX
  8
0
  10
1403.694294
  20
-1955.877277
  42
0.031466
  0
VERTEX
  8
0
  10
1402.013532
  20
-1955.224202
  42
0.028706
  0
VERTEX
  8
0
  10
1400.098912
  20
-1954.734712
  42
0.025643
  0
VERTEX
  8
0
  10
1398.139294
  20
-1954.455309
  42
0.022591
  0
VERTEX
  8
0
  10
1395.895082
  20
-1954.353857
  0
VERTEX
  8
0
  10
1370.229590
  20
-1954.353857
  0
VERTEX
  8
0
  10
1370.229590
  20
-1998.464816
  0
SEQEND
  0
POLYLINE
  8
0
  66
1
  70
1
  62
7
  0
VERTEX
  8
0
  10
1440.837348
  20
-2072.953220
  0
VERTEX
  8
0
  10
1440.837348
  20
-1939.619887
  0
VERTEX
  8
0
  10
1456.988907
  20
-1939.619887
  0
VERTEX
  8
0
  10
1476.182712
  20
-2034.026435
  42
-0.001237
  0
VERTEX
  8
0
  10
1478.805101
  20
-2047.220570
  42
-0.002497
  0
VERTEX
  8
0
  10
1480.054661
  20
-2053.762679
  42
-0.002843
  0
VERTEX
  8
0
  10
1481.478798
  20
-2046.494862
  42
-0.001462
  0
VERTEX
  8
0
  10
1484.369119
  20
-2032.389328
  0
VERTEX
  8
0
  10
1503.784178
  20
-1939.619887
  0
VERTEX
  8
0
  10
1518.221017
  20
-1939.619887
  0
VERTEX
  8
0
  10
1518.221017
  20
-2072.953220
  0
VERTEX
  8
0
  10
1507.877381
  20
-2072.953220
  0
VERTEX
  8
0
  10
1507.877381
  20
-1961.357040
  0
VERTEX
  8
0
  10
1484.313805
  20
-2072.953220
  0
VERTEX
  8
0
  10
1474.633933
  20
-2072.953220
  0
VERTEX
  8
0
  10
1451.180984
  20
-1959.447081
  0
VERTEX
  8
0
  10
1451.180984
  20
-2072.953220
  0
VERTEX
  8
0
  10
1440.837348
  20
-2072.953220
  0
SEQEND
  0
POLYLINE
  8
0
  66
1
  70
1
  62
7
  0
VERTEX
  8
0
  10
1274.869015
  20
-2072.953220
  0
VERTEX
  8
0
  10
1306.010549
  20
-1939.619887
  0
VERTEX
  8
0
  10
1317.571083
  20
-1939.619887
  0
VERTEX
  8
0
  10
1350.759218
  20
-2072.953220
  0
VERTEX
  8
0
  10
1338.534921
  20
-2072.953220
  0
VERTEX
  8
0
  10
1329.076303
  20
-2032.571228
  0
VERTEX
  8
0
  10
1295.169091
  20
-2032.571228
  0
VERTEX
  8
0
  10
1286.263608
  20
-2072.953220
  0
VERTEX
  8
0
  10
1274.869015
  20
-2072.953220
  0
SEQEND
  0
POLYLINE
  8
0
  66
1
  70
1
  62
7
  0
VERTEX
  8
0
  10
1298.266651
  20
-2018.201060
  0
VERTEX
  8
0
  10
1325.757489
  20
-2018.201060
  0
VERTEX
  8
0
  10
1317.294515
  20
-1981.275185
  42
-0.005262
  0
VERTEX
  8
0
  10
1313.600710
  20
-1964.413408
  42
-0.008272
  0
VERTEX
  8
0
  10
1311.541905
  20
-1953.626253
  42
-0.012437
  0
VERTEX
  8
0
  10
1309.676390
  20
-1966.395938
  42
-0.012403
  0
VERTEX
  8
0
  10
1307.172134
  20
-1979.092374
  0
VERTEX
  8
0
  10
1298.266651
  20
-2018.201060
  0
SEQEND
  0
POLYLINE
  8
0
  66
1
  70
1
  62
7
  0
VERTEX
  8
0
  10
1526.601021
  20
-2072.953220
  0
VERTEX
  8
0
  10
1557.742555
  20
-1939.619887
  0
VERTEX
  8
0
  10
1569.303088
  20
-1939.619887
  0
VERTEX
  8
0
  10
1602.491224
  20
-2072.953220
  0
VERTEX
  8
0
  10
1590.266927
  20
-2072.953220
  0
VERTEX
  8
0
  10
1580.808309
  20
-2032.571228
  0
VERTEX
  8
0
  10
1546.901097
  20
-2032.571228
  0
VERTEX
  8
0
  10
1537.995614
  20
-2072.953220
  0
VERTEX
  8
0
  10
1526.601021
  20
-2072.953220
  0
SEQEND
  0
POLYLINE
  8
0
  66
1
  70
1
  62
7
  0
VERTEX
  8
0
  10
1549.998656
  20
-2018.201060
  0
VERTEX
  8
0
  10
1577.489495
  20
-2018.201060
  0
VERTEX
  8
0
  10
1569.026521
  20
-1981.275185
  42
-0.005262
  0
VERTEX
  8
0
  10
1565.332716
  20
-1964.413408
  42
-0.008272
  0
VERTEX
  8
0
  10
1563.273910
  20
-1953.626253
  42
-0.012437
  0
VERTEX
  8
0
  10
1561.408396
  20
-1966.395938
  42
-0.012403
  0
VERTEX
  8
0
  10
1558.904139
  20
-1979.092374
  0
VERTEX
  8
0
  10
1549.998656
  20
-2018.201060
  0
SEQEND
  0
POLYLINE
  8
0
  66
1
  70
1
  62
7
  0
VERTEX
  8
0
  10
1610.981855
  20
-2072.953220
  0
VERTEX
  8
0
  10
1610.981855
  20
-1939.619887
  0
VERTEX
  8
0
  10
1621.989253
  20
-1939.619887
  0
VERTEX
  8
0
  10
1664.580693
  20
-2044.303834
  0
VERTEX
  8
0
  10
1664.580693
  20
-1939.619887
  0
VERTEX
  8
0
  10
1674.869015
  20
-1939.619887
  0
VERTEX
  8
0
  10
1674.869015
  20
-2072.953220
  0
VERTEX
  8
0
  10
1663.861617
  20
-2072.953220
  0
VERTEX
  8
0
  10
1621.270177
  20
-1968.178323
  0
VERTEX
  8
0
  10
1621.270177
  20
-2072.953220
  0
VERTEX
  8
0
  10
1610.981855
  20
-2072.953220
  0
SEQEND
  0
ENDSEC
  0
EOF
